<?xml version="1.0" encoding="UTF-8" standalone="no"?>
<!DOCTYPE svg PUBLIC "-//W3C//DTD SVG 1.1//EN" "http://www.w3.org/Graphics/SVG/1.1/DTD/svg11.dtd">
<svg width="100%" height="100%" viewBox="0 0 508 166" version="1.1" xmlns="http://www.w3.org/2000/svg" xmlns:xlink="http://www.w3.org/1999/xlink" xml:space="preserve" xmlns:serif="http://www.serif.com/" style="fill-rule:evenodd;clip-rule:evenodd;stroke-linejoin:round;stroke-miterlimit:2;">
    <g transform="matrix(1,0,0,1,-1.72526,-165.043)">
        <g id="paragraph_layout">
            <g transform="matrix(1,0,0,1,-54.9556,-17.0239)">
                <rect x="59.379" y="184.874" width="94.857" height="37.239" style="fill:rgb(255,3,0);"/>
            </g>
            <g transform="matrix(2.42309,0,0,1,-140.553,19.7509)">
                <rect x="59.379" y="184.874" width="94.857" height="37.239" style="fill:rgb(121,255,0);"/>
            </g>
            <g transform="matrix(0.545252,0,0,1,65.8107,-17.2526)">
                <rect x="59.379" y="184.874" width="94.857" height="37.239" style="fill:rgb(255,101,0);"/>
            </g>
            <g transform="matrix(1.82291,0,0,1,124.741,19.8669)">
                <rect x="59.379" y="184.874" width="94.857" height="37.239" style="fill:rgb(0,255,54);"/>
            </g>
            <g transform="matrix(1.04246,0,0,1,-67.1064,0.0443686)">
                <rect x="207.246" y="166.027" width="80.389" height="38.341" style="fill:rgb(255,176,0);"/>
            </g>
            <g transform="matrix(2.10113,0,0,1,-430.931,75.6177)">
                <rect x="207.246" y="166.027" width="80.389" height="38.341" style="fill:rgb(0,255,143);"/>
            </g>
            <g transform="matrix(1.30363,0,0,1,-177.955,-22.5666)">
                <rect x="314.621" y="191.171" width="95.331" height="36.034" style="fill:rgb(255,227,0);"/>
            </g>
            <g transform="matrix(1.74925,0,0,1.03359,-378.381,43.6922)">
                <rect x="314.621" y="191.171" width="95.331" height="36.034" style="fill:rgb(0,255,246);"/>
            </g>
            <g transform="matrix(2.84101,0,0,0.642751,-816.081,56.8407)">
                <rect x="412.491" y="174.717" width="36.515" height="56.263" style="fill:rgb(215,255,0);"/>
            </g>
            <g transform="matrix(2.84101,0,0,0.675765,-833.706,123.629)">
                <rect x="412.491" y="174.717" width="36.515" height="56.263" style="fill:rgb(0,130,255);"/>
            </g>
        </g>
        <g id="span_area" transform="matrix(0.935538,0,0,0.995847,-145.869,-77.8273)">
            <path d="M696.632,261.467C696.546,260.639 697.192,259.902 698.072,259.822C698.953,259.741 699.738,260.347 699.824,261.175C699.888,261.792 699.921,262.419 699.921,263.052L699.921,264.644C699.921,265.476 699.202,266.151 698.317,266.151C697.432,266.151 696.714,265.476 696.714,264.644L696.714,263.052C696.714,262.517 696.686,261.988 696.632,261.467ZM696.714,274.199C696.714,273.368 697.432,272.693 698.317,272.693C699.202,272.693 699.921,273.368 699.921,274.199L699.921,277.384C699.921,278.215 699.202,278.89 698.317,278.89C697.432,278.89 696.714,278.215 696.714,277.384L696.714,274.199ZM696.714,286.938C696.714,286.106 697.432,285.432 698.317,285.432C699.202,285.432 699.921,286.106 699.921,286.938L699.921,290.122C699.921,290.954 699.202,291.629 698.317,291.629C697.432,291.629 696.714,290.954 696.714,290.122L696.714,286.938ZM696.714,299.677C696.714,298.846 697.432,298.171 698.317,298.171C699.202,298.171 699.921,298.846 699.921,299.677L699.921,302.862C699.921,303.693 699.202,304.368 698.317,304.368C697.432,304.368 696.714,303.693 696.714,302.862L696.714,299.677ZM696.714,312.416C696.714,311.585 697.432,310.91 698.317,310.91C699.202,310.91 699.921,311.585 699.921,312.416L699.921,315.601C699.921,316.432 699.202,317.107 698.317,317.107C697.432,317.107 696.714,316.432 696.714,315.601L696.714,312.416ZM696.714,325.155C696.714,324.324 697.432,323.649 698.317,323.649C699.202,323.649 699.921,324.324 699.921,325.155L699.921,328.34C699.921,329.171 699.202,329.846 698.317,329.846C697.432,329.846 696.714,329.171 696.714,328.34L696.714,325.155ZM696.714,337.894C696.714,337.063 697.432,336.388 698.317,336.388C699.202,336.388 699.921,337.063 699.921,337.894L699.921,341.079C699.921,341.91 699.202,342.585 698.317,342.585C697.432,342.585 696.714,341.91 696.714,341.079L696.714,337.894ZM696.714,350.633C696.714,349.802 697.432,349.127 698.317,349.127C699.202,349.127 699.921,349.802 699.921,350.633L699.921,353.818C699.921,354.649 699.202,355.324 698.317,355.324C697.432,355.324 696.714,354.649 696.714,353.818L696.714,350.633ZM696.714,363.372C696.714,362.541 697.432,361.866 698.317,361.866C699.202,361.866 699.921,362.541 699.921,363.372L699.921,366.557C699.921,367.388 699.202,368.063 698.317,368.063C697.432,368.063 696.714,367.388 696.714,366.557L696.714,363.372ZM696.714,376.111C696.714,375.28 697.432,374.605 698.317,374.605C699.202,374.605 699.921,375.28 699.921,376.111L699.921,379.296C699.921,380.128 699.202,380.802 698.317,380.802C697.432,380.802 696.714,380.128 696.714,379.296L696.714,376.111ZM696.714,388.85C696.714,388.019 697.432,387.344 698.317,387.344C699.202,387.344 699.921,388.019 699.921,388.85L699.921,390.443C699.921,391.076 699.888,391.703 699.824,392.32C699.738,393.148 698.953,393.754 698.072,393.673C697.192,393.593 696.546,392.855 696.632,392.028C696.686,391.507 696.714,390.978 696.714,390.443L696.714,388.85ZM692.809,400.69C693.371,400.047 694.382,399.954 695.066,400.482C695.749,401.01 695.848,401.96 695.286,402.602C694.438,403.572 693.491,404.462 692.459,405.258C691.776,405.786 690.764,405.693 690.202,405.051C689.641,404.409 689.74,403.459 690.423,402.931C691.294,402.259 692.093,401.508 692.809,400.69ZM681.203,406.523C682.084,406.442 682.869,407.048 682.955,407.876C683.04,408.703 682.395,409.44 681.514,409.521C680.857,409.581 680.19,409.612 679.516,409.612L677.874,409.612C676.989,409.612 676.271,408.937 676.271,408.106C676.271,407.274 676.989,406.6 677.874,406.6L679.516,406.6C680.085,406.6 680.648,406.574 681.203,406.523ZM668.024,406.6C668.909,406.6 669.628,407.274 669.628,408.106C669.628,408.937 668.909,409.612 668.024,409.612L664.741,409.612C663.856,409.612 663.138,408.937 663.138,408.106C663.138,407.274 663.856,406.6 664.741,406.6L668.024,406.6ZM654.892,406.6C655.777,406.6 656.495,407.274 656.495,408.106C656.495,408.937 655.777,409.612 654.892,409.612L651.609,409.612C650.724,409.612 650.006,408.937 650.006,408.106C650.006,407.274 650.724,406.6 651.609,406.6L654.892,406.6ZM641.759,406.6C642.644,406.6 643.362,407.274 643.362,408.106C643.362,408.937 642.644,409.612 641.759,409.612L638.475,409.612C637.59,409.612 636.872,408.937 636.872,408.106C636.872,407.274 637.59,406.6 638.475,406.6L641.759,406.6ZM628.626,406.6C629.511,406.6 630.229,407.274 630.229,408.106C630.229,408.937 629.511,409.612 628.626,409.612L625.343,409.612C624.458,409.612 623.74,408.937 623.74,408.106C623.74,407.274 624.458,406.6 625.343,406.6L628.626,406.6ZM615.493,406.6C616.378,406.6 617.096,407.274 617.096,408.106C617.096,408.937 616.378,409.612 615.493,409.612L612.21,409.612C611.325,409.612 610.606,408.937 610.606,408.106C610.606,407.274 611.325,406.6 612.21,406.6L615.493,406.6ZM602.361,406.6C603.246,406.6 603.964,407.274 603.964,408.106C603.964,408.937 603.246,409.612 602.361,409.612L599.078,409.612C598.193,409.612 597.474,408.937 597.474,408.106C597.474,407.274 598.193,406.6 599.078,406.6L602.361,406.6ZM589.227,406.6C590.112,406.6 590.83,407.274 590.83,408.106C590.83,408.937 590.112,409.612 589.227,409.612L585.944,409.612C585.059,409.612 584.34,408.937 584.34,408.106C584.34,407.274 585.059,406.6 585.944,406.6L589.227,406.6ZM576.094,406.6C576.979,406.6 577.698,407.274 577.698,408.106C577.698,408.937 576.979,409.612 576.094,409.612L572.811,409.612C571.926,409.612 571.208,408.937 571.208,408.106C571.208,407.274 571.926,406.6 572.811,406.6L576.094,406.6ZM562.962,406.6C563.847,406.6 564.565,407.274 564.565,408.106C564.565,408.937 563.847,409.612 562.962,409.612L559.679,409.612C558.794,409.612 558.076,408.937 558.076,408.106C558.076,407.274 558.794,406.6 559.679,406.6L562.962,406.6ZM549.828,406.6C550.713,406.6 551.432,407.274 551.432,408.106C551.432,408.937 550.713,409.612 549.828,409.612L546.545,409.612C545.66,409.612 544.942,408.937 544.942,408.106C544.942,407.274 545.66,406.6 546.545,406.6L549.828,406.6ZM536.696,406.6C537.581,406.6 538.299,407.274 538.299,408.106C538.299,408.937 537.581,409.612 536.696,409.612L533.413,409.612C532.528,409.612 531.809,408.937 531.809,408.106C531.809,407.274 532.528,406.6 533.413,406.6L536.696,406.6ZM523.563,406.6C524.448,406.6 525.166,407.274 525.166,408.106C525.166,408.937 524.448,409.612 523.563,409.612L520.28,409.612C519.395,409.612 518.677,408.937 518.677,408.106C518.677,407.274 519.395,406.6 520.28,406.6L523.563,406.6ZM510.431,406.6C511.316,406.6 512.034,407.274 512.034,408.106C512.034,408.937 511.316,409.612 510.431,409.612L507.148,409.612C506.263,409.612 505.544,408.937 505.544,408.106C505.544,407.274 506.263,406.6 507.148,406.6L510.431,406.6ZM497.298,406.6C498.183,406.6 498.901,407.274 498.901,408.106C498.901,408.937 498.183,409.612 497.298,409.612L494.015,409.612C493.13,409.612 492.411,408.937 492.411,408.106C492.411,407.274 493.13,406.6 494.015,406.6L497.298,406.6ZM484.164,406.6C485.049,406.6 485.768,407.274 485.768,408.106C485.768,408.937 485.049,409.612 484.164,409.612L480.881,409.612C479.996,409.612 479.278,408.937 479.278,408.106C479.278,407.274 479.996,406.6 480.881,406.6L484.164,406.6ZM471.032,406.6C471.917,406.6 472.635,407.274 472.635,408.106C472.635,408.937 471.917,409.612 471.032,409.612L467.749,409.612C466.864,409.612 466.145,408.937 466.145,408.106C466.145,407.274 466.864,406.6 467.749,406.6L471.032,406.6ZM457.899,406.6C458.784,406.6 459.503,407.274 459.503,408.106C459.503,408.937 458.784,409.612 457.899,409.612L454.616,409.612C453.731,409.612 453.013,408.937 453.013,408.106C453.013,407.274 453.731,406.6 454.616,406.6L457.899,406.6ZM444.766,406.6C445.651,406.6 446.37,407.274 446.37,408.106C446.37,408.937 445.651,409.612 444.766,409.612L441.483,409.612C440.598,409.612 439.88,408.937 439.88,408.106C439.88,407.274 440.598,406.6 441.483,406.6L444.766,406.6ZM431.633,406.6C432.518,406.6 433.236,407.274 433.236,408.106C433.236,408.937 432.518,409.612 431.633,409.612L428.35,409.612C427.465,409.612 426.746,408.937 426.746,408.106C426.746,407.274 427.465,406.6 428.35,406.6L431.633,406.6ZM418.501,406.6C419.386,406.6 420.104,407.274 420.104,408.106C420.104,408.937 419.386,409.612 418.501,409.612L415.218,409.612C414.333,409.612 413.614,408.937 413.614,408.106C413.614,407.274 414.333,406.6 415.218,406.6L418.501,406.6ZM405.367,406.6C406.252,406.6 406.97,407.274 406.97,408.106C406.97,408.937 406.252,409.612 405.367,409.612L402.084,409.612C401.199,409.612 400.481,408.937 400.481,408.106C400.481,407.274 401.199,406.6 402.084,406.6L405.367,406.6ZM392.235,406.6C393.12,406.6 393.839,407.274 393.839,408.106C393.839,408.937 393.12,409.612 392.235,409.612L388.952,409.612C388.067,409.612 387.349,408.937 387.349,408.106C387.349,407.274 388.067,406.6 388.952,406.6L392.235,406.6ZM379.101,406.6C379.986,406.6 380.705,407.274 380.705,408.106C380.705,408.937 379.986,409.612 379.101,409.612L375.818,409.612C374.933,409.612 374.215,408.937 374.215,408.106C374.215,407.274 374.933,406.6 375.818,406.6L379.101,406.6ZM365.968,406.6C366.853,406.6 367.572,407.274 367.572,408.106C367.572,408.937 366.853,409.612 365.968,409.612L362.685,409.612C361.8,409.612 361.081,408.937 361.081,408.106C361.081,407.274 361.8,406.6 362.685,406.6L365.968,406.6ZM352.836,406.6C353.721,406.6 354.439,407.274 354.439,408.106C354.439,408.937 353.721,409.612 352.836,409.612L349.552,409.612C348.667,409.612 347.949,408.937 347.949,408.106C347.949,407.274 348.667,406.6 349.552,406.6L352.836,406.6ZM339.703,406.6C340.588,406.6 341.306,407.274 341.306,408.106C341.306,408.937 340.588,409.612 339.703,409.612L336.42,409.612C335.535,409.612 334.817,408.937 334.817,408.106C334.817,407.274 335.535,406.6 336.42,406.6L339.703,406.6ZM326.571,406.6C327.456,406.6 328.174,407.274 328.174,408.106C328.174,408.937 327.456,409.612 326.571,409.612L323.288,409.612C322.403,409.612 321.684,408.937 321.684,408.106C321.684,407.274 322.403,406.6 323.288,406.6L326.571,406.6ZM313.437,406.6C314.322,406.6 315.04,407.274 315.04,408.106C315.04,408.937 314.322,409.612 313.437,409.612L310.154,409.612C309.269,409.612 308.55,408.937 308.55,408.106C308.55,407.274 309.269,406.6 310.154,406.6L313.437,406.6ZM300.305,406.6C301.19,406.6 301.908,407.274 301.908,408.106C301.908,408.937 301.19,409.612 300.305,409.612L297.022,409.612C296.137,409.612 295.418,408.937 295.418,408.106C295.418,407.274 296.137,406.6 297.022,406.6L300.305,406.6ZM287.172,406.6C288.057,406.6 288.776,407.274 288.776,408.106C288.776,408.937 288.057,409.612 287.172,409.612L283.889,409.612C283.004,409.612 282.285,408.937 282.285,408.106C282.285,407.274 283.004,406.6 283.889,406.6L287.172,406.6ZM274.039,406.6C274.924,406.6 275.642,407.274 275.642,408.106C275.642,408.937 274.924,409.612 274.039,409.612L270.755,409.612C269.871,409.612 269.152,408.937 269.152,408.106C269.152,407.274 269.871,406.6 270.755,406.6L274.039,406.6ZM260.906,406.6C261.791,406.6 262.509,407.274 262.509,408.106C262.509,408.937 261.791,409.612 260.906,409.612L257.623,409.612C256.738,409.612 256.02,408.937 256.02,408.106C256.02,407.274 256.738,406.6 257.623,406.6L260.906,406.6ZM247.773,406.6C248.657,406.6 249.376,407.274 249.376,408.106C249.376,408.937 248.657,409.612 247.773,409.612L244.489,409.612C243.605,409.612 242.886,408.937 242.886,408.106C242.886,407.274 243.605,406.6 244.489,406.6L247.773,406.6ZM234.64,406.6C235.525,406.6 236.244,407.274 236.244,408.106C236.244,408.937 235.525,409.612 234.64,409.612L231.357,409.612C230.472,409.612 229.754,408.937 229.754,408.106C229.754,407.274 230.472,406.6 231.357,406.6L234.64,406.6ZM221.507,406.6C222.392,406.6 223.111,407.274 223.111,408.106C223.111,408.937 222.392,409.612 221.507,409.612L218.224,409.612C217.339,409.612 216.621,408.937 216.621,408.106C216.621,407.274 217.339,406.6 218.224,406.6L221.507,406.6ZM208.374,406.6C209.259,406.6 209.978,407.274 209.978,408.106C209.978,408.937 209.259,409.612 208.374,409.612L205.091,409.612C204.206,409.612 203.488,408.937 203.488,408.106C203.488,407.274 204.206,406.6 205.091,406.6L208.374,406.6ZM195.242,406.6C196.127,406.6 196.845,407.274 196.845,408.106C196.845,408.937 196.127,409.612 195.242,409.612L191.958,409.612C191.074,409.612 190.355,408.937 190.355,408.106C190.355,407.274 191.074,406.6 191.958,406.6L195.242,406.6ZM182.109,406.6C182.994,406.6 183.712,407.274 183.712,408.106C183.712,408.937 182.994,409.612 182.109,409.612L180.467,409.612C179.793,409.612 179.126,409.581 178.469,409.521C177.588,409.44 176.942,408.703 177.028,407.876C177.114,407.048 177.899,406.442 178.78,406.523C179.335,406.574 179.898,406.6 180.467,406.6L182.109,406.6ZM169.56,402.931C170.243,403.459 170.342,404.409 169.78,405.051C169.219,405.693 168.207,405.786 167.524,405.258C166.492,404.462 165.545,403.572 164.697,402.602C164.135,401.96 164.234,401.01 164.917,400.482C165.601,399.954 166.612,400.047 167.174,400.69C167.89,401.508 168.689,402.259 169.56,402.931ZM163.351,392.028C163.437,392.855 162.791,393.593 161.91,393.673C161.03,393.754 160.245,393.148 160.159,392.32C160.095,391.703 160.062,391.076 160.062,390.443L160.062,388.85C160.062,388.019 160.781,387.344 161.666,387.344C162.55,387.344 163.269,388.019 163.269,388.85L163.269,390.443C163.269,390.978 163.297,391.507 163.351,392.028ZM163.269,379.296C163.269,380.127 162.55,380.802 161.666,380.802C160.781,380.802 160.062,380.127 160.062,379.296L160.062,376.111C160.062,375.28 160.781,374.605 161.666,374.605C162.55,374.605 163.269,375.28 163.269,376.111L163.269,379.296ZM163.269,366.557C163.269,367.388 162.55,368.063 161.666,368.063C160.781,368.063 160.062,367.388 160.062,366.557L160.062,363.372C160.062,362.541 160.781,361.866 161.666,361.866C162.55,361.866 163.269,362.541 163.269,363.372L163.269,366.557ZM163.269,353.818C163.269,354.649 162.55,355.324 161.666,355.324C160.781,355.324 160.062,354.649 160.062,353.818L160.062,350.633C160.062,349.802 160.781,349.127 161.666,349.127C162.55,349.127 163.269,349.802 163.269,350.633L163.269,353.818ZM163.269,341.079C163.269,341.91 162.55,342.585 161.666,342.585C160.781,342.585 160.062,341.91 160.062,341.079L160.062,337.894C160.062,337.063 160.781,336.388 161.666,336.388C162.55,336.388 163.269,337.063 163.269,337.894L163.269,341.079ZM163.269,328.34C163.269,329.171 162.55,329.846 161.666,329.846C160.781,329.846 160.062,329.171 160.062,328.34L160.062,325.155C160.062,324.324 160.781,323.649 161.666,323.649C162.55,323.649 163.269,324.324 163.269,325.155L163.269,328.34ZM163.269,315.601C163.269,316.432 162.55,317.107 161.666,317.107C160.781,317.107 160.062,316.432 160.062,315.601L160.062,312.416C160.062,311.585 160.781,310.91 161.666,310.91C162.55,310.91 163.269,311.585 163.269,312.416L163.269,315.601ZM163.269,302.862C163.269,303.693 162.55,304.368 161.666,304.368C160.781,304.368 160.062,303.693 160.062,302.862L160.062,299.677C160.062,298.846 160.781,298.171 161.666,298.171C162.55,298.171 163.269,298.846 163.269,299.677L163.269,302.862ZM163.269,290.123C163.269,290.954 162.55,291.629 161.666,291.629C160.781,291.629 160.062,290.954 160.062,290.123L160.062,286.938C160.062,286.107 160.781,285.432 161.666,285.432C162.55,285.432 163.269,286.107 163.269,286.938L163.269,290.123ZM163.269,277.383C163.269,278.215 162.55,278.89 161.666,278.89C160.781,278.89 160.062,278.215 160.062,277.383L160.062,274.199C160.062,273.367 160.781,272.692 161.666,272.692C162.55,272.692 163.269,273.367 163.269,274.199L163.269,277.383ZM163.269,264.644C163.269,265.476 162.55,266.151 161.666,266.151C160.781,266.151 160.062,265.476 160.062,264.644L160.062,263.052C160.062,262.419 160.095,261.792 160.159,261.175C160.245,260.347 161.03,259.741 161.91,259.822C162.791,259.902 163.437,260.639 163.351,261.467C163.297,261.988 163.269,262.517 163.269,263.052L163.269,264.644ZM167.174,252.805C166.612,253.447 165.601,253.54 164.917,253.013C164.234,252.485 164.135,251.535 164.697,250.893C165.545,249.923 166.492,249.033 167.524,248.237C168.207,247.709 169.219,247.802 169.78,248.444C170.342,249.086 170.243,250.036 169.56,250.564C168.689,251.236 167.89,251.987 167.174,252.805ZM178.78,246.972C177.899,247.053 177.114,246.447 177.028,245.619C176.942,244.792 177.588,244.055 178.469,243.974C179.126,243.914 179.793,243.883 180.467,243.883L182.109,243.883C182.994,243.883 183.712,244.558 183.712,245.389C183.712,246.22 182.994,246.895 182.109,246.895L180.467,246.895C179.898,246.895 179.335,246.921 178.78,246.972ZM191.959,246.895C191.074,246.895 190.355,246.22 190.355,245.389C190.355,244.558 191.074,243.883 191.959,243.883L195.242,243.883C196.127,243.883 196.845,244.558 196.845,245.389C196.845,246.22 196.127,246.895 195.242,246.895L191.959,246.895ZM205.091,246.895C204.206,246.895 203.488,246.22 203.488,245.389C203.488,244.558 204.206,243.883 205.091,243.883L208.374,243.883C209.259,243.883 209.977,244.558 209.977,245.389C209.977,246.22 209.259,246.895 208.374,246.895L205.091,246.895ZM218.224,246.895C217.339,246.895 216.621,246.22 216.621,245.389C216.621,244.558 217.339,243.883 218.224,243.883L221.508,243.883C222.393,243.883 223.111,244.558 223.111,245.389C223.111,246.22 222.393,246.895 221.508,246.895L218.224,246.895ZM231.357,246.895C230.472,246.895 229.754,246.22 229.754,245.389C229.754,244.558 230.472,243.883 231.357,243.883L234.64,243.883C235.525,243.883 236.243,244.558 236.243,245.389C236.243,246.22 235.525,246.895 234.64,246.895L231.357,246.895ZM244.49,246.895C243.605,246.895 242.887,246.22 242.887,245.389C242.887,244.558 243.605,243.883 244.49,243.883L247.773,243.883C248.658,243.883 249.377,244.558 249.377,245.389C249.377,246.22 248.658,246.895 247.773,246.895L244.49,246.895ZM257.622,246.895C256.737,246.895 256.019,246.22 256.019,245.389C256.019,244.558 256.737,243.883 257.622,243.883L260.905,243.883C261.79,243.883 262.509,244.558 262.509,245.389C262.509,246.22 261.79,246.895 260.905,246.895L257.622,246.895ZM270.756,246.895C269.871,246.895 269.152,246.22 269.152,245.389C269.152,244.558 269.871,243.883 270.756,243.883L274.039,243.883C274.924,243.883 275.643,244.558 275.643,245.389C275.643,246.22 274.924,246.895 274.039,246.895L270.756,246.895ZM283.889,246.895C283.004,246.895 282.285,246.22 282.285,245.389C282.285,244.558 283.004,243.883 283.889,243.883L287.172,243.883C288.056,243.883 288.775,244.558 288.775,245.389C288.775,246.22 288.056,246.895 287.172,246.895L283.889,246.895ZM297.021,246.895C296.136,246.895 295.418,246.22 295.418,245.389C295.418,244.558 296.136,243.883 297.021,243.883L300.304,243.883C301.189,243.883 301.907,244.558 301.907,245.389C301.907,246.22 301.189,246.895 300.304,246.895L297.021,246.895ZM310.155,246.895C309.27,246.895 308.551,246.22 308.551,245.389C308.551,244.558 309.27,243.883 310.155,243.883L313.438,243.883C314.323,243.883 315.041,244.558 315.041,245.389C315.041,246.22 314.323,246.895 313.438,246.895L310.155,246.895ZM323.287,246.895C322.402,246.895 321.684,246.22 321.684,245.389C321.684,244.558 322.402,243.883 323.287,243.883L326.57,243.883C327.455,243.883 328.173,244.558 328.173,245.389C328.173,246.22 327.455,246.895 326.57,246.895L323.287,246.895ZM336.42,246.895C335.535,246.895 334.817,246.22 334.817,245.389C334.817,244.558 335.535,243.883 336.42,243.883L339.703,243.883C340.588,243.883 341.306,244.558 341.306,245.389C341.306,246.22 340.588,246.895 339.703,246.895L336.42,246.895ZM349.552,246.895C348.667,246.895 347.949,246.22 347.949,245.389C347.949,244.558 348.667,243.883 349.552,243.883L352.835,243.883C353.72,243.883 354.439,244.558 354.439,245.389C354.439,246.22 353.72,246.895 352.835,246.895L349.552,246.895ZM362.685,246.895C361.8,246.895 361.082,246.22 361.082,245.389C361.082,244.558 361.8,243.883 362.685,243.883L365.968,243.883C366.853,243.883 367.572,244.558 367.572,245.389C367.572,246.22 366.853,246.895 365.968,246.895L362.685,246.895ZM375.818,246.895C374.934,246.895 374.215,246.22 374.215,245.389C374.215,244.558 374.934,243.883 375.818,243.883L379.102,243.883C379.986,243.883 380.705,244.558 380.705,245.389C380.705,246.22 379.986,246.895 379.102,246.895L375.818,246.895ZM388.951,246.895C388.066,246.895 387.348,246.22 387.348,245.389C387.348,244.558 388.066,243.883 388.951,243.883L392.234,243.883C393.119,243.883 393.838,244.558 393.838,245.389C393.838,246.22 393.119,246.895 392.234,246.895L388.951,246.895ZM402.084,246.895C401.199,246.895 400.48,246.22 400.48,245.389C400.48,244.558 401.199,243.883 402.084,243.883L405.367,243.883C406.252,243.883 406.97,244.558 406.97,245.389C406.97,246.22 406.252,246.895 405.367,246.895L402.084,246.895ZM415.217,246.895C414.332,246.895 413.613,246.22 413.613,245.389C413.613,244.558 414.332,243.883 415.217,243.883L418.5,243.883C419.384,243.883 420.103,244.558 420.103,245.389C420.103,246.22 419.384,246.895 418.5,246.895L415.217,246.895ZM428.35,246.895C427.465,246.895 426.747,246.22 426.747,245.389C426.747,244.558 427.465,243.883 428.35,243.883L431.633,243.883C432.518,243.883 433.236,244.558 433.236,245.389C433.236,246.22 432.518,246.895 431.633,246.895L428.35,246.895ZM441.482,246.895C440.597,246.895 439.879,246.22 439.879,245.389C439.879,244.558 440.597,243.883 441.482,243.883L444.765,243.883C445.65,243.883 446.369,244.558 446.369,245.389C446.369,246.22 445.65,246.895 444.765,246.895L441.482,246.895ZM454.616,246.895C453.731,246.895 453.012,246.22 453.012,245.389C453.012,244.558 453.731,243.883 454.616,243.883L457.899,243.883C458.784,243.883 459.502,244.558 459.502,245.389C459.502,246.22 458.784,246.895 457.899,246.895L454.616,246.895ZM467.748,246.895C466.863,246.895 466.144,246.22 466.144,245.389C466.144,244.558 466.863,243.883 467.748,243.883L471.031,243.883C471.916,243.883 472.634,244.558 472.634,245.389C472.634,246.22 471.916,246.895 471.031,246.895L467.748,246.895ZM480.882,246.895C479.997,246.895 479.278,246.22 479.278,245.389C479.278,244.558 479.997,243.883 480.882,243.883L484.165,243.883C485.05,243.883 485.768,244.558 485.768,245.389C485.768,246.22 485.05,246.895 484.165,246.895L480.882,246.895ZM494.015,246.895C493.13,246.895 492.411,246.22 492.411,245.389C492.411,244.558 493.13,243.883 494.015,243.883L497.298,243.883C498.183,243.883 498.902,244.558 498.902,245.389C498.902,246.22 498.183,246.895 497.298,246.895L494.015,246.895ZM507.147,246.895C506.262,246.895 505.544,246.22 505.544,245.389C505.544,244.558 506.262,243.883 507.147,243.883L510.431,243.883C511.315,243.883 512.034,244.558 512.034,245.389C512.034,246.22 511.315,246.895 510.431,246.895L507.147,246.895ZM520.28,246.895C519.395,246.895 518.676,246.22 518.676,245.389C518.676,244.558 519.395,243.883 520.28,243.883L523.563,243.883C524.448,243.883 525.166,244.558 525.166,245.389C525.166,246.22 524.448,246.895 523.563,246.895L520.28,246.895ZM533.412,246.895C532.527,246.895 531.809,246.22 531.809,245.389C531.809,244.558 532.527,243.883 533.412,243.883L536.695,243.883C537.58,243.883 538.298,244.558 538.298,245.389C538.298,246.22 537.58,246.895 536.695,246.895L533.412,246.895ZM546.546,246.895C545.661,246.895 544.943,246.22 544.943,245.389C544.943,244.558 545.661,243.883 546.546,243.883L549.829,243.883C550.714,243.883 551.433,244.558 551.433,245.389C551.433,246.22 550.714,246.895 549.829,246.895L546.546,246.895ZM559.678,246.895C558.793,246.895 558.075,246.22 558.075,245.389C558.075,244.558 558.793,243.883 559.678,243.883L562.961,243.883C563.846,243.883 564.565,244.558 564.565,245.389C564.565,246.22 563.846,246.895 562.961,246.895L559.678,246.895ZM572.811,246.895C571.926,246.895 571.207,246.22 571.207,245.389C571.207,244.558 571.926,243.883 572.811,243.883L576.094,243.883C576.979,243.883 577.697,244.558 577.697,245.389C577.697,246.22 576.979,246.895 576.094,246.895L572.811,246.895ZM585.944,246.895C585.059,246.895 584.341,246.22 584.341,245.389C584.341,244.558 585.059,243.883 585.944,243.883L589.228,243.883C590.112,243.883 590.831,244.558 590.831,245.389C590.831,246.22 590.112,246.895 589.228,246.895L585.944,246.895ZM599.077,246.895C598.192,246.895 597.473,246.22 597.473,245.389C597.473,244.558 598.192,243.883 599.077,243.883L602.36,243.883C603.245,243.883 603.963,244.558 603.963,245.389C603.963,246.22 603.245,246.895 602.36,246.895L599.077,246.895ZM612.21,246.895C611.325,246.895 610.607,246.22 610.607,245.389C610.607,244.558 611.325,243.883 612.21,243.883L615.493,243.883C616.378,243.883 617.097,244.558 617.097,245.389C617.097,246.22 616.378,246.895 615.493,246.895L612.21,246.895ZM625.343,246.895C624.458,246.895 623.739,246.22 623.739,245.389C623.739,244.558 624.458,243.883 625.343,243.883L628.626,243.883C629.511,243.883 630.229,244.558 630.229,245.389C630.229,246.22 629.511,246.895 628.626,246.895L625.343,246.895ZM638.476,246.895C637.591,246.895 636.872,246.22 636.872,245.389C636.872,244.558 637.591,243.883 638.476,243.883L641.759,243.883C642.644,243.883 643.362,244.558 643.362,245.389C643.362,246.22 642.644,246.895 641.759,246.895L638.476,246.895ZM651.609,246.895C650.724,246.895 650.005,246.22 650.005,245.389C650.005,244.558 650.724,243.883 651.609,243.883L654.892,243.883C655.777,243.883 656.495,244.558 656.495,245.389C656.495,246.22 655.777,246.895 654.892,246.895L651.609,246.895ZM664.741,246.895C663.856,246.895 663.138,246.22 663.138,245.389C663.138,244.558 663.856,243.883 664.741,243.883L668.024,243.883C668.909,243.883 669.628,244.558 669.628,245.389C669.628,246.22 668.909,246.895 668.024,246.895L664.741,246.895ZM677.874,246.895C676.989,246.895 676.271,246.22 676.271,245.389C676.271,244.558 676.989,243.883 677.874,243.883L679.516,243.883C680.19,243.883 680.857,243.914 681.514,243.974C682.395,244.055 683.04,244.792 682.955,245.619C682.869,246.447 682.084,247.053 681.203,246.972C680.648,246.921 680.085,246.895 679.516,246.895L677.874,246.895ZM690.423,250.564C689.74,250.036 689.641,249.086 690.202,248.444C690.764,247.802 691.776,247.709 692.459,248.237C693.491,249.033 694.438,249.923 695.286,250.893C695.848,251.535 695.749,252.485 695.066,253.013C694.382,253.54 693.371,253.447 692.809,252.805C692.093,251.987 691.294,251.236 690.423,250.564Z" style="fill:rgb(0,211,255);"/>
        </g>
        <g id="paragraph_area" transform="matrix(0.851621,0,0,0.692445,-134.452,-2.12318)">
            <path d="M696.449,261.027C696.324,259.841 697.004,258.753 697.968,258.598C698.932,258.444 699.817,259.28 699.942,260.466C700.032,261.312 700.079,262.176 700.079,263.052L700.079,265.327C700.079,266.522 699.29,267.493 698.317,267.493C697.345,267.493 696.556,266.522 696.556,265.327L696.556,263.052C696.556,262.366 696.52,261.69 696.449,261.027ZM696.556,269.877C696.556,268.681 697.345,267.71 698.317,267.71C699.29,267.71 700.079,268.681 700.079,269.877L700.079,274.426C700.079,275.622 699.29,276.593 698.317,276.593C697.345,276.593 696.556,275.622 696.556,274.426L696.556,269.877ZM696.556,278.976C696.556,277.78 697.345,276.81 698.317,276.81C699.29,276.81 700.079,277.78 700.079,278.976L700.079,283.526C700.079,284.721 699.29,285.692 698.317,285.692C697.345,285.692 696.556,284.721 696.556,283.526L696.556,278.976ZM696.556,288.075C696.556,286.88 697.345,285.909 698.317,285.909C699.29,285.909 700.079,286.88 700.079,288.075L700.079,292.625C700.079,293.821 699.29,294.791 698.317,294.791C697.345,294.791 696.556,293.821 696.556,292.625L696.556,288.075ZM696.556,297.175C696.556,295.979 697.345,295.008 698.317,295.008C699.29,295.008 700.079,295.979 700.079,297.175L700.079,301.724C700.079,302.92 699.29,303.891 698.317,303.891C697.345,303.891 696.556,302.92 696.556,301.724L696.556,297.175ZM696.556,306.274C696.556,305.078 697.345,304.108 698.317,304.108C699.29,304.108 700.079,305.078 700.079,306.274L700.079,310.824C700.079,312.019 699.29,312.99 698.317,312.99C697.345,312.99 696.556,312.019 696.556,310.824L696.556,306.274ZM696.556,315.373C696.556,314.178 697.345,313.207 698.317,313.207C699.29,313.207 700.079,314.178 700.079,315.373L700.079,319.923C700.079,321.118 699.29,322.089 698.317,322.089C697.345,322.089 696.556,321.118 696.556,319.923L696.556,315.373ZM696.556,324.473C696.556,323.277 697.345,322.306 698.317,322.306C699.29,322.306 700.079,323.277 700.079,324.473L700.079,329.022C700.079,330.218 699.29,331.189 698.317,331.189C697.345,331.189 696.556,330.218 696.556,329.022L696.556,324.473ZM696.556,333.572C696.556,332.376 697.345,331.406 698.317,331.406C699.29,331.406 700.079,332.376 700.079,333.572L700.079,338.122C700.079,339.317 699.29,340.288 698.317,340.288C697.345,340.288 696.556,339.317 696.556,338.122L696.556,333.572ZM696.556,342.671C696.556,341.476 697.345,340.505 698.317,340.505C699.29,340.505 700.079,341.476 700.079,342.671L700.079,347.221C700.079,348.416 699.29,349.387 698.317,349.387C697.345,349.387 696.556,348.416 696.556,347.221L696.556,342.671ZM696.556,351.771C696.556,350.575 697.345,349.604 698.317,349.604C699.29,349.604 700.079,350.575 700.079,351.771L700.079,356.32C700.079,357.516 699.29,358.487 698.317,358.487C697.345,358.487 696.556,357.516 696.556,356.32L696.556,351.771ZM696.556,360.87C696.556,359.674 697.345,358.704 698.317,358.704C699.29,358.704 700.079,359.674 700.079,360.87L700.079,365.419C700.079,366.615 699.29,367.586 698.317,367.586C697.345,367.586 696.556,366.615 696.556,365.419L696.556,360.87ZM696.556,369.969C696.556,368.774 697.345,367.803 698.317,367.803C699.29,367.803 700.079,368.774 700.079,369.969L700.079,374.519C700.079,375.715 699.29,376.685 698.317,376.685C697.345,376.685 696.556,375.715 696.556,374.519L696.556,369.969ZM696.556,379.069C696.556,377.873 697.345,376.902 698.317,376.902C699.29,376.902 700.079,377.873 700.079,379.069L700.079,383.618C700.079,384.814 699.29,385.785 698.317,385.785C697.345,385.785 696.556,384.814 696.556,383.618L696.556,379.069ZM696.556,388.168C696.556,386.972 697.345,386.002 698.317,386.002C699.29,386.002 700.079,386.972 700.079,388.168L700.079,390.443C700.079,391.319 700.032,392.183 699.942,393.029C699.817,394.215 698.932,395.051 697.968,394.897C697.004,394.742 696.324,393.653 696.449,392.468C696.52,391.805 696.556,391.129 696.556,390.443L696.556,388.168ZM695.6,396.372C695.972,395.268 697.004,394.744 697.902,395.202C698.8,395.66 699.226,396.929 698.853,398.033C698.309,399.645 697.598,401.149 696.745,402.514C696.152,403.462 695.046,403.64 694.275,402.911C693.504,402.182 693.359,400.821 693.952,399.873C694.618,398.807 695.175,397.631 695.6,396.372ZM691.624,402.737C692.394,402.008 693.501,402.186 694.094,403.134C694.686,404.082 694.541,405.443 693.771,406.172C692.661,407.221 691.438,408.096 690.127,408.765C689.23,409.223 688.198,408.699 687.825,407.595C687.453,406.49 687.879,405.222 688.777,404.763C689.801,404.241 690.757,403.556 691.624,402.737ZM685.602,405.808C686.566,405.654 687.451,406.49 687.577,407.676C687.703,408.861 687.023,409.95 686.059,410.104C685.37,410.215 684.668,410.272 683.956,410.272L682.192,410.272C681.22,410.272 680.431,409.301 680.431,408.106C680.431,406.91 681.22,405.94 682.192,405.94L683.956,405.94C684.514,405.94 685.063,405.895 685.602,405.808ZM678.665,405.94C679.637,405.94 680.426,406.91 680.426,408.106C680.426,409.301 679.637,410.272 678.665,410.272L675.138,410.272C674.165,410.272 673.376,409.301 673.376,408.106C673.376,406.91 674.165,405.94 675.138,405.94L678.665,405.94ZM671.611,405.94C672.583,405.94 673.372,406.91 673.372,408.106C673.372,409.301 672.583,410.272 671.611,410.272L668.083,410.272C667.111,410.272 666.322,409.301 666.322,408.106C666.322,406.91 667.111,405.94 668.083,405.94L671.611,405.94ZM664.556,405.94C665.528,405.94 666.317,406.91 666.317,408.106C666.317,409.301 665.528,410.272 664.556,410.272L661.029,410.272C660.057,410.272 659.267,409.301 659.267,408.106C659.267,406.91 660.057,405.94 661.029,405.94L664.556,405.94ZM657.501,405.94C658.473,405.94 659.262,406.91 659.262,408.106C659.262,409.301 658.473,410.272 657.501,410.272L653.973,410.272C653.001,410.272 652.212,409.301 652.212,408.106C652.212,406.91 653.001,405.94 653.973,405.94L657.501,405.94ZM650.447,405.94C651.419,405.94 652.208,406.91 652.208,408.106C652.208,409.301 651.419,410.272 650.447,410.272L646.92,410.272C645.948,410.272 645.158,409.301 645.158,408.106C645.158,406.91 645.948,405.94 646.92,405.94L650.447,405.94ZM643.392,405.94C644.364,405.94 645.154,406.91 645.154,408.106C645.154,409.301 644.364,410.272 643.392,410.272L639.865,410.272C638.893,410.272 638.104,409.301 638.104,408.106C638.104,406.91 638.893,405.94 639.865,405.94L643.392,405.94ZM636.337,405.94C637.31,405.94 638.099,406.91 638.099,408.106C638.099,409.301 637.31,410.272 636.337,410.272L632.81,410.272C631.838,410.272 631.049,409.301 631.049,408.106C631.049,406.91 631.838,405.94 632.81,405.94L636.337,405.94ZM629.283,405.94C630.255,405.94 631.044,406.91 631.044,408.106C631.044,409.301 630.255,410.272 629.283,410.272L625.755,410.272C624.783,410.272 623.994,409.301 623.994,408.106C623.994,406.91 624.783,405.94 625.755,405.94L629.283,405.94ZM622.229,405.94C623.201,405.94 623.99,406.91 623.99,408.106C623.99,409.301 623.201,410.272 622.229,410.272L618.702,410.272C617.73,410.272 616.94,409.301 616.94,408.106C616.94,406.91 617.73,405.94 618.702,405.94L622.229,405.94ZM615.174,405.94C616.146,405.94 616.936,406.91 616.936,408.106C616.936,409.301 616.146,410.272 615.174,410.272L611.647,410.272C610.675,410.272 609.886,409.301 609.886,408.106C609.886,406.91 610.675,405.94 611.647,405.94L615.174,405.94ZM608.119,405.94C609.091,405.94 609.88,406.91 609.88,408.106C609.88,409.301 609.091,410.272 608.119,410.272L604.592,410.272C603.62,410.272 602.831,409.301 602.831,408.106C602.831,406.91 603.62,405.94 604.592,405.94L608.119,405.94ZM601.065,405.94C602.037,405.94 602.826,406.91 602.826,408.106C602.826,409.301 602.037,410.272 601.065,410.272L597.537,410.272C596.565,410.272 595.776,409.301 595.776,408.106C595.776,406.91 596.565,405.94 597.537,405.94L601.065,405.94ZM594.01,405.94C594.982,405.94 595.772,406.91 595.772,408.106C595.772,409.301 594.982,410.272 594.01,410.272L590.483,410.272C589.511,410.272 588.722,409.301 588.722,408.106C588.722,406.91 589.511,405.94 590.483,405.94L594.01,405.94ZM586.955,405.94C587.927,405.94 588.717,406.91 588.717,408.106C588.717,409.301 587.927,410.272 586.955,410.272L583.428,410.272C582.456,410.272 581.667,409.301 581.667,408.106C581.667,406.91 582.456,405.94 583.428,405.94L586.955,405.94ZM579.901,405.94C580.873,405.94 581.662,406.91 581.662,408.106C581.662,409.301 580.873,410.272 579.901,410.272L576.373,410.272C575.401,410.272 574.612,409.301 574.612,408.106C574.612,406.91 575.401,405.94 576.373,405.94L579.901,405.94ZM572.846,405.94C573.818,405.94 574.608,406.91 574.608,408.106C574.608,409.301 573.818,410.272 572.846,410.272L569.319,410.272C568.346,410.272 567.557,409.301 567.557,408.106C567.557,406.91 568.346,405.94 569.319,405.94L572.846,405.94ZM565.792,405.94C566.764,405.94 567.553,406.91 567.553,408.106C567.553,409.301 566.764,410.272 565.792,410.272L562.265,410.272C561.293,410.272 560.504,409.301 560.504,408.106C560.504,406.91 561.293,405.94 562.265,405.94L565.792,405.94ZM558.737,405.94C559.709,405.94 560.498,406.91 560.498,408.106C560.498,409.301 559.709,410.272 558.737,410.272L555.21,410.272C554.238,410.272 553.448,409.301 553.448,408.106C553.448,406.91 554.238,405.94 555.21,405.94L558.737,405.94ZM551.683,405.94C552.655,405.94 553.444,406.91 553.444,408.106C553.444,409.301 552.655,410.272 551.683,410.272L548.155,410.272C547.183,410.272 546.394,409.301 546.394,408.106C546.394,406.91 547.183,405.94 548.155,405.94L551.683,405.94ZM544.629,405.94C545.601,405.94 546.39,406.91 546.39,408.106C546.39,409.301 545.601,410.272 544.629,410.272L541.101,410.272C540.129,410.272 539.34,409.301 539.34,408.106C539.34,406.91 540.129,405.94 541.101,405.94L544.629,405.94ZM537.574,405.94C538.546,405.94 539.335,406.91 539.335,408.106C539.335,409.301 538.546,410.272 537.574,410.272L534.046,410.272C533.074,410.272 532.285,409.301 532.285,408.106C532.285,406.91 533.074,405.94 534.046,405.94L537.574,405.94ZM530.52,405.94C531.492,405.94 532.281,406.91 532.281,408.106C532.281,409.301 531.492,410.272 530.52,410.272L526.993,410.272C526.02,410.272 525.231,409.301 525.231,408.106C525.231,406.91 526.02,405.94 526.993,405.94L530.52,405.94ZM523.464,405.94C524.436,405.94 525.225,406.91 525.225,408.106C525.225,409.301 524.436,410.272 523.464,410.272L519.936,410.272C518.964,410.272 518.175,409.301 518.175,408.106C518.175,406.91 518.964,405.94 519.936,405.94L523.464,405.94ZM516.41,405.94C517.382,405.94 518.171,406.91 518.171,408.106C518.171,409.301 517.382,410.272 516.41,410.272L512.882,410.272C511.91,410.272 511.121,409.301 511.121,408.106C511.121,406.91 511.91,405.94 512.882,405.94L516.41,405.94ZM509.355,405.94C510.327,405.94 511.116,406.91 511.116,408.106C511.116,409.301 510.327,410.272 509.355,410.272L505.828,410.272C504.856,410.272 504.066,409.301 504.066,408.106C504.066,406.91 504.856,405.94 505.828,405.94L509.355,405.94ZM502.301,405.94C503.274,405.94 504.063,406.91 504.063,408.106C504.063,409.301 503.274,410.272 502.301,410.272L498.774,410.272C497.802,410.272 497.013,409.301 497.013,408.106C497.013,406.91 497.802,405.94 498.774,405.94L502.301,405.94ZM495.246,405.94C496.218,405.94 497.007,406.91 497.007,408.106C497.007,409.301 496.218,410.272 495.246,410.272L491.718,410.272C490.746,410.272 489.957,409.301 489.957,408.106C489.957,406.91 490.746,405.94 491.718,405.94L495.246,405.94ZM488.191,405.94C489.163,405.94 489.952,406.91 489.952,408.106C489.952,409.301 489.163,410.272 488.191,410.272L484.664,410.272C483.692,410.272 482.903,409.301 482.903,408.106C482.903,406.91 483.692,405.94 484.664,405.94L488.191,405.94ZM481.137,405.94C482.109,405.94 482.898,406.91 482.898,408.106C482.898,409.301 482.109,410.272 481.137,410.272L477.61,410.272C476.638,410.272 475.848,409.301 475.848,408.106C475.848,406.91 476.638,405.94 477.61,405.94L481.137,405.94ZM474.083,405.94C475.055,405.94 475.844,406.91 475.844,408.106C475.844,409.301 475.055,410.272 474.083,410.272L470.556,410.272C469.584,410.272 468.795,409.301 468.795,408.106C468.795,406.91 469.584,405.94 470.556,405.94L474.083,405.94ZM467.028,405.94C468,405.94 468.79,406.91 468.79,408.106C468.79,409.301 468,410.272 467.028,410.272L463.501,410.272C462.529,410.272 461.74,409.301 461.74,408.106C461.74,406.91 462.529,405.94 463.501,405.94L467.028,405.94ZM459.973,405.94C460.945,405.94 461.735,406.91 461.735,408.106C461.735,409.301 460.945,410.272 459.973,410.272L456.446,410.272C455.474,410.272 454.685,409.301 454.685,408.106C454.685,406.91 455.474,405.94 456.446,405.94L459.973,405.94ZM452.919,405.94C453.891,405.94 454.68,406.91 454.68,408.106C454.68,409.301 453.891,410.272 452.919,410.272L449.392,410.272C448.42,410.272 447.631,409.301 447.631,408.106C447.631,406.91 448.42,405.94 449.392,405.94L452.919,405.94ZM445.864,405.94C446.836,405.94 447.625,406.91 447.625,408.106C447.625,409.301 446.836,410.272 445.864,410.272L442.336,410.272C441.364,410.272 440.575,409.301 440.575,408.106C440.575,406.91 441.364,405.94 442.336,405.94L445.864,405.94ZM438.81,405.94C439.782,405.94 440.571,406.91 440.571,408.106C440.571,409.301 439.782,410.272 438.81,410.272L435.283,410.272C434.311,410.272 433.521,409.301 433.521,408.106C433.521,406.91 434.311,405.94 435.283,405.94L438.81,405.94ZM431.755,405.94C432.727,405.94 433.516,406.91 433.516,408.106C433.516,409.301 432.727,410.272 431.755,410.272L428.227,410.272C427.255,410.272 426.466,409.301 426.466,408.106C426.466,406.91 427.255,405.94 428.227,405.94L431.755,405.94ZM424.7,405.94C425.672,405.94 426.461,406.91 426.461,408.106C426.461,409.301 425.672,410.272 424.7,410.272L421.173,410.272C420.201,410.272 419.411,409.301 419.411,408.106C419.411,406.91 420.201,405.94 421.173,405.94L424.7,405.94ZM417.646,405.94C418.618,405.94 419.407,406.91 419.407,408.106C419.407,409.301 418.618,410.272 417.646,410.272L414.118,410.272C413.146,410.272 412.357,409.301 412.357,408.106C412.357,406.91 413.146,405.94 414.118,405.94L417.646,405.94ZM410.591,405.94C411.564,405.94 412.353,406.91 412.353,408.106C412.353,409.301 411.564,410.272 410.591,410.272L407.064,410.272C406.092,410.272 405.303,409.301 405.303,408.106C405.303,406.91 406.092,405.94 407.064,405.94L410.591,405.94ZM403.537,405.94C404.509,405.94 405.299,406.91 405.299,408.106C405.299,409.301 404.509,410.272 403.537,410.272L400.01,410.272C399.038,410.272 398.249,409.301 398.249,408.106C398.249,406.91 399.038,405.94 400.01,405.94L403.537,405.94ZM396.483,405.94C397.455,405.94 398.244,406.91 398.244,408.106C398.244,409.301 397.455,410.272 396.483,410.272L392.956,410.272C391.983,410.272 391.194,409.301 391.194,408.106C391.194,406.91 391.983,405.94 392.956,405.94L396.483,405.94ZM389.427,405.94C390.399,405.94 391.189,406.91 391.189,408.106C391.189,409.301 390.399,410.272 389.427,410.272L385.9,410.272C384.928,410.272 384.138,409.301 384.138,408.106C384.138,406.91 384.928,405.94 385.9,405.94L389.427,405.94ZM382.373,405.94C383.345,405.94 384.134,406.91 384.134,408.106C384.134,409.301 383.345,410.272 382.373,410.272L378.846,410.272C377.873,410.272 377.084,409.301 377.084,408.106C377.084,406.91 377.873,405.94 378.846,405.94L382.373,405.94ZM375.318,405.94C376.29,405.94 377.08,406.91 377.08,408.106C377.08,409.301 376.29,410.272 375.318,410.272L371.791,410.272C370.819,410.272 370.03,409.301 370.03,408.106C370.03,406.91 370.819,405.94 371.791,405.94L375.318,405.94ZM368.265,405.94C369.237,405.94 370.026,406.91 370.026,408.106C370.026,409.301 369.237,410.272 368.265,410.272L364.737,410.272C363.765,410.272 362.976,409.301 362.976,408.106C362.976,406.91 363.765,405.94 364.737,405.94L368.265,405.94ZM361.209,405.94C362.181,405.94 362.971,406.91 362.971,408.106C362.971,409.301 362.181,410.272 361.209,410.272L357.682,410.272C356.71,410.272 355.92,409.301 355.92,408.106C355.92,406.91 356.71,405.94 357.682,405.94L361.209,405.94ZM354.155,405.94C355.127,405.94 355.916,406.91 355.916,408.106C355.916,409.301 355.127,410.272 354.155,410.272L350.627,410.272C349.655,410.272 348.866,409.301 348.866,408.106C348.866,406.91 349.655,405.94 350.627,405.94L354.155,405.94ZM347.1,405.94C348.072,405.94 348.861,406.91 348.861,408.106C348.861,409.301 348.072,410.272 347.1,410.272L343.573,410.272C342.601,410.272 341.811,409.301 341.811,408.106C341.811,406.91 342.601,405.94 343.573,405.94L347.1,405.94ZM340.046,405.94C341.018,405.94 341.807,406.91 341.807,408.106C341.807,409.301 341.018,410.272 340.046,410.272L336.519,410.272C335.547,410.272 334.757,409.301 334.757,408.106C334.757,406.91 335.547,405.94 336.519,405.94L340.046,405.94ZM332.992,405.94C333.964,405.94 334.753,406.91 334.753,408.106C334.753,409.301 333.964,410.272 332.992,410.272L329.464,410.272C328.492,410.272 327.703,409.301 327.703,408.106C327.703,406.91 328.492,405.94 329.464,405.94L332.992,405.94ZM325.937,405.94C326.909,405.94 327.698,406.91 327.698,408.106C327.698,409.301 326.909,410.272 325.937,410.272L322.41,410.272C321.437,410.272 320.648,409.301 320.648,408.106C320.648,406.91 321.437,405.94 322.41,405.94L325.937,405.94ZM318.882,405.94C319.854,405.94 320.643,406.91 320.643,408.106C320.643,409.301 319.854,410.272 318.882,410.272L315.355,410.272C314.383,410.272 313.593,409.301 313.593,408.106C313.593,406.91 314.383,405.94 315.355,405.94L318.882,405.94ZM311.828,405.94C312.8,405.94 313.589,406.91 313.589,408.106C313.589,409.301 312.8,410.272 311.828,410.272L308.301,410.272C307.329,410.272 306.539,409.301 306.539,408.106C306.539,406.91 307.329,405.94 308.301,405.94L311.828,405.94ZM304.773,405.94C305.745,405.94 306.534,406.91 306.534,408.106C306.534,409.301 305.745,410.272 304.773,410.272L301.245,410.272C300.273,410.272 299.484,409.301 299.484,408.106C299.484,406.91 300.273,405.94 301.245,405.94L304.773,405.94ZM297.718,405.94C298.69,405.94 299.48,406.91 299.48,408.106C299.48,409.301 298.69,410.272 297.718,410.272L294.191,410.272C293.219,410.272 292.43,409.301 292.43,408.106C292.43,406.91 293.219,405.94 294.191,405.94L297.718,405.94ZM290.664,405.94C291.636,405.94 292.425,406.91 292.425,408.106C292.425,409.301 291.636,410.272 290.664,410.272L287.137,410.272C286.165,410.272 285.375,409.301 285.375,408.106C285.375,406.91 286.165,405.94 287.137,405.94L290.664,405.94ZM283.609,405.94C284.581,405.94 285.371,406.91 285.371,408.106C285.371,409.301 284.581,410.272 283.609,410.272L280.082,410.272C279.11,410.272 278.321,409.301 278.321,408.106C278.321,406.91 279.11,405.94 280.082,405.94L283.609,405.94ZM276.555,405.94C277.527,405.94 278.316,406.91 278.316,408.106C278.316,409.301 277.527,410.272 276.555,410.272L273.027,410.272C272.055,410.272 271.266,409.301 271.266,408.106C271.266,406.91 272.055,405.94 273.027,405.94L276.555,405.94ZM269.5,405.94C270.473,405.94 271.262,406.91 271.262,408.106C271.262,409.301 270.473,410.272 269.5,410.272L265.973,410.272C265.001,410.272 264.212,409.301 264.212,408.106C264.212,406.91 265.001,405.94 265.973,405.94L269.5,405.94ZM262.446,405.94C263.418,405.94 264.207,406.91 264.207,408.106C264.207,409.301 263.418,410.272 262.446,410.272L258.919,410.272C257.946,410.272 257.157,409.301 257.157,408.106C257.157,406.91 257.946,405.94 258.919,405.94L262.446,405.94ZM255.391,405.94C256.363,405.94 257.152,406.91 257.152,408.106C257.152,409.301 256.363,410.272 255.391,410.272L251.864,410.272C250.892,410.272 250.102,409.301 250.102,408.106C250.102,406.91 250.892,405.94 251.864,405.94L255.391,405.94ZM248.337,405.94C249.309,405.94 250.098,406.91 250.098,408.106C250.098,409.301 249.309,410.272 248.337,410.272L244.809,410.272C243.837,410.272 243.048,409.301 243.048,408.106C243.048,406.91 243.837,405.94 244.809,405.94L248.337,405.94ZM241.282,405.94C242.254,405.94 243.044,406.91 243.044,408.106C243.044,409.301 242.254,410.272 241.282,410.272L237.755,410.272C236.783,410.272 235.994,409.301 235.994,408.106C235.994,406.91 236.783,405.94 237.755,405.94L241.282,405.94ZM234.228,405.94C235.2,405.94 235.989,406.91 235.989,408.106C235.989,409.301 235.2,410.272 234.228,410.272L230.7,410.272C229.728,410.272 228.939,409.301 228.939,408.106C228.939,406.91 229.728,405.94 230.7,405.94L234.228,405.94ZM227.173,405.94C228.145,405.94 228.934,406.91 228.934,408.106C228.934,409.301 228.145,410.272 227.173,410.272L223.646,410.272C222.673,410.272 221.884,409.301 221.884,408.106C221.884,406.91 222.673,405.94 223.646,405.94L227.173,405.94ZM220.118,405.94C221.091,405.94 221.88,406.91 221.88,408.106C221.88,409.301 221.091,410.272 220.118,410.272L216.591,410.272C215.619,410.272 214.83,409.301 214.83,408.106C214.83,406.91 215.619,405.94 216.591,405.94L220.118,405.94ZM213.063,405.94C214.036,405.94 214.825,406.91 214.825,408.106C214.825,409.301 214.036,410.272 213.063,410.272L209.536,410.272C208.564,410.272 207.775,409.301 207.775,408.106C207.775,406.91 208.564,405.94 209.536,405.94L213.063,405.94ZM206.009,405.94C206.981,405.94 207.77,406.91 207.77,408.106C207.77,409.301 206.981,410.272 206.009,410.272L202.482,410.272C201.51,410.272 200.72,409.301 200.72,408.106C200.72,406.91 201.51,405.94 202.482,405.94L206.009,405.94ZM198.954,405.94C199.927,405.94 200.716,406.91 200.716,408.106C200.716,409.301 199.927,410.272 198.954,410.272L195.427,410.272C194.455,410.272 193.666,409.301 193.666,408.106C193.666,406.91 194.455,405.94 195.427,405.94L198.954,405.94ZM191.9,405.94C192.872,405.94 193.661,406.91 193.661,408.106C193.661,409.301 192.872,410.272 191.9,410.272L188.373,410.272C187.401,410.272 186.611,409.301 186.611,408.106C186.611,406.91 187.401,405.94 188.373,405.94L191.9,405.94ZM184.845,405.94C185.818,405.94 186.607,406.91 186.607,408.106C186.607,409.301 185.818,410.272 184.845,410.272L181.318,410.272C180.346,410.272 179.557,409.301 179.557,408.106C179.557,406.91 180.346,405.94 181.318,405.94L184.845,405.94ZM177.791,405.94C178.763,405.94 179.552,406.91 179.552,408.106C179.552,409.301 178.763,410.272 177.791,410.272L176.027,410.272C175.314,410.272 174.613,410.215 173.924,410.104C172.96,409.95 172.28,408.861 172.406,407.676C172.532,406.49 173.417,405.654 174.38,405.808C174.919,405.895 175.469,405.94 176.027,405.94L177.791,405.94ZM171.206,404.763C172.104,405.222 172.53,406.49 172.158,407.595C171.785,408.699 170.753,409.223 169.856,408.765C168.545,408.096 167.322,407.221 166.212,406.172C165.442,405.443 165.297,404.082 165.889,403.134C166.482,402.186 167.589,402.008 168.359,402.737C169.226,403.556 170.182,404.241 171.206,404.763ZM166.031,399.873C166.623,400.821 166.479,402.182 165.708,402.911C164.937,403.64 163.831,403.462 163.238,402.514C162.385,401.149 161.674,399.645 161.13,398.033C160.757,396.929 161.183,395.66 162.081,395.202C162.979,394.744 164.011,395.268 164.383,396.372C164.808,397.631 165.365,398.807 166.031,399.873ZM163.534,392.468C163.659,393.653 162.979,394.742 162.015,394.897C161.051,395.051 160.166,394.215 160.041,393.029C159.951,392.183 159.904,391.319 159.904,390.443L159.904,388.168C159.904,386.972 160.693,386.002 161.666,386.002C162.638,386.002 163.427,386.972 163.427,388.168L163.427,390.443C163.427,391.129 163.463,391.805 163.534,392.468ZM163.427,383.618C163.427,384.814 162.638,385.785 161.666,385.785C160.693,385.785 159.904,384.814 159.904,383.618L159.904,379.069C159.904,377.873 160.693,376.902 161.666,376.902C162.638,376.902 163.427,377.873 163.427,379.069L163.427,383.618ZM163.427,374.519C163.427,375.715 162.638,376.685 161.666,376.685C160.693,376.685 159.904,375.715 159.904,374.519L159.904,369.969C159.904,368.774 160.693,367.803 161.666,367.803C162.638,367.803 163.427,368.774 163.427,369.969L163.427,374.519ZM163.427,365.42C163.427,366.615 162.638,367.586 161.666,367.586C160.693,367.586 159.904,366.615 159.904,365.42L159.904,360.87C159.904,359.674 160.693,358.704 161.666,358.704C162.638,358.704 163.427,359.674 163.427,360.87L163.427,365.42ZM163.427,356.32C163.427,357.516 162.638,358.487 161.666,358.487C160.693,358.487 159.904,357.516 159.904,356.32L159.904,351.771C159.904,350.575 160.693,349.604 161.666,349.604C162.638,349.604 163.427,350.575 163.427,351.771L163.427,356.32ZM163.427,347.221C163.427,348.417 162.638,349.387 161.666,349.387C160.693,349.387 159.904,348.417 159.904,347.221L159.904,342.671C159.904,341.476 160.693,340.505 161.666,340.505C162.638,340.505 163.427,341.476 163.427,342.671L163.427,347.221ZM163.427,338.122C163.427,339.317 162.638,340.288 161.666,340.288C160.693,340.288 159.904,339.317 159.904,338.122L159.904,333.572C159.904,332.377 160.693,331.406 161.666,331.406C162.638,331.406 163.427,332.377 163.427,333.572L163.427,338.122ZM163.427,329.022C163.427,330.218 162.638,331.188 161.666,331.188C160.693,331.188 159.904,330.218 159.904,329.022L159.904,324.472C159.904,323.277 160.693,322.306 161.666,322.306C162.638,322.306 163.427,323.277 163.427,324.472L163.427,329.022ZM163.427,319.923C163.427,321.119 162.638,322.089 161.666,322.089C160.693,322.089 159.904,321.119 159.904,319.923L159.904,315.373C159.904,314.178 160.693,313.207 161.666,313.207C162.638,313.207 163.427,314.178 163.427,315.373L163.427,319.923ZM163.427,310.824C163.427,312.019 162.638,312.99 161.666,312.99C160.693,312.99 159.904,312.019 159.904,310.824L159.904,306.274C159.904,305.078 160.693,304.108 161.666,304.108C162.638,304.108 163.427,305.078 163.427,306.274L163.427,310.824ZM163.427,301.724C163.427,302.92 162.638,303.89 161.666,303.89C160.693,303.89 159.904,302.92 159.904,301.724L159.904,297.175C159.904,295.979 160.693,295.008 161.666,295.008C162.638,295.008 163.427,295.979 163.427,297.175L163.427,301.724ZM163.427,292.625C163.427,293.821 162.638,294.791 161.666,294.791C160.693,294.791 159.904,293.821 159.904,292.625L159.904,288.075C159.904,286.88 160.693,285.909 161.666,285.909C162.638,285.909 163.427,286.88 163.427,288.075L163.427,292.625ZM163.427,283.526C163.427,284.721 162.638,285.692 161.666,285.692C160.693,285.692 159.904,284.721 159.904,283.526L159.904,278.976C159.904,277.78 160.693,276.81 161.666,276.81C162.638,276.81 163.427,277.78 163.427,278.976L163.427,283.526ZM163.427,274.426C163.427,275.622 162.638,276.592 161.666,276.592C160.693,276.592 159.904,275.622 159.904,274.426L159.904,269.876C159.904,268.681 160.693,267.71 161.666,267.71C162.638,267.71 163.427,268.681 163.427,269.876L163.427,274.426ZM163.427,265.327C163.427,266.522 162.638,267.493 161.666,267.493C160.693,267.493 159.904,266.522 159.904,265.327L159.904,263.052C159.904,262.176 159.951,261.312 160.041,260.466C160.166,259.28 161.051,258.444 162.015,258.598C162.979,258.753 163.659,259.841 163.534,261.027C163.463,261.69 163.427,262.366 163.427,263.052L163.427,265.327ZM164.383,257.123C164.011,258.227 162.979,258.751 162.081,258.293C161.183,257.835 160.757,256.566 161.13,255.462C161.674,253.85 162.385,252.346 163.238,250.981C163.831,250.033 164.937,249.855 165.708,250.584C166.479,251.313 166.623,252.674 166.031,253.622C165.365,254.688 164.808,255.863 164.383,257.123ZM168.359,250.758C167.589,251.487 166.482,251.309 165.889,250.361C165.297,249.413 165.442,248.052 166.212,247.323C167.322,246.274 168.545,245.399 169.856,244.73C170.753,244.272 171.785,244.796 172.158,245.9C172.53,247.005 172.104,248.273 171.206,248.732C170.182,249.254 169.226,249.938 168.359,250.758ZM174.38,247.686C173.417,247.841 172.532,247.005 172.406,245.819C172.28,244.634 172.96,243.545 173.924,243.391C174.613,243.28 175.314,243.223 176.027,243.223L177.791,243.223C178.763,243.223 179.552,244.193 179.552,245.389C179.552,246.585 178.763,247.555 177.791,247.555L176.027,247.555C175.469,247.555 174.919,247.6 174.38,247.686ZM181.318,247.555C180.346,247.555 179.557,246.585 179.557,245.389C179.557,244.193 180.346,243.223 181.318,243.223L184.845,243.223C185.818,243.223 186.607,244.193 186.607,245.389C186.607,246.585 185.818,247.555 184.845,247.555L181.318,247.555ZM188.372,247.555C187.4,247.555 186.611,246.585 186.611,245.389C186.611,244.193 187.4,243.223 188.372,243.223L191.9,243.223C192.872,243.223 193.661,244.193 193.661,245.389C193.661,246.585 192.872,247.555 191.9,247.555L188.372,247.555ZM195.427,247.555C194.455,247.555 193.666,246.585 193.666,245.389C193.666,244.193 194.455,243.223 195.427,243.223L198.954,243.223C199.926,243.223 200.716,244.193 200.716,245.389C200.716,246.585 199.926,247.555 198.954,247.555L195.427,247.555ZM202.482,247.555C201.51,247.555 200.721,246.585 200.721,245.389C200.721,244.193 201.51,243.223 202.482,243.223L206.01,243.223C206.982,243.223 207.771,244.193 207.771,245.389C207.771,246.585 206.982,247.555 206.01,247.555L202.482,247.555ZM209.536,247.555C208.564,247.555 207.775,246.585 207.775,245.389C207.775,244.193 208.564,243.223 209.536,243.223L213.063,243.223C214.035,243.223 214.824,244.193 214.824,245.389C214.824,246.585 214.035,247.555 213.063,247.555L209.536,247.555ZM216.591,247.555C215.618,247.555 214.829,246.585 214.829,245.389C214.829,244.193 215.618,243.223 216.591,243.223L220.118,243.223C221.09,243.223 221.879,244.193 221.879,245.389C221.879,246.585 221.09,247.555 220.118,247.555L216.591,247.555ZM223.645,247.555C222.673,247.555 221.884,246.585 221.884,245.389C221.884,244.193 222.673,243.223 223.645,243.223L227.173,243.223C228.145,243.223 228.934,244.193 228.934,245.389C228.934,246.585 228.145,247.555 227.173,247.555L223.645,247.555ZM230.7,247.555C229.728,247.555 228.939,246.585 228.939,245.389C228.939,244.193 229.728,243.223 230.7,243.223L234.228,243.223C235.2,243.223 235.989,244.193 235.989,245.389C235.989,246.585 235.2,247.555 234.228,247.555L230.7,247.555ZM237.754,247.555C236.782,247.555 235.993,246.585 235.993,245.389C235.993,244.193 236.782,243.223 237.754,243.223L241.281,243.223C242.253,243.223 243.043,244.193 243.043,245.389C243.043,246.585 242.253,247.555 241.281,247.555L237.754,247.555ZM244.809,247.555C243.837,247.555 243.047,246.585 243.047,245.389C243.047,244.193 243.837,243.223 244.809,243.223L248.336,243.223C249.308,243.223 250.097,244.193 250.097,245.389C250.097,246.585 249.308,247.555 248.336,247.555L244.809,247.555ZM251.864,247.555C250.892,247.555 250.103,246.585 250.103,245.389C250.103,244.193 250.892,243.223 251.864,243.223L255.391,243.223C256.363,243.223 257.152,244.193 257.152,245.389C257.152,246.585 256.363,247.555 255.391,247.555L251.864,247.555ZM258.918,247.555C257.946,247.555 257.157,246.585 257.157,245.389C257.157,244.193 257.946,243.223 258.918,243.223L262.446,243.223C263.418,243.223 264.207,244.193 264.207,245.389C264.207,246.585 263.418,247.555 262.446,247.555L258.918,247.555ZM265.973,247.555C265,247.555 264.211,246.585 264.211,245.389C264.211,244.193 265,243.223 265.973,243.223L269.5,243.223C270.472,243.223 271.261,244.193 271.261,245.389C271.261,246.585 270.472,247.555 269.5,247.555L265.973,247.555ZM273.028,247.555C272.056,247.555 271.266,246.585 271.266,245.389C271.266,244.193 272.056,243.223 273.028,243.223L276.555,243.223C277.527,243.223 278.316,244.193 278.316,245.389C278.316,246.585 277.527,247.555 276.555,247.555L273.028,247.555ZM280.082,247.555C279.11,247.555 278.321,246.585 278.321,245.389C278.321,244.193 279.11,243.223 280.082,243.223L283.61,243.223C284.582,243.223 285.371,244.193 285.371,245.389C285.371,246.585 284.582,247.555 283.61,247.555L280.082,247.555ZM287.137,247.555C286.165,247.555 285.375,246.585 285.375,245.389C285.375,244.193 286.165,243.223 287.137,243.223L290.664,243.223C291.637,243.223 292.426,244.193 292.426,245.389C292.426,246.585 291.637,247.555 290.664,247.555L287.137,247.555ZM294.191,247.555C293.219,247.555 292.429,246.585 292.429,245.389C292.429,244.193 293.219,243.223 294.191,243.223L297.718,243.223C298.69,243.223 299.479,244.193 299.479,245.389C299.479,246.585 298.69,247.555 297.718,247.555L294.191,247.555ZM301.246,247.555C300.274,247.555 299.484,246.585 299.484,245.389C299.484,244.193 300.274,243.223 301.246,243.223L304.773,243.223C305.745,243.223 306.535,244.193 306.535,245.389C306.535,246.585 305.745,247.555 304.773,247.555L301.246,247.555ZM308.3,247.555C307.328,247.555 306.539,246.585 306.539,245.389C306.539,244.193 307.328,243.223 308.3,243.223L311.828,243.223C312.8,243.223 313.589,244.193 313.589,245.389C313.589,246.585 312.8,247.555 311.828,247.555L308.3,247.555ZM315.354,247.555C314.382,247.555 313.593,246.585 313.593,245.389C313.593,244.193 314.382,243.223 315.354,243.223L318.882,243.223C319.854,243.223 320.643,244.193 320.643,245.389C320.643,246.585 319.854,247.555 318.882,247.555L315.354,247.555ZM322.409,247.555C321.437,247.555 320.648,246.585 320.648,245.389C320.648,244.193 321.437,243.223 322.409,243.223L325.937,243.223C326.909,243.223 327.698,244.193 327.698,245.389C327.698,246.585 326.909,247.555 325.937,247.555L322.409,247.555ZM329.463,247.555C328.491,247.555 327.702,246.585 327.702,245.389C327.702,244.193 328.491,243.223 329.463,243.223L332.99,243.223C333.963,243.223 334.752,244.193 334.752,245.389C334.752,246.585 333.963,247.555 332.99,247.555L329.463,247.555ZM336.519,247.555C335.547,247.555 334.758,246.585 334.758,245.389C334.758,244.193 335.547,243.223 336.519,243.223L340.047,243.223C341.019,243.223 341.808,244.193 341.808,245.389C341.808,246.585 341.019,247.555 340.047,247.555L336.519,247.555ZM343.573,247.555C342.601,247.555 341.812,246.585 341.812,245.389C341.812,244.193 342.601,243.223 343.573,243.223L347.1,243.223C348.073,243.223 348.862,244.193 348.862,245.389C348.862,246.585 348.073,247.555 347.1,247.555L343.573,247.555ZM350.628,247.555C349.656,247.555 348.867,246.585 348.867,245.389C348.867,244.193 349.656,243.223 350.628,243.223L354.155,243.223C355.127,243.223 355.916,244.193 355.916,245.389C355.916,246.585 355.127,247.555 354.155,247.555L350.628,247.555ZM357.682,247.555C356.709,247.555 355.92,246.585 355.92,245.389C355.92,244.193 356.709,243.223 357.682,243.223L361.209,243.223C362.181,243.223 362.97,244.193 362.97,245.389C362.97,246.585 362.181,247.555 361.209,247.555L357.682,247.555ZM364.737,247.555C363.765,247.555 362.976,246.585 362.976,245.389C362.976,244.193 363.765,243.223 364.737,243.223L368.265,243.223C369.237,243.223 370.026,244.193 370.026,245.389C370.026,246.585 369.237,247.555 368.265,247.555L364.737,247.555ZM371.792,247.555C370.82,247.555 370.031,246.585 370.031,245.389C370.031,244.193 370.82,243.223 371.792,243.223L375.319,243.223C376.291,243.223 377.08,244.193 377.08,245.389C377.08,246.585 376.291,247.555 375.319,247.555L371.792,247.555ZM378.846,247.555C377.874,247.555 377.085,246.585 377.085,245.389C377.085,244.193 377.874,243.223 378.846,243.223L382.373,243.223C383.345,243.223 384.134,244.193 384.134,245.389C384.134,246.585 383.345,247.555 382.373,247.555L378.846,247.555ZM385.9,247.555C384.928,247.555 384.138,246.585 384.138,245.389C384.138,244.193 384.928,243.223 385.9,243.223L389.427,243.223C390.399,243.223 391.188,244.193 391.188,245.389C391.188,246.585 390.399,247.555 389.427,247.555L385.9,247.555ZM392.955,247.555C391.983,247.555 391.193,246.585 391.193,245.389C391.193,244.193 391.983,243.223 392.955,243.223L396.482,243.223C397.454,243.223 398.243,244.193 398.243,245.389C398.243,246.585 397.454,247.555 396.482,247.555L392.955,247.555ZM400.01,247.555C399.038,247.555 398.248,246.585 398.248,245.389C398.248,244.193 399.038,243.223 400.01,243.223L403.537,243.223C404.509,243.223 405.298,244.193 405.298,245.389C405.298,246.585 404.509,247.555 403.537,247.555L400.01,247.555ZM407.064,247.555C406.092,247.555 405.302,246.585 405.302,245.389C405.302,244.193 406.092,243.223 407.064,243.223L410.591,243.223C411.563,243.223 412.352,244.193 412.352,245.389C412.352,246.585 411.563,247.555 410.591,247.555L407.064,247.555ZM414.119,247.555C413.147,247.555 412.358,246.585 412.358,245.389C412.358,244.193 413.147,243.223 414.119,243.223L417.647,243.223C418.619,243.223 419.408,244.193 419.408,245.389C419.408,246.585 418.619,247.555 417.647,247.555L414.119,247.555ZM421.173,247.555C420.201,247.555 419.412,246.585 419.412,245.389C419.412,244.193 420.201,243.223 421.173,243.223L424.7,243.223C425.672,243.223 426.462,244.193 426.462,245.389C426.462,246.585 425.672,247.555 424.7,247.555L421.173,247.555ZM428.228,247.555C427.256,247.555 426.467,246.585 426.467,245.389C426.467,244.193 427.256,243.223 428.228,243.223L431.756,243.223C432.728,243.223 433.517,244.193 433.517,245.389C433.517,246.585 432.728,247.555 431.756,247.555L428.228,247.555ZM435.283,247.555C434.311,247.555 433.522,246.585 433.522,245.389C433.522,244.193 434.311,243.223 435.283,243.223L438.81,243.223C439.782,243.223 440.571,244.193 440.571,245.389C440.571,246.585 439.782,247.555 438.81,247.555L435.283,247.555ZM442.337,247.555C441.365,247.555 440.576,246.585 440.576,245.389C440.576,244.193 441.365,243.223 442.337,243.223L445.865,243.223C446.837,243.223 447.626,244.193 447.626,245.389C447.626,246.585 446.837,247.555 445.865,247.555L442.337,247.555ZM449.392,247.555C448.419,247.555 447.63,246.585 447.63,245.389C447.63,244.193 448.419,243.223 449.392,243.223L452.919,243.223C453.891,243.223 454.68,244.193 454.68,245.389C454.68,246.585 453.891,247.555 452.919,247.555L449.392,247.555ZM456.446,247.555C455.473,247.555 454.684,246.585 454.684,245.389C454.684,244.193 455.473,243.223 456.446,243.223L459.973,243.223C460.945,243.223 461.734,244.193 461.734,245.389C461.734,246.585 460.945,247.555 459.973,247.555L456.446,247.555ZM463.5,247.555C462.528,247.555 461.739,246.585 461.739,245.389C461.739,244.193 462.528,243.223 463.5,243.223L467.027,243.223C468,243.223 468.789,244.193 468.789,245.389C468.789,246.585 468,247.555 467.027,247.555L463.5,247.555ZM470.556,247.555C469.584,247.555 468.794,246.585 468.794,245.389C468.794,244.193 469.584,243.223 470.556,243.223L474.083,243.223C475.055,243.223 475.845,244.193 475.845,245.389C475.845,246.585 475.055,247.555 474.083,247.555L470.556,247.555ZM477.61,247.555C476.638,247.555 475.849,246.585 475.849,245.389C475.849,244.193 476.638,243.223 477.61,243.223L481.137,243.223C482.109,243.223 482.899,244.193 482.899,245.389C482.899,246.585 482.109,247.555 481.137,247.555L477.61,247.555ZM484.665,247.555C483.693,247.555 482.903,246.585 482.903,245.389C482.903,244.193 483.693,243.223 484.665,243.223L488.192,243.223C489.164,243.223 489.953,244.193 489.953,245.389C489.953,246.585 489.164,247.555 488.192,247.555L484.665,247.555ZM491.718,247.555C490.746,247.555 489.957,246.585 489.957,245.389C489.957,244.193 490.746,243.223 491.718,243.223L495.246,243.223C496.218,243.223 497.007,244.193 497.007,245.389C497.007,246.585 496.218,247.555 495.246,247.555L491.718,247.555ZM498.774,247.555C497.801,247.555 497.012,246.585 497.012,245.389C497.012,244.193 497.801,243.223 498.774,243.223L502.301,243.223C503.273,243.223 504.062,244.193 504.062,245.389C504.062,246.585 503.273,247.555 502.301,247.555L498.774,247.555ZM505.828,247.555C504.856,247.555 504.067,246.585 504.067,245.389C504.067,244.193 504.856,243.223 505.828,243.223L509.356,243.223C510.328,243.223 511.117,244.193 511.117,245.389C511.117,246.585 510.328,247.555 509.356,247.555L505.828,247.555ZM512.883,247.555C511.911,247.555 511.121,246.585 511.121,245.389C511.121,244.193 511.911,243.223 512.883,243.223L516.41,243.223C517.382,243.223 518.172,244.193 518.172,245.389C518.172,246.585 517.382,247.555 516.41,247.555L512.883,247.555ZM519.937,247.555C518.965,247.555 518.176,246.585 518.176,245.389C518.176,244.193 518.965,243.223 519.937,243.223L523.464,243.223C524.436,243.223 525.225,244.193 525.225,245.389C525.225,246.585 524.436,247.555 523.464,247.555L519.937,247.555ZM526.991,247.555C526.019,247.555 525.23,246.585 525.23,245.389C525.23,244.193 526.019,243.223 526.991,243.223L530.519,243.223C531.491,243.223 532.28,244.193 532.28,245.389C532.28,246.585 531.491,247.555 530.519,247.555L526.991,247.555ZM534.046,247.555C533.074,247.555 532.285,246.585 532.285,245.389C532.285,244.193 533.074,243.223 534.046,243.223L537.573,243.223C538.546,243.223 539.335,244.193 539.335,245.389C539.335,246.585 538.546,247.555 537.573,247.555L534.046,247.555ZM541.101,247.555C540.129,247.555 539.34,246.585 539.34,245.389C539.34,244.193 540.129,243.223 541.101,243.223L544.628,243.223C545.6,243.223 546.39,244.193 546.39,245.389C546.39,246.585 545.6,247.555 544.628,247.555L541.101,247.555ZM548.155,247.555C547.183,247.555 546.394,246.585 546.394,245.389C546.394,244.193 547.183,243.223 548.155,243.223L551.682,243.223C552.654,243.223 553.444,244.193 553.444,245.389C553.444,246.585 552.654,247.555 551.682,247.555L548.155,247.555ZM555.21,247.555C554.238,247.555 553.449,246.585 553.449,245.389C553.449,244.193 554.238,243.223 555.21,243.223L558.737,243.223C559.71,243.223 560.499,244.193 560.499,245.389C560.499,246.585 559.71,247.555 558.737,247.555L555.21,247.555ZM562.265,247.555C561.292,247.555 560.503,246.585 560.503,245.389C560.503,244.193 561.292,243.223 562.265,243.223L565.792,243.223C566.764,243.223 567.553,244.193 567.553,245.389C567.553,246.585 566.764,247.555 565.792,247.555L562.265,247.555ZM569.319,247.555C568.347,247.555 567.558,246.585 567.558,245.389C567.558,244.193 568.347,243.223 569.319,243.223L572.846,243.223C573.818,243.223 574.608,244.193 574.608,245.389C574.608,246.585 573.818,247.555 572.846,247.555L569.319,247.555ZM576.374,247.555C575.402,247.555 574.612,246.585 574.612,245.389C574.612,244.193 575.402,243.223 576.374,243.223L579.901,243.223C580.873,243.223 581.662,244.193 581.662,245.389C581.662,246.585 580.873,247.555 579.901,247.555L576.374,247.555ZM583.428,247.555C582.456,247.555 581.667,246.585 581.667,245.389C581.667,244.193 582.456,243.223 583.428,243.223L586.956,243.223C587.928,243.223 588.717,244.193 588.717,245.389C588.717,246.585 587.928,247.555 586.956,247.555L583.428,247.555ZM590.482,247.555C589.51,247.555 588.721,246.585 588.721,245.389C588.721,244.193 589.51,243.223 590.482,243.223L594.01,243.223C594.982,243.223 595.771,244.193 595.771,245.389C595.771,246.585 594.982,247.555 594.01,247.555L590.482,247.555ZM597.537,247.555C596.565,247.555 595.776,246.585 595.776,245.389C595.776,244.193 596.565,243.223 597.537,243.223L601.064,243.223C602.037,243.223 602.826,244.193 602.826,245.389C602.826,246.585 602.037,247.555 601.064,247.555L597.537,247.555ZM604.592,247.555C603.62,247.555 602.831,246.585 602.831,245.389C602.831,244.193 603.62,243.223 604.592,243.223L608.119,243.223C609.091,243.223 609.881,244.193 609.881,245.389C609.881,246.585 609.091,247.555 608.119,247.555L604.592,247.555ZM611.646,247.555C610.674,247.555 609.885,246.585 609.885,245.389C609.885,244.193 610.674,243.223 611.646,243.223L615.174,243.223C616.146,243.223 616.935,244.193 616.935,245.389C616.935,246.585 616.146,247.555 615.174,247.555L611.646,247.555ZM618.701,247.555C617.729,247.555 616.939,246.585 616.939,245.389C616.939,244.193 617.729,243.223 618.701,243.223L622.228,243.223C623.2,243.223 623.989,244.193 623.989,245.389C623.989,246.585 623.2,247.555 622.228,247.555L618.701,247.555ZM625.755,247.555C624.783,247.555 623.994,246.585 623.994,245.389C623.994,244.193 624.783,243.223 625.755,243.223L629.283,243.223C630.255,243.223 631.044,244.193 631.044,245.389C631.044,246.585 630.255,247.555 629.283,247.555L625.755,247.555ZM632.81,247.555C631.838,247.555 631.049,246.585 631.049,245.389C631.049,244.193 631.838,243.223 632.81,243.223L636.337,243.223C637.31,243.223 638.099,244.193 638.099,245.389C638.099,246.585 637.31,247.555 636.337,247.555L632.81,247.555ZM639.864,247.555C638.892,247.555 638.103,246.585 638.103,245.389C638.103,244.193 638.892,243.223 639.864,243.223L643.392,243.223C644.364,243.223 645.153,244.193 645.153,245.389C645.153,246.585 644.364,247.555 643.392,247.555L639.864,247.555ZM646.92,247.555C645.947,247.555 645.158,246.585 645.158,245.389C645.158,244.193 645.947,243.223 646.92,243.223L650.447,243.223C651.419,243.223 652.208,244.193 652.208,245.389C652.208,246.585 651.419,247.555 650.447,247.555L646.92,247.555ZM653.974,247.555C653.002,247.555 652.213,246.585 652.213,245.389C652.213,244.193 653.002,243.223 653.974,243.223L657.501,243.223C658.473,243.223 659.262,244.193 659.262,245.389C659.262,246.585 658.473,247.555 657.501,247.555L653.974,247.555ZM661.029,247.555C660.056,247.555 659.267,246.585 659.267,245.389C659.267,244.193 660.056,243.223 661.029,243.223L664.556,243.223C665.528,243.223 666.317,244.193 666.317,245.389C666.317,246.585 665.528,247.555 664.556,247.555L661.029,247.555ZM668.083,247.555C667.111,247.555 666.322,246.585 666.322,245.389C666.322,244.193 667.111,243.223 668.083,243.223L671.61,243.223C672.582,243.223 673.372,244.193 673.372,245.389C673.372,246.585 672.582,247.555 671.61,247.555L668.083,247.555ZM675.137,247.555C674.165,247.555 673.376,246.585 673.376,245.389C673.376,244.193 674.165,243.223 675.137,243.223L678.665,243.223C679.637,243.223 680.426,244.193 680.426,245.389C680.426,246.585 679.637,247.555 678.665,247.555L675.137,247.555ZM682.192,247.555C681.22,247.555 680.431,246.585 680.431,245.389C680.431,244.193 681.22,243.223 682.192,243.223L683.956,243.223C684.668,243.223 685.37,243.28 686.059,243.391C687.023,243.545 687.703,244.634 687.577,245.819C687.451,247.005 686.566,247.841 685.602,247.686C685.063,247.6 684.514,247.555 683.956,247.555L682.192,247.555ZM688.777,248.732C687.879,248.273 687.453,247.005 687.825,245.9C688.198,244.796 689.23,244.272 690.127,244.73C691.438,245.399 692.661,246.274 693.771,247.323C694.541,248.052 694.686,249.413 694.094,250.361C693.501,251.309 692.394,251.487 691.624,250.758C690.757,249.938 689.801,249.254 688.777,248.732ZM693.952,253.622C693.359,252.674 693.504,251.313 694.275,250.584C695.046,249.855 696.152,250.033 696.745,250.981C697.598,252.346 698.309,253.85 698.853,255.462C699.226,256.566 698.8,257.835 697.902,258.293C697.004,258.751 695.972,258.227 695.6,257.123C695.175,255.863 694.618,254.688 693.952,253.622Z" style="fill:rgb(0,53,255);"/>
        </g>
    </g>
</svg>
