<?xml version="1.0" encoding="UTF-8" standalone="no"?>
<!DOCTYPE svg PUBLIC "-//W3C//DTD SVG 1.1//EN" "http://www.w3.org/Graphics/SVG/1.1/DTD/svg11.dtd">
<svg width="100%" height="100%" viewBox="0 0 506 166" version="1.1" xmlns="http://www.w3.org/2000/svg" xmlns:xlink="http://www.w3.org/1999/xlink" xml:space="preserve" xmlns:serif="http://www.serif.com/" style="fill-rule:evenodd;clip-rule:evenodd;stroke-linejoin:round;stroke-miterlimit:2;">
    <g transform="matrix(1,0,0,1,-3.87543,-164.802)">
        <g id="span_layout">
            <g transform="matrix(1,0,0,1,-54.6451,50.8532)">
                <rect x="59.379" y="184.874" width="94.857" height="37.239" style="fill:rgb(255,3,0);"/>
            </g>
            <g transform="matrix(1,0,0,1,-55.7918,83.884)">
                <rect x="153.724" y="166.478" width="53.454" height="78.225" style="fill:rgb(255,101,0);"/>
            </g>
            <g transform="matrix(1,0,0,1,-52.4778,-1.22526)">
                <rect x="207.246" y="166.027" width="80.389" height="38.341" style="fill:rgb(255,176,0);"/>
            </g>
            <g transform="matrix(1.30363,0,0,1,-67.6889,61.0683)">
                <rect x="314.621" y="191.171" width="95.331" height="36.034" style="fill:rgb(255,227,0);"/>
            </g>
            <g transform="matrix(1.14198,0,0,1,-4.85053,98.4027)">
                <rect x="412.491" y="174.717" width="36.515" height="56.263" style="fill:rgb(215,255,0);"/>
            </g>
        </g>
        <g id="span_area" transform="matrix(0.935538,0,0,0.995847,-145.869,-77.8273)">
            <path d="M696.632,261.467C696.546,260.639 697.192,259.902 698.072,259.822C698.953,259.741 699.738,260.347 699.824,261.175C699.888,261.792 699.921,262.419 699.921,263.052L699.921,264.644C699.921,265.476 699.202,266.151 698.317,266.151C697.432,266.151 696.714,265.476 696.714,264.644L696.714,263.052C696.714,262.517 696.686,261.988 696.632,261.467ZM696.714,274.199C696.714,273.368 697.432,272.693 698.317,272.693C699.202,272.693 699.921,273.368 699.921,274.199L699.921,277.384C699.921,278.215 699.202,278.89 698.317,278.89C697.432,278.89 696.714,278.215 696.714,277.384L696.714,274.199ZM696.714,286.938C696.714,286.106 697.432,285.432 698.317,285.432C699.202,285.432 699.921,286.106 699.921,286.938L699.921,290.122C699.921,290.954 699.202,291.629 698.317,291.629C697.432,291.629 696.714,290.954 696.714,290.122L696.714,286.938ZM696.714,299.677C696.714,298.846 697.432,298.171 698.317,298.171C699.202,298.171 699.921,298.846 699.921,299.677L699.921,302.862C699.921,303.693 699.202,304.368 698.317,304.368C697.432,304.368 696.714,303.693 696.714,302.862L696.714,299.677ZM696.714,312.416C696.714,311.585 697.432,310.91 698.317,310.91C699.202,310.91 699.921,311.585 699.921,312.416L699.921,315.601C699.921,316.432 699.202,317.107 698.317,317.107C697.432,317.107 696.714,316.432 696.714,315.601L696.714,312.416ZM696.714,325.155C696.714,324.324 697.432,323.649 698.317,323.649C699.202,323.649 699.921,324.324 699.921,325.155L699.921,328.34C699.921,329.171 699.202,329.846 698.317,329.846C697.432,329.846 696.714,329.171 696.714,328.34L696.714,325.155ZM696.714,337.894C696.714,337.063 697.432,336.388 698.317,336.388C699.202,336.388 699.921,337.063 699.921,337.894L699.921,341.079C699.921,341.91 699.202,342.585 698.317,342.585C697.432,342.585 696.714,341.91 696.714,341.079L696.714,337.894ZM696.714,350.633C696.714,349.802 697.432,349.127 698.317,349.127C699.202,349.127 699.921,349.802 699.921,350.633L699.921,353.818C699.921,354.649 699.202,355.324 698.317,355.324C697.432,355.324 696.714,354.649 696.714,353.818L696.714,350.633ZM696.714,363.372C696.714,362.541 697.432,361.866 698.317,361.866C699.202,361.866 699.921,362.541 699.921,363.372L699.921,366.557C699.921,367.388 699.202,368.063 698.317,368.063C697.432,368.063 696.714,367.388 696.714,366.557L696.714,363.372ZM696.714,376.111C696.714,375.28 697.432,374.605 698.317,374.605C699.202,374.605 699.921,375.28 699.921,376.111L699.921,379.296C699.921,380.128 699.202,380.802 698.317,380.802C697.432,380.802 696.714,380.128 696.714,379.296L696.714,376.111ZM696.714,388.85C696.714,388.019 697.432,387.344 698.317,387.344C699.202,387.344 699.921,388.019 699.921,388.85L699.921,390.443C699.921,391.076 699.888,391.703 699.824,392.32C699.738,393.148 698.953,393.754 698.072,393.673C697.192,393.593 696.546,392.855 696.632,392.028C696.686,391.507 696.714,390.978 696.714,390.443L696.714,388.85ZM692.809,400.69C693.371,400.047 694.382,399.954 695.066,400.482C695.749,401.01 695.848,401.96 695.286,402.602C694.438,403.572 693.491,404.462 692.459,405.258C691.776,405.786 690.764,405.693 690.202,405.051C689.641,404.409 689.74,403.459 690.423,402.931C691.294,402.259 692.093,401.508 692.809,400.69ZM681.203,406.523C682.084,406.442 682.869,407.048 682.955,407.876C683.04,408.703 682.395,409.44 681.514,409.521C680.857,409.581 680.19,409.612 679.516,409.612L677.874,409.612C676.989,409.612 676.271,408.937 676.271,408.106C676.271,407.274 676.989,406.6 677.874,406.6L679.516,406.6C680.085,406.6 680.648,406.574 681.203,406.523ZM668.024,406.6C668.909,406.6 669.628,407.274 669.628,408.106C669.628,408.937 668.909,409.612 668.024,409.612L664.741,409.612C663.856,409.612 663.138,408.937 663.138,408.106C663.138,407.274 663.856,406.6 664.741,406.6L668.024,406.6ZM654.892,406.6C655.777,406.6 656.495,407.274 656.495,408.106C656.495,408.937 655.777,409.612 654.892,409.612L651.609,409.612C650.724,409.612 650.006,408.937 650.006,408.106C650.006,407.274 650.724,406.6 651.609,406.6L654.892,406.6ZM641.759,406.6C642.644,406.6 643.362,407.274 643.362,408.106C643.362,408.937 642.644,409.612 641.759,409.612L638.475,409.612C637.59,409.612 636.872,408.937 636.872,408.106C636.872,407.274 637.59,406.6 638.475,406.6L641.759,406.6ZM628.626,406.6C629.511,406.6 630.229,407.274 630.229,408.106C630.229,408.937 629.511,409.612 628.626,409.612L625.343,409.612C624.458,409.612 623.74,408.937 623.74,408.106C623.74,407.274 624.458,406.6 625.343,406.6L628.626,406.6ZM615.493,406.6C616.378,406.6 617.096,407.274 617.096,408.106C617.096,408.937 616.378,409.612 615.493,409.612L612.21,409.612C611.325,409.612 610.606,408.937 610.606,408.106C610.606,407.274 611.325,406.6 612.21,406.6L615.493,406.6ZM602.361,406.6C603.246,406.6 603.964,407.274 603.964,408.106C603.964,408.937 603.246,409.612 602.361,409.612L599.078,409.612C598.193,409.612 597.474,408.937 597.474,408.106C597.474,407.274 598.193,406.6 599.078,406.6L602.361,406.6ZM589.227,406.6C590.112,406.6 590.83,407.274 590.83,408.106C590.83,408.937 590.112,409.612 589.227,409.612L585.944,409.612C585.059,409.612 584.34,408.937 584.34,408.106C584.34,407.274 585.059,406.6 585.944,406.6L589.227,406.6ZM576.094,406.6C576.979,406.6 577.698,407.274 577.698,408.106C577.698,408.937 576.979,409.612 576.094,409.612L572.811,409.612C571.926,409.612 571.208,408.937 571.208,408.106C571.208,407.274 571.926,406.6 572.811,406.6L576.094,406.6ZM562.962,406.6C563.847,406.6 564.565,407.274 564.565,408.106C564.565,408.937 563.847,409.612 562.962,409.612L559.679,409.612C558.794,409.612 558.076,408.937 558.076,408.106C558.076,407.274 558.794,406.6 559.679,406.6L562.962,406.6ZM549.828,406.6C550.713,406.6 551.432,407.274 551.432,408.106C551.432,408.937 550.713,409.612 549.828,409.612L546.545,409.612C545.66,409.612 544.942,408.937 544.942,408.106C544.942,407.274 545.66,406.6 546.545,406.6L549.828,406.6ZM536.696,406.6C537.581,406.6 538.299,407.274 538.299,408.106C538.299,408.937 537.581,409.612 536.696,409.612L533.413,409.612C532.528,409.612 531.809,408.937 531.809,408.106C531.809,407.274 532.528,406.6 533.413,406.6L536.696,406.6ZM523.563,406.6C524.448,406.6 525.166,407.274 525.166,408.106C525.166,408.937 524.448,409.612 523.563,409.612L520.28,409.612C519.395,409.612 518.677,408.937 518.677,408.106C518.677,407.274 519.395,406.6 520.28,406.6L523.563,406.6ZM510.431,406.6C511.316,406.6 512.034,407.274 512.034,408.106C512.034,408.937 511.316,409.612 510.431,409.612L507.148,409.612C506.263,409.612 505.544,408.937 505.544,408.106C505.544,407.274 506.263,406.6 507.148,406.6L510.431,406.6ZM497.298,406.6C498.183,406.6 498.901,407.274 498.901,408.106C498.901,408.937 498.183,409.612 497.298,409.612L494.015,409.612C493.13,409.612 492.411,408.937 492.411,408.106C492.411,407.274 493.13,406.6 494.015,406.6L497.298,406.6ZM484.164,406.6C485.049,406.6 485.768,407.274 485.768,408.106C485.768,408.937 485.049,409.612 484.164,409.612L480.881,409.612C479.996,409.612 479.278,408.937 479.278,408.106C479.278,407.274 479.996,406.6 480.881,406.6L484.164,406.6ZM471.032,406.6C471.917,406.6 472.635,407.274 472.635,408.106C472.635,408.937 471.917,409.612 471.032,409.612L467.749,409.612C466.864,409.612 466.145,408.937 466.145,408.106C466.145,407.274 466.864,406.6 467.749,406.6L471.032,406.6ZM457.899,406.6C458.784,406.6 459.503,407.274 459.503,408.106C459.503,408.937 458.784,409.612 457.899,409.612L454.616,409.612C453.731,409.612 453.013,408.937 453.013,408.106C453.013,407.274 453.731,406.6 454.616,406.6L457.899,406.6ZM444.766,406.6C445.651,406.6 446.37,407.274 446.37,408.106C446.37,408.937 445.651,409.612 444.766,409.612L441.483,409.612C440.598,409.612 439.88,408.937 439.88,408.106C439.88,407.274 440.598,406.6 441.483,406.6L444.766,406.6ZM431.633,406.6C432.518,406.6 433.236,407.274 433.236,408.106C433.236,408.937 432.518,409.612 431.633,409.612L428.35,409.612C427.465,409.612 426.746,408.937 426.746,408.106C426.746,407.274 427.465,406.6 428.35,406.6L431.633,406.6ZM418.501,406.6C419.386,406.6 420.104,407.274 420.104,408.106C420.104,408.937 419.386,409.612 418.501,409.612L415.218,409.612C414.333,409.612 413.614,408.937 413.614,408.106C413.614,407.274 414.333,406.6 415.218,406.6L418.501,406.6ZM405.367,406.6C406.252,406.6 406.97,407.274 406.97,408.106C406.97,408.937 406.252,409.612 405.367,409.612L402.084,409.612C401.199,409.612 400.481,408.937 400.481,408.106C400.481,407.274 401.199,406.6 402.084,406.6L405.367,406.6ZM392.235,406.6C393.12,406.6 393.839,407.274 393.839,408.106C393.839,408.937 393.12,409.612 392.235,409.612L388.952,409.612C388.067,409.612 387.349,408.937 387.349,408.106C387.349,407.274 388.067,406.6 388.952,406.6L392.235,406.6ZM379.101,406.6C379.986,406.6 380.705,407.274 380.705,408.106C380.705,408.937 379.986,409.612 379.101,409.612L375.818,409.612C374.933,409.612 374.215,408.937 374.215,408.106C374.215,407.274 374.933,406.6 375.818,406.6L379.101,406.6ZM365.968,406.6C366.853,406.6 367.572,407.274 367.572,408.106C367.572,408.937 366.853,409.612 365.968,409.612L362.685,409.612C361.8,409.612 361.081,408.937 361.081,408.106C361.081,407.274 361.8,406.6 362.685,406.6L365.968,406.6ZM352.836,406.6C353.721,406.6 354.439,407.274 354.439,408.106C354.439,408.937 353.721,409.612 352.836,409.612L349.552,409.612C348.667,409.612 347.949,408.937 347.949,408.106C347.949,407.274 348.667,406.6 349.552,406.6L352.836,406.6ZM339.703,406.6C340.588,406.6 341.306,407.274 341.306,408.106C341.306,408.937 340.588,409.612 339.703,409.612L336.42,409.612C335.535,409.612 334.817,408.937 334.817,408.106C334.817,407.274 335.535,406.6 336.42,406.6L339.703,406.6ZM326.571,406.6C327.456,406.6 328.174,407.274 328.174,408.106C328.174,408.937 327.456,409.612 326.571,409.612L323.288,409.612C322.403,409.612 321.684,408.937 321.684,408.106C321.684,407.274 322.403,406.6 323.288,406.6L326.571,406.6ZM313.437,406.6C314.322,406.6 315.04,407.274 315.04,408.106C315.04,408.937 314.322,409.612 313.437,409.612L310.154,409.612C309.269,409.612 308.55,408.937 308.55,408.106C308.55,407.274 309.269,406.6 310.154,406.6L313.437,406.6ZM300.305,406.6C301.19,406.6 301.908,407.274 301.908,408.106C301.908,408.937 301.19,409.612 300.305,409.612L297.022,409.612C296.137,409.612 295.418,408.937 295.418,408.106C295.418,407.274 296.137,406.6 297.022,406.6L300.305,406.6ZM287.172,406.6C288.057,406.6 288.776,407.274 288.776,408.106C288.776,408.937 288.057,409.612 287.172,409.612L283.889,409.612C283.004,409.612 282.285,408.937 282.285,408.106C282.285,407.274 283.004,406.6 283.889,406.6L287.172,406.6ZM274.039,406.6C274.924,406.6 275.642,407.274 275.642,408.106C275.642,408.937 274.924,409.612 274.039,409.612L270.755,409.612C269.871,409.612 269.152,408.937 269.152,408.106C269.152,407.274 269.871,406.6 270.755,406.6L274.039,406.6ZM260.906,406.6C261.791,406.6 262.509,407.274 262.509,408.106C262.509,408.937 261.791,409.612 260.906,409.612L257.623,409.612C256.738,409.612 256.02,408.937 256.02,408.106C256.02,407.274 256.738,406.6 257.623,406.6L260.906,406.6ZM247.773,406.6C248.657,406.6 249.376,407.274 249.376,408.106C249.376,408.937 248.657,409.612 247.773,409.612L244.489,409.612C243.605,409.612 242.886,408.937 242.886,408.106C242.886,407.274 243.605,406.6 244.489,406.6L247.773,406.6ZM234.64,406.6C235.525,406.6 236.244,407.274 236.244,408.106C236.244,408.937 235.525,409.612 234.64,409.612L231.357,409.612C230.472,409.612 229.754,408.937 229.754,408.106C229.754,407.274 230.472,406.6 231.357,406.6L234.64,406.6ZM221.507,406.6C222.392,406.6 223.111,407.274 223.111,408.106C223.111,408.937 222.392,409.612 221.507,409.612L218.224,409.612C217.339,409.612 216.621,408.937 216.621,408.106C216.621,407.274 217.339,406.6 218.224,406.6L221.507,406.6ZM208.374,406.6C209.259,406.6 209.978,407.274 209.978,408.106C209.978,408.937 209.259,409.612 208.374,409.612L205.091,409.612C204.206,409.612 203.488,408.937 203.488,408.106C203.488,407.274 204.206,406.6 205.091,406.6L208.374,406.6ZM195.242,406.6C196.127,406.6 196.845,407.274 196.845,408.106C196.845,408.937 196.127,409.612 195.242,409.612L191.958,409.612C191.074,409.612 190.355,408.937 190.355,408.106C190.355,407.274 191.074,406.6 191.958,406.6L195.242,406.6ZM182.109,406.6C182.994,406.6 183.712,407.274 183.712,408.106C183.712,408.937 182.994,409.612 182.109,409.612L180.467,409.612C179.793,409.612 179.126,409.581 178.469,409.521C177.588,409.44 176.942,408.703 177.028,407.876C177.114,407.048 177.899,406.442 178.78,406.523C179.335,406.574 179.898,406.6 180.467,406.6L182.109,406.6ZM169.56,402.931C170.243,403.459 170.342,404.409 169.78,405.051C169.219,405.693 168.207,405.786 167.524,405.258C166.492,404.462 165.545,403.572 164.697,402.602C164.135,401.96 164.234,401.01 164.917,400.482C165.601,399.954 166.612,400.047 167.174,400.69C167.89,401.508 168.689,402.259 169.56,402.931ZM163.351,392.028C163.437,392.855 162.791,393.593 161.91,393.673C161.03,393.754 160.245,393.148 160.159,392.32C160.095,391.703 160.062,391.076 160.062,390.443L160.062,388.85C160.062,388.019 160.781,387.344 161.666,387.344C162.55,387.344 163.269,388.019 163.269,388.85L163.269,390.443C163.269,390.978 163.297,391.507 163.351,392.028ZM163.269,379.296C163.269,380.127 162.55,380.802 161.666,380.802C160.781,380.802 160.062,380.127 160.062,379.296L160.062,376.111C160.062,375.28 160.781,374.605 161.666,374.605C162.55,374.605 163.269,375.28 163.269,376.111L163.269,379.296ZM163.269,366.557C163.269,367.388 162.55,368.063 161.666,368.063C160.781,368.063 160.062,367.388 160.062,366.557L160.062,363.372C160.062,362.541 160.781,361.866 161.666,361.866C162.55,361.866 163.269,362.541 163.269,363.372L163.269,366.557ZM163.269,353.818C163.269,354.649 162.55,355.324 161.666,355.324C160.781,355.324 160.062,354.649 160.062,353.818L160.062,350.633C160.062,349.802 160.781,349.127 161.666,349.127C162.55,349.127 163.269,349.802 163.269,350.633L163.269,353.818ZM163.269,341.079C163.269,341.91 162.55,342.585 161.666,342.585C160.781,342.585 160.062,341.91 160.062,341.079L160.062,337.894C160.062,337.063 160.781,336.388 161.666,336.388C162.55,336.388 163.269,337.063 163.269,337.894L163.269,341.079ZM163.269,328.34C163.269,329.171 162.55,329.846 161.666,329.846C160.781,329.846 160.062,329.171 160.062,328.34L160.062,325.155C160.062,324.324 160.781,323.649 161.666,323.649C162.55,323.649 163.269,324.324 163.269,325.155L163.269,328.34ZM163.269,315.601C163.269,316.432 162.55,317.107 161.666,317.107C160.781,317.107 160.062,316.432 160.062,315.601L160.062,312.416C160.062,311.585 160.781,310.91 161.666,310.91C162.55,310.91 163.269,311.585 163.269,312.416L163.269,315.601ZM163.269,302.862C163.269,303.693 162.55,304.368 161.666,304.368C160.781,304.368 160.062,303.693 160.062,302.862L160.062,299.677C160.062,298.846 160.781,298.171 161.666,298.171C162.55,298.171 163.269,298.846 163.269,299.677L163.269,302.862ZM163.269,290.123C163.269,290.954 162.55,291.629 161.666,291.629C160.781,291.629 160.062,290.954 160.062,290.123L160.062,286.938C160.062,286.107 160.781,285.432 161.666,285.432C162.55,285.432 163.269,286.107 163.269,286.938L163.269,290.123ZM163.269,277.383C163.269,278.215 162.55,278.89 161.666,278.89C160.781,278.89 160.062,278.215 160.062,277.383L160.062,274.199C160.062,273.367 160.781,272.692 161.666,272.692C162.55,272.692 163.269,273.367 163.269,274.199L163.269,277.383ZM163.269,264.644C163.269,265.476 162.55,266.151 161.666,266.151C160.781,266.151 160.062,265.476 160.062,264.644L160.062,263.052C160.062,262.419 160.095,261.792 160.159,261.175C160.245,260.347 161.03,259.741 161.91,259.822C162.791,259.902 163.437,260.639 163.351,261.467C163.297,261.988 163.269,262.517 163.269,263.052L163.269,264.644ZM167.174,252.805C166.612,253.447 165.601,253.54 164.917,253.013C164.234,252.485 164.135,251.535 164.697,250.893C165.545,249.923 166.492,249.033 167.524,248.237C168.207,247.709 169.219,247.802 169.78,248.444C170.342,249.086 170.243,250.036 169.56,250.564C168.689,251.236 167.89,251.987 167.174,252.805ZM178.78,246.972C177.899,247.053 177.114,246.447 177.028,245.619C176.942,244.792 177.588,244.055 178.469,243.974C179.126,243.914 179.793,243.883 180.467,243.883L182.109,243.883C182.994,243.883 183.712,244.558 183.712,245.389C183.712,246.22 182.994,246.895 182.109,246.895L180.467,246.895C179.898,246.895 179.335,246.921 178.78,246.972ZM191.959,246.895C191.074,246.895 190.355,246.22 190.355,245.389C190.355,244.558 191.074,243.883 191.959,243.883L195.242,243.883C196.127,243.883 196.845,244.558 196.845,245.389C196.845,246.22 196.127,246.895 195.242,246.895L191.959,246.895ZM205.091,246.895C204.206,246.895 203.488,246.22 203.488,245.389C203.488,244.558 204.206,243.883 205.091,243.883L208.374,243.883C209.259,243.883 209.977,244.558 209.977,245.389C209.977,246.22 209.259,246.895 208.374,246.895L205.091,246.895ZM218.224,246.895C217.339,246.895 216.621,246.22 216.621,245.389C216.621,244.558 217.339,243.883 218.224,243.883L221.508,243.883C222.393,243.883 223.111,244.558 223.111,245.389C223.111,246.22 222.393,246.895 221.508,246.895L218.224,246.895ZM231.357,246.895C230.472,246.895 229.754,246.22 229.754,245.389C229.754,244.558 230.472,243.883 231.357,243.883L234.64,243.883C235.525,243.883 236.243,244.558 236.243,245.389C236.243,246.22 235.525,246.895 234.64,246.895L231.357,246.895ZM244.49,246.895C243.605,246.895 242.887,246.22 242.887,245.389C242.887,244.558 243.605,243.883 244.49,243.883L247.773,243.883C248.658,243.883 249.377,244.558 249.377,245.389C249.377,246.22 248.658,246.895 247.773,246.895L244.49,246.895ZM257.622,246.895C256.737,246.895 256.019,246.22 256.019,245.389C256.019,244.558 256.737,243.883 257.622,243.883L260.905,243.883C261.79,243.883 262.509,244.558 262.509,245.389C262.509,246.22 261.79,246.895 260.905,246.895L257.622,246.895ZM270.756,246.895C269.871,246.895 269.152,246.22 269.152,245.389C269.152,244.558 269.871,243.883 270.756,243.883L274.039,243.883C274.924,243.883 275.643,244.558 275.643,245.389C275.643,246.22 274.924,246.895 274.039,246.895L270.756,246.895ZM283.889,246.895C283.004,246.895 282.285,246.22 282.285,245.389C282.285,244.558 283.004,243.883 283.889,243.883L287.172,243.883C288.056,243.883 288.775,244.558 288.775,245.389C288.775,246.22 288.056,246.895 287.172,246.895L283.889,246.895ZM297.021,246.895C296.136,246.895 295.418,246.22 295.418,245.389C295.418,244.558 296.136,243.883 297.021,243.883L300.304,243.883C301.189,243.883 301.907,244.558 301.907,245.389C301.907,246.22 301.189,246.895 300.304,246.895L297.021,246.895ZM310.155,246.895C309.27,246.895 308.551,246.22 308.551,245.389C308.551,244.558 309.27,243.883 310.155,243.883L313.438,243.883C314.323,243.883 315.041,244.558 315.041,245.389C315.041,246.22 314.323,246.895 313.438,246.895L310.155,246.895ZM323.287,246.895C322.402,246.895 321.684,246.22 321.684,245.389C321.684,244.558 322.402,243.883 323.287,243.883L326.57,243.883C327.455,243.883 328.173,244.558 328.173,245.389C328.173,246.22 327.455,246.895 326.57,246.895L323.287,246.895ZM336.42,246.895C335.535,246.895 334.817,246.22 334.817,245.389C334.817,244.558 335.535,243.883 336.42,243.883L339.703,243.883C340.588,243.883 341.306,244.558 341.306,245.389C341.306,246.22 340.588,246.895 339.703,246.895L336.42,246.895ZM349.552,246.895C348.667,246.895 347.949,246.22 347.949,245.389C347.949,244.558 348.667,243.883 349.552,243.883L352.835,243.883C353.72,243.883 354.439,244.558 354.439,245.389C354.439,246.22 353.72,246.895 352.835,246.895L349.552,246.895ZM362.685,246.895C361.8,246.895 361.082,246.22 361.082,245.389C361.082,244.558 361.8,243.883 362.685,243.883L365.968,243.883C366.853,243.883 367.572,244.558 367.572,245.389C367.572,246.22 366.853,246.895 365.968,246.895L362.685,246.895ZM375.818,246.895C374.934,246.895 374.215,246.22 374.215,245.389C374.215,244.558 374.934,243.883 375.818,243.883L379.102,243.883C379.986,243.883 380.705,244.558 380.705,245.389C380.705,246.22 379.986,246.895 379.102,246.895L375.818,246.895ZM388.951,246.895C388.066,246.895 387.348,246.22 387.348,245.389C387.348,244.558 388.066,243.883 388.951,243.883L392.234,243.883C393.119,243.883 393.838,244.558 393.838,245.389C393.838,246.22 393.119,246.895 392.234,246.895L388.951,246.895ZM402.084,246.895C401.199,246.895 400.48,246.22 400.48,245.389C400.48,244.558 401.199,243.883 402.084,243.883L405.367,243.883C406.252,243.883 406.97,244.558 406.97,245.389C406.97,246.22 406.252,246.895 405.367,246.895L402.084,246.895ZM415.217,246.895C414.332,246.895 413.613,246.22 413.613,245.389C413.613,244.558 414.332,243.883 415.217,243.883L418.5,243.883C419.384,243.883 420.103,244.558 420.103,245.389C420.103,246.22 419.384,246.895 418.5,246.895L415.217,246.895ZM428.35,246.895C427.465,246.895 426.747,246.22 426.747,245.389C426.747,244.558 427.465,243.883 428.35,243.883L431.633,243.883C432.518,243.883 433.236,244.558 433.236,245.389C433.236,246.22 432.518,246.895 431.633,246.895L428.35,246.895ZM441.482,246.895C440.597,246.895 439.879,246.22 439.879,245.389C439.879,244.558 440.597,243.883 441.482,243.883L444.765,243.883C445.65,243.883 446.369,244.558 446.369,245.389C446.369,246.22 445.65,246.895 444.765,246.895L441.482,246.895ZM454.616,246.895C453.731,246.895 453.012,246.22 453.012,245.389C453.012,244.558 453.731,243.883 454.616,243.883L457.899,243.883C458.784,243.883 459.502,244.558 459.502,245.389C459.502,246.22 458.784,246.895 457.899,246.895L454.616,246.895ZM467.748,246.895C466.863,246.895 466.144,246.22 466.144,245.389C466.144,244.558 466.863,243.883 467.748,243.883L471.031,243.883C471.916,243.883 472.634,244.558 472.634,245.389C472.634,246.22 471.916,246.895 471.031,246.895L467.748,246.895ZM480.882,246.895C479.997,246.895 479.278,246.22 479.278,245.389C479.278,244.558 479.997,243.883 480.882,243.883L484.165,243.883C485.05,243.883 485.768,244.558 485.768,245.389C485.768,246.22 485.05,246.895 484.165,246.895L480.882,246.895ZM494.015,246.895C493.13,246.895 492.411,246.22 492.411,245.389C492.411,244.558 493.13,243.883 494.015,243.883L497.298,243.883C498.183,243.883 498.902,244.558 498.902,245.389C498.902,246.22 498.183,246.895 497.298,246.895L494.015,246.895ZM507.147,246.895C506.262,246.895 505.544,246.22 505.544,245.389C505.544,244.558 506.262,243.883 507.147,243.883L510.431,243.883C511.315,243.883 512.034,244.558 512.034,245.389C512.034,246.22 511.315,246.895 510.431,246.895L507.147,246.895ZM520.28,246.895C519.395,246.895 518.676,246.22 518.676,245.389C518.676,244.558 519.395,243.883 520.28,243.883L523.563,243.883C524.448,243.883 525.166,244.558 525.166,245.389C525.166,246.22 524.448,246.895 523.563,246.895L520.28,246.895ZM533.412,246.895C532.527,246.895 531.809,246.22 531.809,245.389C531.809,244.558 532.527,243.883 533.412,243.883L536.695,243.883C537.58,243.883 538.298,244.558 538.298,245.389C538.298,246.22 537.58,246.895 536.695,246.895L533.412,246.895ZM546.546,246.895C545.661,246.895 544.943,246.22 544.943,245.389C544.943,244.558 545.661,243.883 546.546,243.883L549.829,243.883C550.714,243.883 551.433,244.558 551.433,245.389C551.433,246.22 550.714,246.895 549.829,246.895L546.546,246.895ZM559.678,246.895C558.793,246.895 558.075,246.22 558.075,245.389C558.075,244.558 558.793,243.883 559.678,243.883L562.961,243.883C563.846,243.883 564.565,244.558 564.565,245.389C564.565,246.22 563.846,246.895 562.961,246.895L559.678,246.895ZM572.811,246.895C571.926,246.895 571.207,246.22 571.207,245.389C571.207,244.558 571.926,243.883 572.811,243.883L576.094,243.883C576.979,243.883 577.697,244.558 577.697,245.389C577.697,246.22 576.979,246.895 576.094,246.895L572.811,246.895ZM585.944,246.895C585.059,246.895 584.341,246.22 584.341,245.389C584.341,244.558 585.059,243.883 585.944,243.883L589.228,243.883C590.112,243.883 590.831,244.558 590.831,245.389C590.831,246.22 590.112,246.895 589.228,246.895L585.944,246.895ZM599.077,246.895C598.192,246.895 597.473,246.22 597.473,245.389C597.473,244.558 598.192,243.883 599.077,243.883L602.36,243.883C603.245,243.883 603.963,244.558 603.963,245.389C603.963,246.22 603.245,246.895 602.36,246.895L599.077,246.895ZM612.21,246.895C611.325,246.895 610.607,246.22 610.607,245.389C610.607,244.558 611.325,243.883 612.21,243.883L615.493,243.883C616.378,243.883 617.097,244.558 617.097,245.389C617.097,246.22 616.378,246.895 615.493,246.895L612.21,246.895ZM625.343,246.895C624.458,246.895 623.739,246.22 623.739,245.389C623.739,244.558 624.458,243.883 625.343,243.883L628.626,243.883C629.511,243.883 630.229,244.558 630.229,245.389C630.229,246.22 629.511,246.895 628.626,246.895L625.343,246.895ZM638.476,246.895C637.591,246.895 636.872,246.22 636.872,245.389C636.872,244.558 637.591,243.883 638.476,243.883L641.759,243.883C642.644,243.883 643.362,244.558 643.362,245.389C643.362,246.22 642.644,246.895 641.759,246.895L638.476,246.895ZM651.609,246.895C650.724,246.895 650.005,246.22 650.005,245.389C650.005,244.558 650.724,243.883 651.609,243.883L654.892,243.883C655.777,243.883 656.495,244.558 656.495,245.389C656.495,246.22 655.777,246.895 654.892,246.895L651.609,246.895ZM664.741,246.895C663.856,246.895 663.138,246.22 663.138,245.389C663.138,244.558 663.856,243.883 664.741,243.883L668.024,243.883C668.909,243.883 669.628,244.558 669.628,245.389C669.628,246.22 668.909,246.895 668.024,246.895L664.741,246.895ZM677.874,246.895C676.989,246.895 676.271,246.22 676.271,245.389C676.271,244.558 676.989,243.883 677.874,243.883L679.516,243.883C680.19,243.883 680.857,243.914 681.514,243.974C682.395,244.055 683.04,244.792 682.955,245.619C682.869,246.447 682.084,247.053 681.203,246.972C680.648,246.921 680.085,246.895 679.516,246.895L677.874,246.895ZM690.423,250.564C689.74,250.036 689.641,249.086 690.202,248.444C690.764,247.802 691.776,247.709 692.459,248.237C693.491,249.033 694.438,249.923 695.286,250.893C695.848,251.535 695.749,252.485 695.066,253.013C694.382,253.54 693.371,253.447 692.809,252.805C692.093,251.987 691.294,251.236 690.423,250.564Z" style="fill:rgb(0,211,255);"/>
        </g>
    </g>
</svg>
