<?xml version="1.0" encoding="UTF-8" standalone="no"?>
<!DOCTYPE svg PUBLIC "-//W3C//DTD SVG 1.1//EN" "http://www.w3.org/Graphics/SVG/1.1/DTD/svg11.dtd">
<svg width="100%" height="100%" viewBox="0 0 506 166" version="1.1" xmlns="http://www.w3.org/2000/svg" xmlns:xlink="http://www.w3.org/1999/xlink" xml:space="preserve" xmlns:serif="http://www.serif.com/" style="fill-rule:evenodd;clip-rule:evenodd;stroke-linejoin:round;stroke-miterlimit:2;">
    <g transform="matrix(1,0,0,1,-3.87543,-164.551)">
        <g id="stack_layout">
            <rect x="59.379" y="184.874" width="94.857" height="37.239" style="fill:rgb(255,3,0);"/>
            <rect x="153.724" y="166.478" width="53.454" height="78.225" style="fill:rgb(255,101,0);"/>
            <rect x="207.246" y="166.027" width="80.389" height="38.341" style="fill:rgb(255,176,0);"/>
            <g transform="matrix(1.30363,0,0,1,-122.764,-4.81911)">
                <rect x="314.621" y="191.171" width="95.331" height="36.034" style="fill:rgb(255,227,0);"/>
            </g>
            <g transform="matrix(1.14198,0,0,1,-59.6253,15.2594)">
                <rect x="412.491" y="174.717" width="36.515" height="56.263" style="fill:rgb(215,255,0);"/>
            </g>
        </g>
        <g id="span_area" transform="matrix(0.935538,0,0,0.995847,-145.869,-77.8273)">
            <path d="M696.632,261.467C696.546,260.639 697.192,259.902 698.072,259.822C698.953,259.741 699.738,260.347 699.824,261.175C699.888,261.792 699.921,262.419 699.921,263.052L699.921,264.644C699.921,265.476 699.202,266.151 698.317,266.151C697.432,266.151 696.714,265.476 696.714,264.644L696.714,263.052C696.714,262.517 696.686,261.988 696.632,261.467ZM696.714,274.199C696.714,273.368 697.432,272.693 698.317,272.693C699.202,272.693 699.921,273.368 699.921,274.199L699.921,277.384C699.921,278.215 699.202,278.89 698.317,278.89C697.432,278.89 696.714,278.215 696.714,277.384L696.714,274.199ZM696.714,286.938C696.714,286.106 697.432,285.432 698.317,285.432C699.202,285.432 699.921,286.106 699.921,286.938L699.921,290.122C699.921,290.954 699.202,291.629 698.317,291.629C697.432,291.629 696.714,290.954 696.714,290.122L696.714,286.938ZM696.714,299.677C696.714,298.846 697.432,298.171 698.317,298.171C699.202,298.171 699.921,298.846 699.921,299.677L699.921,302.862C699.921,303.693 699.202,304.368 698.317,304.368C697.432,304.368 696.714,303.693 696.714,302.862L696.714,299.677ZM696.714,312.416C696.714,311.585 697.432,310.91 698.317,310.91C699.202,310.91 699.921,311.585 699.921,312.416L699.921,315.601C699.921,316.432 699.202,317.107 698.317,317.107C697.432,317.107 696.714,316.432 696.714,315.601L696.714,312.416ZM696.714,325.155C696.714,324.324 697.432,323.649 698.317,323.649C699.202,323.649 699.921,324.324 699.921,325.155L699.921,328.34C699.921,329.171 699.202,329.846 698.317,329.846C697.432,329.846 696.714,329.171 696.714,328.34L696.714,325.155ZM696.714,337.894C696.714,337.063 697.432,336.388 698.317,336.388C699.202,336.388 699.921,337.063 699.921,337.894L699.921,341.079C699.921,341.91 699.202,342.585 698.317,342.585C697.432,342.585 696.714,341.91 696.714,341.079L696.714,337.894ZM696.714,350.633C696.714,349.802 697.432,349.127 698.317,349.127C699.202,349.127 699.921,349.802 699.921,350.633L699.921,353.818C699.921,354.649 699.202,355.324 698.317,355.324C697.432,355.324 696.714,354.649 696.714,353.818L696.714,350.633ZM696.714,363.372C696.714,362.541 697.432,361.866 698.317,361.866C699.202,361.866 699.921,362.541 699.921,363.372L699.921,366.557C699.921,367.388 699.202,368.063 698.317,368.063C697.432,368.063 696.714,367.388 696.714,366.557L696.714,363.372ZM696.714,376.111C696.714,375.28 697.432,374.605 698.317,374.605C699.202,374.605 699.921,375.28 699.921,376.111L699.921,379.296C699.921,380.128 699.202,380.802 698.317,380.802C697.432,380.802 696.714,380.128 696.714,379.296L696.714,376.111ZM696.714,388.85C696.714,388.019 697.432,387.344 698.317,387.344C699.202,387.344 699.921,388.019 699.921,388.85L699.921,390.443C699.921,391.076 699.888,391.703 699.824,392.32C699.738,393.148 698.953,393.754 698.072,393.673C697.192,393.593 696.546,392.855 696.632,392.028C696.686,391.507 696.714,390.978 696.714,390.443L696.714,388.85ZM692.809,400.69C693.371,400.047 694.382,399.954 695.066,400.482C695.749,401.01 695.848,401.96 695.286,402.602C694.438,403.572 693.491,404.462 692.459,405.258C691.776,405.786 690.764,405.693 690.202,405.051C689.641,404.409 689.74,403.459 690.423,402.931C691.294,402.259 692.093,401.508 692.809,400.69ZM681.203,406.523C682.084,406.442 682.869,407.048 682.955,407.876C683.04,408.703 682.395,409.44 681.514,409.521C680.857,409.581 680.19,409.612 679.516,409.612L677.874,409.612C676.989,409.612 676.271,408.937 676.271,408.106C676.271,407.274 676.989,406.6 677.874,406.6L679.516,406.6C680.085,406.6 680.648,406.574 681.203,406.523ZM668.024,406.6C668.909,406.6 669.628,407.274 669.628,408.106C669.628,408.937 668.909,409.612 668.024,409.612L664.741,409.612C663.856,409.612 663.138,408.937 663.138,408.106C663.138,407.274 663.856,406.6 664.741,406.6L668.024,406.6ZM654.892,406.6C655.777,406.6 656.495,407.274 656.495,408.106C656.495,408.937 655.777,409.612 654.892,409.612L651.609,409.612C650.724,409.612 650.006,408.937 650.006,408.106C650.006,407.274 650.724,406.6 651.609,406.6L654.892,406.6ZM641.759,406.6C642.644,406.6 643.362,407.274 643.362,408.106C643.362,408.937 642.644,409.612 641.759,409.612L638.475,409.612C637.59,409.612 636.872,408.937 636.872,408.106C636.872,407.274 637.59,406.6 638.475,406.6L641.759,406.6ZM628.626,406.6C629.511,406.6 630.229,407.274 630.229,408.106C630.229,408.937 629.511,409.612 628.626,409.612L625.343,409.612C624.458,409.612 623.74,408.937 623.74,408.106C623.74,407.274 624.458,406.6 625.343,406.6L628.626,406.6ZM615.493,406.6C616.378,406.6 617.096,407.274 617.096,408.106C617.096,408.937 616.378,409.612 615.493,409.612L612.21,409.612C611.325,409.612 610.606,408.937 610.606,408.106C610.606,407.274 611.325,406.6 612.21,406.6L615.493,406.6ZM602.361,406.6C603.246,406.6 603.964,407.274 603.964,408.106C603.964,408.937 603.246,409.612 602.361,409.612L599.078,409.612C598.193,409.612 597.474,408.937 597.474,408.106C597.474,407.274 598.193,406.6 599.078,406.6L602.361,406.6ZM589.227,406.6C590.112,406.6 590.83,407.274 590.83,408.106C590.83,408.937 590.112,409.612 589.227,409.612L585.944,409.612C585.059,409.612 584.34,408.937 584.34,408.106C584.34,407.274 585.059,406.6 585.944,406.6L589.227,406.6ZM576.094,406.6C576.979,406.6 577.698,407.274 577.698,408.106C577.698,408.937 576.979,409.612 576.094,409.612L572.811,409.612C571.926,409.612 571.208,408.937 571.208,408.106C571.208,407.274 571.926,406.6 572.811,406.6L576.094,406.6ZM562.962,406.6C563.847,406.6 564.565,407.274 564.565,408.106C564.565,408.937 563.847,409.612 562.962,409.612L559.679,409.612C558.794,409.612 558.076,408.937 558.076,408.106C558.076,407.274 558.794,406.6 559.679,406.6L562.962,406.6ZM549.828,406.6C550.713,406.6 551.432,407.274 551.432,408.106C551.432,408.937 550.713,409.612 549.828,409.612L546.545,409.612C545.66,409.612 544.942,408.937 544.942,408.106C544.942,407.274 545.66,406.6 546.545,406.6L549.828,406.6ZM536.696,406.6C537.581,406.6 538.299,407.274 538.299,408.106C538.299,408.937 537.581,409.612 536.696,409.612L533.413,409.612C532.528,409.612 531.809,408.937 531.809,408.106C531.809,407.274 532.528,406.6 533.413,406.6L536.696,406.6ZM523.563,406.6C524.448,406.6 525.166,407.274 525.166,408.106C525.166,408.937 524.448,409.612 523.563,409.612L520.28,409.612C519.395,409.612 518.677,408.937 518.677,408.106C518.677,407.274 519.395,406.6 520.28,406.6L523.563,406.6ZM510.431,406.6C511.316,406.6 512.034,407.274 512.034,408.106C512.034,408.937 511.316,409.612 510.431,409.612L507.148,409.612C506.263,409.612 505.544,408.937 505.544,408.106C505.544,407.274 506.263,406.6 507.148,406.6L510.431,406.6ZM497.298,406.6C498.183,406.6 498.901,407.274 498.901,408.106C498.901,408.937 498.183,409.612 497.298,409.612L494.015,409.612C493.13,409.612 492.411,408.937 492.411,408.106C492.411,407.274 493.13,406.6 494.015,406.6L497.298,406.6ZM484.164,406.6C485.049,406.6 485.768,407.274 485.768,408.106C485.768,408.937 485.049,409.612 484.164,409.612L480.881,409.612C479.996,409.612 479.278,408.937 479.278,408.106C479.278,407.274 479.996,406.6 480.881,406.6L484.164,406.6ZM471.032,406.6C471.917,406.6 472.635,407.274 472.635,408.106C472.635,408.937 471.917,409.612 471.032,409.612L467.749,409.612C466.864,409.612 466.145,408.937 466.145,408.106C466.145,407.274 466.864,406.6 467.749,406.6L471.032,406.6ZM457.899,406.6C458.784,406.6 459.503,407.274 459.503,408.106C459.503,408.937 458.784,409.612 457.899,409.612L454.616,409.612C453.731,409.612 453.013,408.937 453.013,408.106C453.013,407.274 453.731,406.6 454.616,406.6L457.899,406.6ZM444.766,406.6C445.651,406.6 446.37,407.274 446.37,408.106C446.37,408.937 445.651,409.612 444.766,409.612L441.483,409.612C440.598,409.612 439.88,408.937 439.88,408.106C439.88,407.274 440.598,406.6 441.483,406.6L444.766,406.6ZM431.633,406.6C432.518,406.6 433.236,407.274 433.236,408.106C433.236,408.937 432.518,409.612 431.633,409.612L428.35,409.612C427.465,409.612 426.746,408.937 426.746,408.106C426.746,407.274 427.465,406.6 428.35,406.6L431.633,406.6ZM418.501,406.6C419.386,406.6 420.104,407.274 420.104,408.106C420.104,408.937 419.386,409.612 418.501,409.612L415.218,409.612C414.333,409.612 413.614,408.937 413.614,408.106C413.614,407.274 414.333,406.6 415.218,406.6L418.501,406.6ZM405.367,406.6C406.252,406.6 406.97,407.274 406.97,408.106C406.97,408.937 406.252,409.612 405.367,409.612L402.084,409.612C401.199,409.612 400.481,408.937 400.481,408.106C400.481,407.274 401.199,406.6 402.084,406.6L405.367,406.6ZM392.235,406.6C393.12,406.6 393.839,407.274 393.839,408.106C393.839,408.937 393.12,409.612 392.235,409.612L388.952,409.612C388.067,409.612 387.349,408.937 387.349,408.106C387.349,407.274 388.067,406.6 388.952,406.6L392.235,406.6ZM379.101,406.6C379.986,406.6 380.705,407.274 380.705,408.106C380.705,408.937 379.986,409.612 379.101,409.612L375.818,409.612C374.933,409.612 374.215,408.937 374.215,408.106C374.215,407.274 374.933,406.6 375.818,406.6L379.101,406.6ZM365.968,406.6C366.853,406.6 367.572,407.274 367.572,408.106C367.572,408.937 366.853,409.612 365.968,409.612L362.685,409.612C361.8,409.612 361.081,408.937 361.081,408.106C361.081,407.274 361.8,406.6 362.685,406.6L365.968,406.6ZM352.836,406.6C353.721,406.6 354.439,407.274 354.439,408.106C354.439,408.937 353.721,409.612 352.836,409.612L349.552,409.612C348.667,409.612 347.949,408.937 347.949,408.106C347.949,407.274 348.667,406.6 349.552,406.6L352.836,406.6ZM339.703,406.6C340.588,406.6 341.306,407.274 341.306,408.106C341.306,408.937 340.588,409.612 339.703,409.612L336.42,409.612C335.535,409.612 334.817,408.937 334.817,408.106C334.817,407.274 335.535,406.6 336.42,406.6L339.703,406.6ZM326.571,406.6C327.456,406.6 328.174,407.274 328.174,408.106C328.174,408.937 327.456,409.612 326.571,409.612L323.288,409.612C322.403,409.612 321.684,408.937 321.684,408.106C321.684,407.274 322.403,406.6 323.288,406.6L326.571,406.6ZM313.437,406.6C314.322,406.6 315.04,407.274 315.04,408.106C315.04,408.937 314.322,409.612 313.437,409.612L310.154,409.612C309.269,409.612 308.55,408.937 308.55,408.106C308.55,407.274 309.269,406.6 310.154,406.6L313.437,406.6ZM300.305,406.6C301.19,406.6 301.908,407.274 301.908,408.106C301.908,408.937 301.19,409.612 300.305,409.612L297.022,409.612C296.137,409.612 295.418,408.937 295.418,408.106C295.418,407.274 296.137,406.6 297.022,406.6L300.305,406.6ZM287.172,406.6C288.057,406.6 288.776,407.274 288.776,408.106C288.776,408.937 288.057,409.612 287.172,409.612L283.889,409.612C283.004,409.612 282.285,408.937 282.285,408.106C282.285,407.274 283.004,406.6 283.889,406.6L287.172,406.6ZM274.039,406.6C274.924,406.6 275.642,407.274 275.642,408.106C275.642,408.937 274.924,409.612 274.039,409.612L270.755,409.612C269.871,409.612 269.152,408.937 269.152,408.106C269.152,407.274 269.871,406.6 270.755,406.6L274.039,406.6ZM260.906,406.6C261.791,406.6 262.509,407.274 262.509,408.106C262.509,408.937 261.791,409.612 260.906,409.612L257.623,409.612C256.738,409.612 256.02,408.937 256.02,408.106C256.02,407.274 256.738,406.6 257.623,406.6L260.906,406.6ZM247.773,406.6C248.657,406.6 249.376,407.274 249.376,408.106C249.376,408.937 248.657,409.612 247.773,409.612L244.489,409.612C243.605,409.612 242.886,408.937 242.886,408.106C242.886,407.274 243.605,406.6 244.489,406.6L247.773,406.6ZM234.64,406.6C235.525,406.6 236.244,407.274 236.244,408.106C236.244,408.937 235.525,409.612 234.64,409.612L231.357,409.612C230.472,409.612 229.754,408.937 229.754,408.106C229.754,407.274 230.472,406.6 231.357,406.6L234.64,406.6ZM221.507,406.6C222.392,406.6 223.111,407.274 223.111,408.106C223.111,408.937 222.392,409.612 221.507,409.612L218.224,409.612C217.339,409.612 216.621,408.937 216.621,408.106C216.621,407.274 217.339,406.6 218.224,406.6L221.507,406.6ZM208.374,406.6C209.259,406.6 209.978,407.274 209.978,408.106C209.978,408.937 209.259,409.612 208.374,409.612L205.091,409.612C204.206,409.612 203.488,408.937 203.488,408.106C203.488,407.274 204.206,406.6 205.091,406.6L208.374,406.6ZM195.242,406.6C196.127,406.6 196.845,407.274 196.845,408.106C196.845,408.937 196.127,409.612 195.242,409.612L191.958,409.612C191.074,409.612 190.355,408.937 190.355,408.106C190.355,407.274 191.074,406.6 191.958,406.6L195.242,406.6ZM182.109,406.6C182.994,406.6 183.712,407.274 183.712,408.106C183.712,408.937 182.994,409.612 182.109,409.612L180.467,409.612C179.793,409.612 179.126,409.581 178.469,409.521C177.588,409.44 176.942,408.703 177.028,407.876C177.114,407.048 177.899,406.442 178.78,406.523C179.335,406.574 179.898,406.6 180.467,406.6L182.109,406.6ZM169.56,402.931C170.243,403.459 170.342,404.409 169.78,405.051C169.219,405.693 168.207,405.786 167.524,405.258C166.492,404.462 165.545,403.572 164.697,402.602C164.135,401.96 164.234,401.01 164.917,400.482C165.601,399.954 166.612,400.047 167.174,400.69C167.89,401.508 168.689,402.259 169.56,402.931ZM163.351,392.028C163.437,392.855 162.791,393.593 161.91,393.673C161.03,393.754 160.245,393.148 160.159,392.32C160.095,391.703 160.062,391.076 160.062,390.443L160.062,388.85C160.062,388.019 160.781,387.344 161.666,387.344C162.55,387.344 163.269,388.019 163.269,388.85L163.269,390.443C163.269,390.978 163.297,391.507 163.351,392.028ZM163.269,379.296C163.269,380.127 162.55,380.802 161.666,380.802C160.781,380.802 160.062,380.127 160.062,379.296L160.062,376.111C160.062,375.28 160.781,374.605 161.666,374.605C162.55,374.605 163.269,375.28 163.269,376.111L163.269,379.296ZM163.269,366.557C163.269,367.388 162.55,368.063 161.666,368.063C160.781,368.063 160.062,367.388 160.062,366.557L160.062,363.372C160.062,362.541 160.781,361.866 161.666,361.866C162.55,361.866 163.269,362.541 163.269,363.372L163.269,366.557ZM163.269,353.818C163.269,354.649 162.55,355.324 161.666,355.324C160.781,355.324 160.062,354.649 160.062,353.818L160.062,350.633C160.062,349.802 160.781,349.127 161.666,349.127C162.55,349.127 163.269,349.802 163.269,350.633L163.269,353.818ZM163.269,341.079C163.269,341.91 162.55,342.585 161.666,342.585C160.781,342.585 160.062,341.91 160.062,341.079L160.062,337.894C160.062,337.063 160.781,336.388 161.666,336.388C162.55,336.388 163.269,337.063 163.269,337.894L163.269,341.079ZM163.269,328.34C163.269,329.171 162.55,329.846 161.666,329.846C160.781,329.846 160.062,329.171 160.062,328.34L160.062,325.155C160.062,324.324 160.781,323.649 161.666,323.649C162.55,323.649 163.269,324.324 163.269,325.155L163.269,328.34ZM163.269,315.601C163.269,316.432 162.55,317.107 161.666,317.107C160.781,317.107 160.062,316.432 160.062,315.601L160.062,312.416C160.062,311.585 160.781,310.91 161.666,310.91C162.55,310.91 163.269,311.585 163.269,312.416L163.269,315.601ZM163.269,302.862C163.269,303.693 162.55,304.368 161.666,304.368C160.781,304.368 160.062,303.693 160.062,302.862L160.062,299.677C160.062,298.846 160.781,298.171 161.666,298.171C162.55,298.171 163.269,298.846 163.269,299.677L163.269,302.862ZM163.269,290.123C163.269,290.954 162.55,291.629 161.666,291.629C160.781,291.629 160.062,290.954 160.062,290.123L160.062,286.938C160.062,286.107 160.781,285.432 161.666,285.432C162.55,285.432 163.269,286.107 163.269,286.938L163.269,290.123ZM163.269,277.383C163.269,278.215 162.55,278.89 161.666,278.89C160.781,278.89 160.062,278.215 160.062,277.383L160.062,274.199C160.062,273.367 160.781,272.692 161.666,272.692C162.55,272.692 163.269,273.367 163.269,274.199L163.269,277.383ZM163.269,264.644C163.269,265.476 162.55,266.151 161.666,266.151C160.781,266.151 160.062,265.476 160.062,264.644L160.062,263.052C160.062,262.419 160.095,261.792 160.159,261.175C160.245,260.347 161.03,259.741 161.91,259.822C162.791,259.902 163.437,260.639 163.351,261.467C163.297,261.988 163.269,262.517 163.269,263.052L163.269,264.644ZM167.174,252.805C166.612,253.447 165.601,253.54 164.917,253.013C164.234,252.485 164.135,251.535 164.697,250.893C165.545,249.923 166.492,249.033 167.524,248.237C168.207,247.709 169.219,247.802 169.78,248.444C170.342,249.086 170.243,250.036 169.56,250.564C168.689,251.236 167.89,251.987 167.174,252.805ZM178.78,246.972C177.899,247.053 177.114,246.447 177.028,245.619C176.942,244.792 177.588,244.055 178.469,243.974C179.126,243.914 179.793,243.883 180.467,243.883L182.109,243.883C182.994,243.883 183.712,244.558 183.712,245.389C183.712,246.22 182.994,246.895 182.109,246.895L180.467,246.895C179.898,246.895 179.335,246.921 178.78,246.972ZM191.959,246.895C191.074,246.895 190.355,246.22 190.355,245.389C190.355,244.558 191.074,243.883 191.959,243.883L195.242,243.883C196.127,243.883 196.845,244.558 196.845,245.389C196.845,246.22 196.127,246.895 195.242,246.895L191.959,246.895ZM205.091,246.895C204.206,246.895 203.488,246.22 203.488,245.389C203.488,244.558 204.206,243.883 205.091,243.883L208.374,243.883C209.259,243.883 209.977,244.558 209.977,245.389C209.977,246.22 209.259,246.895 208.374,246.895L205.091,246.895ZM218.224,246.895C217.339,246.895 216.621,246.22 216.621,245.389C216.621,244.558 217.339,243.883 218.224,243.883L221.508,243.883C222.393,243.883 223.111,244.558 223.111,245.389C223.111,246.22 222.393,246.895 221.508,246.895L218.224,246.895ZM231.357,246.895C230.472,246.895 229.754,246.22 229.754,245.389C229.754,244.558 230.472,243.883 231.357,243.883L234.64,243.883C235.525,243.883 236.243,244.558 236.243,245.389C236.243,246.22 235.525,246.895 234.64,246.895L231.357,246.895ZM244.49,246.895C243.605,246.895 242.887,246.22 242.887,245.389C242.887,244.558 243.605,243.883 244.49,243.883L247.773,243.883C248.658,243.883 249.377,244.558 249.377,245.389C249.377,246.22 248.658,246.895 247.773,246.895L244.49,246.895ZM257.622,246.895C256.737,246.895 256.019,246.22 256.019,245.389C256.019,244.558 256.737,243.883 257.622,243.883L260.905,243.883C261.79,243.883 262.509,244.558 262.509,245.389C262.509,246.22 261.79,246.895 260.905,246.895L257.622,246.895ZM270.756,246.895C269.871,246.895 269.152,246.22 269.152,245.389C269.152,244.558 269.871,243.883 270.756,243.883L274.039,243.883C274.924,243.883 275.643,244.558 275.643,245.389C275.643,246.22 274.924,246.895 274.039,246.895L270.756,246.895ZM283.889,246.895C283.004,246.895 282.285,246.22 282.285,245.389C282.285,244.558 283.004,243.883 283.889,243.883L287.172,243.883C288.056,243.883 288.775,244.558 288.775,245.389C288.775,246.22 288.056,246.895 287.172,246.895L283.889,246.895ZM297.021,246.895C296.136,246.895 295.418,246.22 295.418,245.389C295.418,244.558 296.136,243.883 297.021,243.883L300.304,243.883C301.189,243.883 301.907,244.558 301.907,245.389C301.907,246.22 301.189,246.895 300.304,246.895L297.021,246.895ZM310.155,246.895C309.27,246.895 308.551,246.22 308.551,245.389C308.551,244.558 309.27,243.883 310.155,243.883L313.438,243.883C314.323,243.883 315.041,244.558 315.041,245.389C315.041,246.22 314.323,246.895 313.438,246.895L310.155,246.895ZM323.287,246.895C322.402,246.895 321.684,246.22 321.684,245.389C321.684,244.558 322.402,243.883 323.287,243.883L326.57,243.883C327.455,243.883 328.173,244.558 328.173,245.389C328.173,246.22 327.455,246.895 326.57,246.895L323.287,246.895ZM336.42,246.895C335.535,246.895 334.817,246.22 334.817,245.389C334.817,244.558 335.535,243.883 336.42,243.883L339.703,243.883C340.588,243.883 341.306,244.558 341.306,245.389C341.306,246.22 340.588,246.895 339.703,246.895L336.42,246.895ZM349.552,246.895C348.667,246.895 347.949,246.22 347.949,245.389C347.949,244.558 348.667,243.883 349.552,243.883L352.835,243.883C353.72,243.883 354.439,244.558 354.439,245.389C354.439,246.22 353.72,246.895 352.835,246.895L349.552,246.895ZM362.685,246.895C361.8,246.895 361.082,246.22 361.082,245.389C361.082,244.558 361.8,243.883 362.685,243.883L365.968,243.883C366.853,243.883 367.572,244.558 367.572,245.389C367.572,246.22 366.853,246.895 365.968,246.895L362.685,246.895ZM375.818,246.895C374.934,246.895 374.215,246.22 374.215,245.389C374.215,244.558 374.934,243.883 375.818,243.883L379.102,243.883C379.986,243.883 380.705,244.558 380.705,245.389C380.705,246.22 379.986,246.895 379.102,246.895L375.818,246.895ZM388.951,246.895C388.066,246.895 387.348,246.22 387.348,245.389C387.348,244.558 388.066,243.883 388.951,243.883L392.234,243.883C393.119,243.883 393.838,244.558 393.838,245.389C393.838,246.22 393.119,246.895 392.234,246.895L388.951,246.895ZM402.084,246.895C401.199,246.895 400.48,246.22 400.48,245.389C400.48,244.558 401.199,243.883 402.084,243.883L405.367,243.883C406.252,243.883 406.97,244.558 406.97,245.389C406.97,246.22 406.252,246.895 405.367,246.895L402.084,246.895ZM415.217,246.895C414.332,246.895 413.613,246.22 413.613,245.389C413.613,244.558 414.332,243.883 415.217,243.883L418.5,243.883C419.384,243.883 420.103,244.558 420.103,245.389C420.103,246.22 419.384,246.895 418.5,246.895L415.217,246.895ZM428.35,246.895C427.465,246.895 426.747,246.22 426.747,245.389C426.747,244.558 427.465,243.883 428.35,243.883L431.633,243.883C432.518,243.883 433.236,244.558 433.236,245.389C433.236,246.22 432.518,246.895 431.633,246.895L428.35,246.895ZM441.482,246.895C440.597,246.895 439.879,246.22 439.879,245.389C439.879,244.558 440.597,243.883 441.482,243.883L444.765,243.883C445.65,243.883 446.369,244.558 446.369,245.389C446.369,246.22 445.65,246.895 444.765,246.895L441.482,246.895ZM454.616,246.895C453.731,246.895 453.012,246.22 453.012,245.389C453.012,244.558 453.731,243.883 454.616,243.883L457.899,243.883C458.784,243.883 459.502,244.558 459.502,245.389C459.502,246.22 458.784,246.895 457.899,246.895L454.616,246.895ZM467.748,246.895C466.863,246.895 466.144,246.22 466.144,245.389C466.144,244.558 466.863,243.883 467.748,243.883L471.031,243.883C471.916,243.883 472.634,244.558 472.634,245.389C472.634,246.22 471.916,246.895 471.031,246.895L467.748,246.895ZM480.882,246.895C479.997,246.895 479.278,246.22 479.278,245.389C479.278,244.558 479.997,243.883 480.882,243.883L484.165,243.883C485.05,243.883 485.768,244.558 485.768,245.389C485.768,246.22 485.05,246.895 484.165,246.895L480.882,246.895ZM494.015,246.895C493.13,246.895 492.411,246.22 492.411,245.389C492.411,244.558 493.13,243.883 494.015,243.883L497.298,243.883C498.183,243.883 498.902,244.558 498.902,245.389C498.902,246.22 498.183,246.895 497.298,246.895L494.015,246.895ZM507.147,246.895C506.262,246.895 505.544,246.22 505.544,245.389C505.544,244.558 506.262,243.883 507.147,243.883L510.431,243.883C511.315,243.883 512.034,244.558 512.034,245.389C512.034,246.22 511.315,246.895 510.431,246.895L507.147,246.895ZM520.28,246.895C519.395,246.895 518.676,246.22 518.676,245.389C518.676,244.558 519.395,243.883 520.28,243.883L523.563,243.883C524.448,243.883 525.166,244.558 525.166,245.389C525.166,246.22 524.448,246.895 523.563,246.895L520.28,246.895ZM533.412,246.895C532.527,246.895 531.809,246.22 531.809,245.389C531.809,244.558 532.527,243.883 533.412,243.883L536.695,243.883C537.58,243.883 538.298,244.558 538.298,245.389C538.298,246.22 537.58,246.895 536.695,246.895L533.412,246.895ZM546.546,246.895C545.661,246.895 544.943,246.22 544.943,245.389C544.943,244.558 545.661,243.883 546.546,243.883L549.829,243.883C550.714,243.883 551.433,244.558 551.433,245.389C551.433,246.22 550.714,246.895 549.829,246.895L546.546,246.895ZM559.678,246.895C558.793,246.895 558.075,246.22 558.075,245.389C558.075,244.558 558.793,243.883 559.678,243.883L562.961,243.883C563.846,243.883 564.565,244.558 564.565,245.389C564.565,246.22 563.846,246.895 562.961,246.895L559.678,246.895ZM572.811,246.895C571.926,246.895 571.207,246.22 571.207,245.389C571.207,244.558 571.926,243.883 572.811,243.883L576.094,243.883C576.979,243.883 577.697,244.558 577.697,245.389C577.697,246.22 576.979,246.895 576.094,246.895L572.811,246.895ZM585.944,246.895C585.059,246.895 584.341,246.22 584.341,245.389C584.341,244.558 585.059,243.883 585.944,243.883L589.228,243.883C590.112,243.883 590.831,244.558 590.831,245.389C590.831,246.22 590.112,246.895 589.228,246.895L585.944,246.895ZM599.077,246.895C598.192,246.895 597.473,246.22 597.473,245.389C597.473,244.558 598.192,243.883 599.077,243.883L602.36,243.883C603.245,243.883 603.963,244.558 603.963,245.389C603.963,246.22 603.245,246.895 602.36,246.895L599.077,246.895ZM612.21,246.895C611.325,246.895 610.607,246.22 610.607,245.389C610.607,244.558 611.325,243.883 612.21,243.883L615.493,243.883C616.378,243.883 617.097,244.558 617.097,245.389C617.097,246.22 616.378,246.895 615.493,246.895L612.21,246.895ZM625.343,246.895C624.458,246.895 623.739,246.22 623.739,245.389C623.739,244.558 624.458,243.883 625.343,243.883L628.626,243.883C629.511,243.883 630.229,244.558 630.229,245.389C630.229,246.22 629.511,246.895 628.626,246.895L625.343,246.895ZM638.476,246.895C637.591,246.895 636.872,246.22 636.872,245.389C636.872,244.558 637.591,243.883 638.476,243.883L641.759,243.883C642.644,243.883 643.362,244.558 643.362,245.389C643.362,246.22 642.644,246.895 641.759,246.895L638.476,246.895ZM651.609,246.895C650.724,246.895 650.005,246.22 650.005,245.389C650.005,244.558 650.724,243.883 651.609,243.883L654.892,243.883C655.777,243.883 656.495,244.558 656.495,245.389C656.495,246.22 655.777,246.895 654.892,246.895L651.609,246.895ZM664.741,246.895C663.856,246.895 663.138,246.22 663.138,245.389C663.138,244.558 663.856,243.883 664.741,243.883L668.024,243.883C668.909,243.883 669.628,244.558 669.628,245.389C669.628,246.22 668.909,246.895 668.024,246.895L664.741,246.895ZM677.874,246.895C676.989,246.895 676.271,246.22 676.271,245.389C676.271,244.558 676.989,243.883 677.874,243.883L679.516,243.883C680.19,243.883 680.857,243.914 681.514,243.974C682.395,244.055 683.04,244.792 682.955,245.619C682.869,246.447 682.084,247.053 681.203,246.972C680.648,246.921 680.085,246.895 679.516,246.895L677.874,246.895ZM690.423,250.564C689.74,250.036 689.641,249.086 690.202,248.444C690.764,247.802 691.776,247.709 692.459,248.237C693.491,249.033 694.438,249.923 695.286,250.893C695.848,251.535 695.749,252.485 695.066,253.013C694.382,253.54 693.371,253.447 692.809,252.805C692.093,251.987 691.294,251.236 690.423,250.564Z" style="fill:rgb(0,211,255);"/>
        </g>
        <g id="stack_area" transform="matrix(0.738074,0,0,0.487268,-61.3211,46.4809)">
            <path d="M696.102,260.204C695.884,258.537 696.6,256.916 697.7,256.586C698.8,256.256 699.871,257.341 700.089,259.008C700.26,260.316 700.35,261.668 700.35,263.052L700.35,266.237C700.35,267.936 699.439,269.315 698.317,269.315C697.196,269.315 696.285,267.936 696.285,266.237L696.285,263.052C696.285,262.078 696.222,261.125 696.102,260.204ZM696.285,272.606C696.285,270.907 697.196,269.528 698.317,269.528C699.439,269.528 700.35,270.907 700.35,272.606L700.35,278.976C700.35,280.675 699.439,282.054 698.317,282.054C697.196,282.054 696.285,280.675 696.285,278.976L696.285,272.606ZM696.285,285.346C696.285,283.647 697.196,282.267 698.317,282.267C699.439,282.267 700.35,283.647 700.35,285.346L700.35,291.715C700.35,293.414 699.439,294.793 698.317,294.793C697.196,294.793 696.285,293.414 696.285,291.715L696.285,285.346ZM696.285,298.084C696.285,296.385 697.196,295.006 698.317,295.006C699.439,295.006 700.35,296.385 700.35,298.084L700.35,304.454C700.35,306.153 699.439,307.533 698.317,307.533C697.196,307.533 696.285,306.153 696.285,304.454L696.285,298.084ZM696.285,310.824C696.285,309.125 697.196,307.745 698.317,307.745C699.439,307.745 700.35,309.125 700.35,310.824L700.35,317.193C700.35,318.892 699.439,320.272 698.317,320.272C697.196,320.272 696.285,318.892 696.285,317.193L696.285,310.824ZM696.285,323.563C696.285,321.864 697.196,320.484 698.317,320.484C699.439,320.484 700.35,321.864 700.35,323.563L700.35,329.932C700.35,331.631 699.439,333.011 698.317,333.011C697.196,333.011 696.285,331.631 696.285,329.932L696.285,323.563ZM696.285,336.302C696.285,334.603 697.196,333.223 698.317,333.223C699.439,333.223 700.35,334.603 700.35,336.302L700.35,342.671C700.35,344.37 699.439,345.75 698.317,345.75C697.196,345.75 696.285,344.37 696.285,342.671L696.285,336.302ZM696.285,349.041C696.285,347.342 697.196,345.963 698.317,345.963C699.439,345.963 700.35,347.342 700.35,349.041L700.35,355.41C700.35,357.11 699.439,358.489 698.317,358.489C697.196,358.489 696.285,357.11 696.285,355.41L696.285,349.041ZM696.285,361.78C696.285,360.081 697.196,358.702 698.317,358.702C699.439,358.702 700.35,360.081 700.35,361.78L700.35,368.149C700.35,369.848 699.439,371.228 698.317,371.228C697.196,371.228 696.285,369.848 696.285,368.149L696.285,361.78ZM696.285,374.519C696.285,372.82 697.196,371.441 698.317,371.441C699.439,371.441 700.35,372.82 700.35,374.519L700.35,380.889C700.35,382.588 699.439,383.967 698.317,383.967C697.196,383.967 696.285,382.588 696.285,380.889L696.285,374.519ZM696.285,387.258C696.285,385.559 697.196,384.18 698.317,384.18C699.439,384.18 700.35,385.559 700.35,387.258L700.35,390.443C700.35,391.827 700.26,393.179 700.089,394.487C699.871,396.154 698.8,397.239 697.7,396.909C696.6,396.579 695.884,394.958 696.102,393.291C696.222,392.37 696.285,391.417 696.285,390.443L696.285,387.258ZM694.663,398.542C695.287,397.13 696.551,396.751 697.483,397.697C698.415,398.643 698.665,400.556 698.04,401.968C697.041,404.227 695.757,406.173 694.265,407.686C693.333,408.632 692.07,408.253 691.446,406.842C690.821,405.43 691.071,403.516 692.003,402.571C693.054,401.504 693.959,400.133 694.663,398.542ZM688.537,404.749C689.637,404.419 690.707,405.504 690.925,407.171C691.143,408.838 690.427,410.459 689.327,410.789C688.463,411.048 687.57,411.184 686.657,411.184L684.62,411.184C683.498,411.184 682.587,409.805 682.587,408.106C682.587,406.407 683.498,405.027 684.62,405.027L686.657,405.027C687.3,405.027 687.929,404.932 688.537,404.749ZM680.545,405.027C681.667,405.027 682.578,406.407 682.578,408.106C682.578,409.805 681.667,411.184 680.545,411.184L676.471,411.184C675.35,411.184 674.439,409.805 674.439,408.106C674.439,406.407 675.35,405.027 676.471,405.027L680.545,405.027ZM672.397,405.027C673.519,405.027 674.43,406.407 674.43,408.106C674.43,409.805 673.519,411.184 672.397,411.184L668.324,411.184C667.202,411.184 666.291,409.805 666.291,408.106C666.291,406.407 667.202,405.027 668.324,405.027L672.397,405.027ZM664.25,405.027C665.371,405.027 666.282,406.407 666.282,408.106C666.282,409.805 665.371,411.184 664.25,411.184L660.176,411.184C659.054,411.184 658.143,409.805 658.143,408.106C658.143,406.407 659.054,405.027 660.176,405.027L664.25,405.027ZM656.101,405.027C657.223,405.027 658.133,406.407 658.133,408.106C658.133,409.805 657.223,411.184 656.101,411.184L652.027,411.184C650.905,411.184 649.994,409.805 649.994,408.106C649.994,406.407 650.905,405.027 652.027,405.027L656.101,405.027ZM647.953,405.027C649.075,405.027 649.985,406.407 649.985,408.106C649.985,409.805 649.075,411.184 647.953,411.184L643.879,411.184C642.757,411.184 641.847,409.805 641.847,408.106C641.847,406.407 642.757,405.027 643.879,405.027L647.953,405.027ZM639.805,405.027C640.926,405.027 641.837,406.407 641.837,408.106C641.837,409.805 640.926,411.184 639.805,411.184L635.731,411.184C634.609,411.184 633.699,409.805 633.699,408.106C633.699,406.407 634.609,405.027 635.731,405.027L639.805,405.027ZM631.657,405.027C632.779,405.027 633.689,406.407 633.689,408.106C633.689,409.805 632.779,411.184 631.657,411.184L627.583,411.184C626.461,411.184 625.551,409.805 625.551,408.106C625.551,406.407 626.461,405.027 627.583,405.027L631.657,405.027ZM623.509,405.027C624.63,405.027 625.541,406.407 625.541,408.106C625.541,409.805 624.63,411.184 623.509,411.184L619.435,411.184C618.313,411.184 617.402,409.805 617.402,408.106C617.402,406.407 618.313,405.027 619.435,405.027L623.509,405.027ZM615.361,405.027C616.482,405.027 617.393,406.407 617.393,408.106C617.393,409.805 616.482,411.184 615.361,411.184L611.287,411.184C610.165,411.184 609.254,409.805 609.254,408.106C609.254,406.407 610.165,405.027 611.287,405.027L615.361,405.027ZM607.212,405.027C608.334,405.027 609.245,406.407 609.245,408.106C609.245,409.805 608.334,411.184 607.212,411.184L603.138,411.184C602.017,411.184 601.106,409.805 601.106,408.106C601.106,406.407 602.017,405.027 603.138,405.027L607.212,405.027ZM599.064,405.027C600.186,405.027 601.096,406.407 601.096,408.106C601.096,409.805 600.186,411.184 599.064,411.184L594.99,411.184C593.868,411.184 592.957,409.805 592.957,408.106C592.957,406.407 593.868,405.027 594.99,405.027L599.064,405.027ZM590.916,405.027C592.038,405.027 592.948,406.407 592.948,408.106C592.948,409.805 592.038,411.184 590.916,411.184L586.842,411.184C585.721,411.184 584.81,409.805 584.81,408.106C584.81,406.407 585.721,405.027 586.842,405.027L590.916,405.027ZM582.769,405.027C583.89,405.027 584.801,406.407 584.801,408.106C584.801,409.805 583.89,411.184 582.769,411.184L578.694,411.184C577.573,411.184 576.662,409.805 576.662,408.106C576.662,406.407 577.573,405.027 578.694,405.027L582.769,405.027ZM574.62,405.027C575.742,405.027 576.653,406.407 576.653,408.106C576.653,409.805 575.742,411.184 574.62,411.184L570.546,411.184C569.425,411.184 568.514,409.805 568.514,408.106C568.514,406.407 569.425,405.027 570.546,405.027L574.62,405.027ZM566.472,405.027C567.594,405.027 568.505,406.407 568.505,408.106C568.505,409.805 567.594,411.184 566.472,411.184L562.399,411.184C561.277,411.184 560.366,409.805 560.366,408.106C560.366,406.407 561.277,405.027 562.399,405.027L566.472,405.027ZM558.324,405.027C559.445,405.027 560.356,406.407 560.356,408.106C560.356,409.805 559.445,411.184 558.324,411.184L554.25,411.184C553.128,411.184 552.218,409.805 552.218,408.106C552.218,406.407 553.128,405.027 554.25,405.027L558.324,405.027ZM550.176,405.027C551.298,405.027 552.209,406.407 552.209,408.106C552.209,409.805 551.298,411.184 550.176,411.184L546.102,411.184C544.98,411.184 544.07,409.805 544.07,408.106C544.07,406.407 544.98,405.027 546.102,405.027L550.176,405.027ZM542.027,405.027C543.149,405.027 544.06,406.407 544.06,408.106C544.06,409.805 543.149,411.184 542.027,411.184L537.953,411.184C536.831,411.184 535.921,409.805 535.921,408.106C535.921,406.407 536.831,405.027 537.953,405.027L542.027,405.027ZM533.879,405.027C535.001,405.027 535.912,406.407 535.912,408.106C535.912,409.805 535.001,411.184 533.879,411.184L529.805,411.184C528.684,411.184 527.773,409.805 527.773,408.106C527.773,406.407 528.684,405.027 529.805,405.027L533.879,405.027ZM525.731,405.027C526.853,405.027 527.764,406.407 527.764,408.106C527.764,409.805 526.853,411.184 525.731,411.184L521.658,411.184C520.536,411.184 519.625,409.805 519.625,408.106C519.625,406.407 520.536,405.027 521.658,405.027L525.731,405.027ZM517.583,405.027C518.705,405.027 519.616,406.407 519.616,408.106C519.616,409.805 518.705,411.184 517.583,411.184L513.509,411.184C512.387,411.184 511.477,409.805 511.477,408.106C511.477,406.407 512.387,405.027 513.509,405.027L517.583,405.027ZM509.435,405.027C510.557,405.027 511.468,406.407 511.468,408.106C511.468,409.805 510.557,411.184 509.435,411.184L505.361,411.184C504.239,411.184 503.329,409.805 503.329,408.106C503.329,406.407 504.239,405.027 505.361,405.027L509.435,405.027ZM501.288,405.027C502.41,405.027 503.32,406.407 503.32,408.106C503.32,409.805 502.41,411.184 501.288,411.184L497.214,411.184C496.092,411.184 495.182,409.805 495.182,408.106C495.182,406.407 496.092,405.027 497.214,405.027L501.288,405.027ZM493.139,405.027C494.261,405.027 495.172,406.407 495.172,408.106C495.172,409.805 494.261,411.184 493.139,411.184L489.065,411.184C487.943,411.184 487.033,409.805 487.033,408.106C487.033,406.407 487.943,405.027 489.065,405.027L493.139,405.027ZM484.991,405.027C486.113,405.027 487.024,406.407 487.024,408.106C487.024,409.805 486.113,411.184 484.991,411.184L480.917,411.184C479.795,411.184 478.885,409.805 478.885,408.106C478.885,406.407 479.795,405.027 480.917,405.027L484.991,405.027ZM476.842,405.027C477.964,405.027 478.875,406.407 478.875,408.106C478.875,409.805 477.964,411.184 476.842,411.184L472.768,411.184C471.646,411.184 470.736,409.805 470.736,408.106C470.736,406.407 471.646,405.027 472.768,405.027L476.842,405.027ZM468.695,405.027C469.816,405.027 470.727,406.407 470.727,408.106C470.727,409.805 469.816,411.184 468.695,411.184L464.62,411.184C463.499,411.184 462.588,409.805 462.588,408.106C462.588,406.407 463.499,405.027 464.62,405.027L468.695,405.027ZM460.548,405.027C461.669,405.027 462.58,406.407 462.58,408.106C462.58,409.805 461.669,411.184 460.548,411.184L456.474,411.184C455.352,411.184 454.441,409.805 454.441,408.106C454.441,406.407 455.352,405.027 456.474,405.027L460.548,405.027ZM452.399,405.027C453.521,405.027 454.431,406.407 454.431,408.106C454.431,409.805 453.521,411.184 452.399,411.184L448.325,411.184C447.203,411.184 446.292,409.805 446.292,408.106C446.292,406.407 447.203,405.027 448.325,405.027L452.399,405.027ZM444.251,405.027C445.372,405.027 446.283,406.407 446.283,408.106C446.283,409.805 445.372,411.184 444.251,411.184L440.176,411.184C439.055,411.184 438.144,409.805 438.144,408.106C438.144,406.407 439.055,405.027 440.176,405.027L444.251,405.027ZM436.103,405.027C437.224,405.027 438.135,406.407 438.135,408.106C438.135,409.805 437.224,411.184 436.103,411.184L432.029,411.184C430.907,411.184 429.997,409.805 429.997,408.106C429.997,406.407 430.907,405.027 432.029,405.027L436.103,405.027ZM427.954,405.027C429.075,405.027 429.986,406.407 429.986,408.106C429.986,409.805 429.075,411.184 427.954,411.184L423.879,411.184C422.758,411.184 421.847,409.805 421.847,408.106C421.847,406.407 422.758,405.027 423.879,405.027L427.954,405.027ZM419.807,405.027C420.928,405.027 421.839,406.407 421.839,408.106C421.839,409.805 420.928,411.184 419.807,411.184L415.733,411.184C414.611,411.184 413.7,409.805 413.7,408.106C413.7,406.407 414.611,405.027 415.733,405.027L419.807,405.027ZM411.658,405.027C412.78,405.027 413.691,406.407 413.691,408.106C413.691,409.805 412.78,411.184 411.658,411.184L407.584,411.184C406.462,411.184 405.552,409.805 405.552,408.106C405.552,406.407 406.462,405.027 407.584,405.027L411.658,405.027ZM403.51,405.027C404.632,405.027 405.543,406.407 405.543,408.106C405.543,409.805 404.632,411.184 403.51,411.184L399.436,411.184C398.315,411.184 397.404,409.805 397.404,408.106C397.404,406.407 398.315,405.027 399.436,405.027L403.51,405.027ZM395.362,405.027C396.483,405.027 397.394,406.407 397.394,408.106C397.394,409.805 396.483,411.184 395.362,411.184L391.287,411.184C390.166,411.184 389.255,409.805 389.255,408.106C389.255,406.407 390.166,405.027 391.287,405.027L395.362,405.027ZM387.214,405.027C388.336,405.027 389.246,406.407 389.246,408.106C389.246,409.805 388.336,411.184 387.214,411.184L383.14,411.184C382.018,411.184 381.108,409.805 381.108,408.106C381.108,406.407 382.018,405.027 383.14,405.027L387.214,405.027ZM379.067,405.027C380.188,405.027 381.099,406.407 381.099,408.106C381.099,409.805 380.188,411.184 379.067,411.184L374.993,411.184C373.871,411.184 372.96,409.805 372.96,408.106C372.96,406.407 373.871,405.027 374.993,405.027L379.067,405.027ZM370.918,405.027C372.039,405.027 372.95,406.407 372.95,408.106C372.95,409.805 372.039,411.184 370.918,411.184L366.844,411.184C365.722,411.184 364.812,409.805 364.812,408.106C364.812,406.407 365.722,405.027 366.844,405.027L370.918,405.027ZM362.769,405.027C363.891,405.027 364.801,406.407 364.801,408.106C364.801,409.805 363.891,411.184 362.769,411.184L358.695,411.184C357.573,411.184 356.663,409.805 356.663,408.106C356.663,406.407 357.573,405.027 358.695,405.027L362.769,405.027ZM354.621,405.027C355.743,405.027 356.654,406.407 356.654,408.106C356.654,409.805 355.743,411.184 354.621,411.184L350.547,411.184C349.425,411.184 348.515,409.805 348.515,408.106C348.515,406.407 349.425,405.027 350.547,405.027L354.621,405.027ZM346.473,405.027C347.595,405.027 348.505,406.407 348.505,408.106C348.505,409.805 347.595,411.184 346.473,411.184L342.399,411.184C341.277,411.184 340.367,409.805 340.367,408.106C340.367,406.407 341.277,405.027 342.399,405.027L346.473,405.027ZM338.325,405.027C339.446,405.027 340.357,406.407 340.357,408.106C340.357,409.805 339.446,411.184 338.325,411.184L334.251,411.184C333.129,411.184 332.218,409.805 332.218,408.106C332.218,406.407 333.129,405.027 334.251,405.027L338.325,405.027ZM330.177,405.027C331.299,405.027 332.21,406.407 332.21,408.106C332.21,409.805 331.299,411.184 330.177,411.184L326.103,411.184C324.982,411.184 324.071,409.805 324.071,408.106C324.071,406.407 324.982,405.027 326.103,405.027L330.177,405.027ZM322.03,405.027C323.151,405.027 324.062,406.407 324.062,408.106C324.062,409.805 323.151,411.184 322.03,411.184L317.956,411.184C316.834,411.184 315.923,409.805 315.923,408.106C315.923,406.407 316.834,405.027 317.956,405.027L322.03,405.027ZM313.88,405.027C315.002,405.027 315.913,406.407 315.913,408.106C315.913,409.805 315.002,411.184 313.88,411.184L309.806,411.184C308.685,411.184 307.774,409.805 307.774,408.106C307.774,406.407 308.685,405.027 309.806,405.027L313.88,405.027ZM305.733,405.027C306.855,405.027 307.766,406.407 307.766,408.106C307.766,409.805 306.855,411.184 305.733,411.184L301.659,411.184C300.538,411.184 299.627,409.805 299.627,408.106C299.627,406.407 300.538,405.027 301.659,405.027L305.733,405.027ZM297.585,405.027C298.707,405.027 299.617,406.407 299.617,408.106C299.617,409.805 298.707,411.184 297.585,411.184L293.511,411.184C292.389,411.184 291.479,409.805 291.479,408.106C291.479,406.407 292.389,405.027 293.511,405.027L297.585,405.027ZM289.436,405.027C290.558,405.027 291.469,406.407 291.469,408.106C291.469,409.805 290.558,411.184 289.436,411.184L285.362,411.184C284.24,411.184 283.33,409.805 283.33,408.106C283.33,406.407 284.24,405.027 285.362,405.027L289.436,405.027ZM281.289,405.027C282.41,405.027 283.321,406.407 283.321,408.106C283.321,409.805 282.41,411.184 281.289,411.184L277.214,411.184C276.093,411.184 275.182,409.805 275.182,408.106C275.182,406.407 276.093,405.027 277.214,405.027L281.289,405.027ZM273.141,405.027C274.262,405.027 275.173,406.407 275.173,408.106C275.173,409.805 274.262,411.184 273.141,411.184L269.067,411.184C267.945,411.184 267.034,409.805 267.034,408.106C267.034,406.407 267.945,405.027 269.067,405.027L273.141,405.027ZM264.993,405.027C266.114,405.027 267.025,406.407 267.025,408.106C267.025,409.805 266.114,411.184 264.993,411.184L260.918,411.184C259.797,411.184 258.886,409.805 258.886,408.106C258.886,406.407 259.797,405.027 260.918,405.027L264.993,405.027ZM256.844,405.027C257.966,405.027 258.876,406.407 258.876,408.106C258.876,409.805 257.966,411.184 256.844,411.184L252.77,411.184C251.648,411.184 250.738,409.805 250.738,408.106C250.738,406.407 251.648,405.027 252.77,405.027L256.844,405.027ZM248.697,405.027C249.818,405.027 250.729,406.407 250.729,408.106C250.729,409.805 249.818,411.184 248.697,411.184L244.623,411.184C243.501,411.184 242.59,409.805 242.59,408.106C242.59,406.407 243.501,405.027 244.623,405.027L248.697,405.027ZM240.548,405.027C241.67,405.027 242.58,406.407 242.58,408.106C242.58,409.805 241.67,411.184 240.548,411.184L236.474,411.184C235.352,411.184 234.442,409.805 234.442,408.106C234.442,406.407 235.352,405.027 236.474,405.027L240.548,405.027ZM232.4,405.027C233.522,405.027 234.433,406.407 234.433,408.106C234.433,409.805 233.522,411.184 232.4,411.184L228.326,411.184C227.205,411.184 226.294,409.805 226.294,408.106C226.294,406.407 227.205,405.027 228.326,405.027L232.4,405.027ZM224.252,405.027C225.374,405.027 226.284,406.407 226.284,408.106C226.284,409.805 225.374,411.184 224.252,411.184L220.178,411.184C219.056,411.184 218.146,409.805 218.146,408.106C218.146,406.407 219.056,405.027 220.178,405.027L224.252,405.027ZM216.104,405.027C217.225,405.027 218.136,406.407 218.136,408.106C218.136,409.805 217.225,411.184 216.104,411.184L212.03,411.184C210.908,411.184 209.997,409.805 209.997,408.106C209.997,406.407 210.908,405.027 212.03,405.027L216.104,405.027ZM207.956,405.027C209.078,405.027 209.988,406.407 209.988,408.106C209.988,409.805 209.078,411.184 207.956,411.184L203.882,411.184C202.76,411.184 201.85,409.805 201.85,408.106C201.85,406.407 202.76,405.027 203.882,405.027L207.956,405.027ZM199.808,405.027C200.929,405.027 201.84,406.407 201.84,408.106C201.84,409.805 200.929,411.184 199.808,411.184L195.734,411.184C194.612,411.184 193.701,409.805 193.701,408.106C193.701,406.407 194.612,405.027 195.734,405.027L199.808,405.027ZM191.66,405.027C192.781,405.027 193.692,406.407 193.692,408.106C193.692,409.805 192.781,411.184 191.66,411.184L187.586,411.184C186.464,411.184 185.553,409.805 185.553,408.106C185.553,406.407 186.464,405.027 187.586,405.027L191.66,405.027ZM183.512,405.027C184.633,405.027 185.544,406.407 185.544,408.106C185.544,409.805 184.633,411.184 183.512,411.184L179.438,411.184C178.316,411.184 177.405,409.805 177.405,408.106C177.405,406.407 178.316,405.027 179.438,405.027L183.512,405.027ZM175.363,405.027C176.485,405.027 177.396,406.407 177.396,408.106C177.396,409.805 176.485,411.184 175.363,411.184L173.326,411.184C172.413,411.184 171.52,411.048 170.656,410.789C169.556,410.459 168.84,408.838 169.058,407.171C169.276,405.504 170.346,404.419 171.446,404.749C172.054,404.932 172.683,405.027 173.326,405.027L175.363,405.027ZM167.98,402.571C168.912,403.516 169.162,405.43 168.537,406.842C167.913,408.253 166.65,408.632 165.718,407.686C164.226,406.173 162.942,404.227 161.943,401.968C161.318,400.556 161.568,398.643 162.5,397.697C163.432,396.752 164.695,397.13 165.32,398.542C166.024,400.133 166.929,401.504 167.98,402.571ZM163.881,393.291C164.099,394.958 163.383,396.579 162.283,396.909C161.182,397.239 160.112,396.154 159.894,394.487C159.723,393.179 159.633,391.827 159.633,390.443L159.633,387.258C159.633,385.559 160.544,384.18 161.666,384.18C162.787,384.18 163.698,385.559 163.698,387.258L163.698,390.443C163.698,391.417 163.761,392.37 163.881,393.291ZM163.698,380.888C163.698,382.588 162.787,383.967 161.666,383.967C160.544,383.967 159.633,382.588 159.633,380.888L159.633,374.519C159.633,372.82 160.544,371.441 161.666,371.441C162.787,371.441 163.698,372.82 163.698,374.519L163.698,380.888ZM163.698,368.149C163.698,369.848 162.787,371.228 161.666,371.228C160.544,371.228 159.633,369.848 159.633,368.149L159.633,361.78C159.633,360.081 160.544,358.701 161.666,358.701C162.787,358.701 163.698,360.081 163.698,361.78L163.698,368.149ZM163.698,355.41C163.698,357.109 162.787,358.489 161.666,358.489C160.544,358.489 159.633,357.109 159.633,355.41L159.633,349.041C159.633,347.342 160.544,345.962 161.666,345.962C162.787,345.962 163.698,347.342 163.698,349.041L163.698,355.41ZM163.698,342.671C163.698,344.37 162.787,345.75 161.666,345.75C160.544,345.75 159.633,344.37 159.633,342.671L159.633,336.302C159.633,334.603 160.544,333.223 161.666,333.223C162.787,333.223 163.698,334.603 163.698,336.302L163.698,342.671ZM163.698,329.932C163.698,331.631 162.787,333.011 161.666,333.011C160.544,333.011 159.633,331.631 159.633,329.932L159.633,323.563C159.633,321.864 160.544,320.484 161.666,320.484C162.787,320.484 163.698,321.864 163.698,323.563L163.698,329.932ZM163.698,317.193C163.698,318.892 162.787,320.272 161.666,320.272C160.544,320.272 159.633,318.892 159.633,317.193L159.633,310.824C159.633,309.125 160.544,307.745 161.666,307.745C162.787,307.745 163.698,309.125 163.698,310.824L163.698,317.193ZM163.698,304.454C163.698,306.153 162.787,307.532 161.666,307.532C160.544,307.532 159.633,306.153 159.633,304.454L159.633,298.084C159.633,296.385 160.544,295.006 161.666,295.006C162.787,295.006 163.698,296.385 163.698,298.084L163.698,304.454ZM163.698,291.715C163.698,293.414 162.787,294.793 161.666,294.793C160.544,294.793 159.633,293.414 159.633,291.715L159.633,285.345C159.633,283.646 160.544,282.267 161.666,282.267C162.787,282.267 163.698,283.646 163.698,285.345L163.698,291.715ZM163.698,278.976C163.698,280.675 162.787,282.054 161.666,282.054C160.544,282.054 159.633,280.675 159.633,278.976L159.633,272.606C159.633,270.907 160.544,269.528 161.666,269.528C162.787,269.528 163.698,270.907 163.698,272.606L163.698,278.976ZM163.698,266.237C163.698,267.936 162.787,269.315 161.666,269.315C160.544,269.315 159.633,267.936 159.633,266.237L159.633,263.052C159.633,261.668 159.723,260.316 159.894,259.008C160.112,257.341 161.182,256.256 162.283,256.586C163.383,256.916 164.099,258.537 163.881,260.204C163.761,261.125 163.698,262.078 163.698,263.052L163.698,266.237ZM165.32,254.953C164.695,256.365 163.432,256.743 162.5,255.798C161.568,254.852 161.318,252.939 161.943,251.527C162.942,249.268 164.226,247.322 165.718,245.809C166.65,244.863 167.913,245.242 168.537,246.653C169.162,248.065 168.912,249.979 167.98,250.924C166.929,251.99 166.024,253.361 165.32,254.953ZM171.446,248.745C170.346,249.076 169.276,247.991 169.058,246.324C168.84,244.657 169.556,243.036 170.656,242.706C171.52,242.447 172.413,242.311 173.326,242.311L175.363,242.311C176.485,242.311 177.396,243.69 177.396,245.389C177.396,247.088 176.485,248.467 175.363,248.467L173.326,248.467C172.683,248.467 172.054,248.563 171.446,248.745ZM179.437,248.467C178.316,248.467 177.405,247.088 177.405,245.389C177.405,243.69 178.316,242.311 179.437,242.311L183.512,242.311C184.633,242.311 185.544,243.69 185.544,245.389C185.544,247.088 184.633,248.467 183.512,248.467L179.437,248.467ZM187.586,248.467C186.464,248.467 185.553,247.088 185.553,245.389C185.553,243.69 186.464,242.311 187.586,242.311L191.659,242.311C192.781,242.311 193.692,243.69 193.692,245.389C193.692,247.088 192.781,248.467 191.659,248.467L187.586,248.467ZM195.733,248.467C194.612,248.467 193.701,247.088 193.701,245.389C193.701,243.69 194.612,242.311 195.733,242.311L199.807,242.311C200.929,242.311 201.84,243.69 201.84,245.389C201.84,247.088 200.929,248.467 199.807,248.467L195.733,248.467ZM203.882,248.467C202.76,248.467 201.85,247.088 201.85,245.389C201.85,243.69 202.76,242.311 203.882,242.311L207.956,242.311C209.078,242.311 209.989,243.69 209.989,245.389C209.989,247.088 209.078,248.467 207.956,248.467L203.882,248.467ZM212.03,248.467C210.908,248.467 209.998,247.088 209.998,245.389C209.998,243.69 210.908,242.311 212.03,242.311L216.104,242.311C217.226,242.311 218.136,243.69 218.136,245.389C218.136,247.088 217.226,248.467 216.104,248.467L212.03,248.467ZM220.178,248.467C219.056,248.467 218.146,247.088 218.146,245.389C218.146,243.69 219.056,242.311 220.178,242.311L224.252,242.311C225.374,242.311 226.284,243.69 226.284,245.389C226.284,247.088 225.374,248.467 224.252,248.467L220.178,248.467ZM228.326,248.467C227.204,248.467 226.294,247.088 226.294,245.389C226.294,243.69 227.204,242.311 228.326,242.311L232.4,242.311C233.522,242.311 234.432,243.69 234.432,245.389C234.432,247.088 233.522,248.467 232.4,248.467L228.326,248.467ZM236.474,248.467C235.353,248.467 234.442,247.088 234.442,245.389C234.442,243.69 235.353,242.311 236.474,242.311L240.548,242.311C241.67,242.311 242.581,243.69 242.581,245.389C242.581,247.088 241.67,248.467 240.548,248.467L236.474,248.467ZM244.622,248.467C243.5,248.467 242.59,247.088 242.59,245.389C242.59,243.69 243.5,242.311 244.622,242.311L248.696,242.311C249.818,242.311 250.728,243.69 250.728,245.389C250.728,247.088 249.818,248.467 248.696,248.467L244.622,248.467ZM252.771,248.467C251.649,248.467 250.738,247.088 250.738,245.389C250.738,243.69 251.649,242.311 252.771,242.311L256.845,242.311C257.966,242.311 258.877,243.69 258.877,245.389C258.877,247.088 257.966,248.467 256.845,248.467L252.771,248.467ZM260.919,248.467C259.797,248.467 258.887,247.088 258.887,245.389C258.887,243.69 259.797,242.311 260.919,242.311L264.993,242.311C266.115,242.311 267.026,243.69 267.026,245.389C267.026,247.088 266.115,248.467 264.993,248.467L260.919,248.467ZM269.067,248.467C267.945,248.467 267.035,247.088 267.035,245.389C267.035,243.69 267.945,242.311 269.067,242.311L273.141,242.311C274.262,242.311 275.173,243.69 275.173,245.389C275.173,247.088 274.262,248.467 273.141,248.467L269.067,248.467ZM277.214,248.467C276.093,248.467 275.182,247.088 275.182,245.389C275.182,243.69 276.093,242.311 277.214,242.311L281.289,242.311C282.41,242.311 283.321,243.69 283.321,245.389C283.321,247.088 282.41,248.467 281.289,248.467L277.214,248.467ZM285.363,248.467C284.241,248.467 283.33,247.088 283.33,245.389C283.33,243.69 284.241,242.311 285.363,242.311L289.436,242.311C290.558,242.311 291.469,243.69 291.469,245.389C291.469,247.088 290.558,248.467 289.436,248.467L285.363,248.467ZM293.51,248.467C292.389,248.467 291.478,247.088 291.478,245.389C291.478,243.69 292.389,242.311 293.51,242.311L297.584,242.311C298.706,242.311 299.617,243.69 299.617,245.389C299.617,247.088 298.706,248.467 297.584,248.467L293.51,248.467ZM301.659,248.467C300.537,248.467 299.627,247.088 299.627,245.389C299.627,243.69 300.537,242.311 301.659,242.311L305.733,242.311C306.855,242.311 307.765,243.69 307.765,245.389C307.765,247.088 306.855,248.467 305.733,248.467L301.659,248.467ZM309.807,248.467C308.685,248.467 307.774,247.088 307.774,245.389C307.774,243.69 308.685,242.311 309.807,242.311L313.881,242.311C315.003,242.311 315.913,243.69 315.913,245.389C315.913,247.088 315.003,248.467 313.881,248.467L309.807,248.467ZM317.955,248.467C316.834,248.467 315.923,247.088 315.923,245.389C315.923,243.69 316.834,242.311 317.955,242.311L322.03,242.311C323.151,242.311 324.062,243.69 324.062,245.389C324.062,247.088 323.151,248.467 322.03,248.467L317.955,248.467ZM326.104,248.467C324.982,248.467 324.071,247.088 324.071,245.389C324.071,243.69 324.982,242.311 326.104,242.311L330.177,242.311C331.299,242.311 332.21,243.69 332.21,245.389C332.21,247.088 331.299,248.467 330.177,248.467L326.104,248.467ZM334.252,248.467C333.13,248.467 332.219,247.088 332.219,245.389C332.219,243.69 333.13,242.311 334.252,242.311L338.325,242.311C339.447,242.311 340.358,243.69 340.358,245.389C340.358,247.088 339.447,248.467 338.325,248.467L334.252,248.467ZM342.399,248.467C341.278,248.467 340.367,247.088 340.367,245.389C340.367,243.69 341.278,242.311 342.399,242.311L346.474,242.311C347.595,242.311 348.506,243.69 348.506,245.389C348.506,247.088 347.595,248.467 346.474,248.467L342.399,248.467ZM350.548,248.467C349.426,248.467 348.515,247.088 348.515,245.389C348.515,243.69 349.426,242.311 350.548,242.311L354.622,242.311C355.744,242.311 356.654,243.69 356.654,245.389C356.654,247.088 355.744,248.467 354.622,248.467L350.548,248.467ZM358.695,248.467C357.573,248.467 356.663,247.088 356.663,245.389C356.663,243.69 357.573,242.311 358.695,242.311L362.769,242.311C363.891,242.311 364.801,243.69 364.801,245.389C364.801,247.088 363.891,248.467 362.769,248.467L358.695,248.467ZM366.844,248.467C365.722,248.467 364.811,247.088 364.811,245.389C364.811,243.69 365.722,242.311 366.844,242.311L370.918,242.311C372.04,242.311 372.95,243.69 372.95,245.389C372.95,247.088 372.04,248.467 370.918,248.467L366.844,248.467ZM374.991,248.467C373.87,248.467 372.959,247.088 372.959,245.389C372.959,243.69 373.87,242.311 374.991,242.311L379.066,242.311C380.187,242.311 381.098,243.69 381.098,245.389C381.098,247.088 380.187,248.467 379.066,248.467L374.991,248.467ZM383.141,248.467C382.019,248.467 381.108,247.088 381.108,245.389C381.108,243.69 382.019,242.311 383.141,242.311L387.215,242.311C388.337,242.311 389.247,243.69 389.247,245.389C389.247,247.088 388.337,248.467 387.215,248.467L383.141,248.467ZM391.288,248.467C390.167,248.467 389.256,247.088 389.256,245.389C389.256,243.69 390.167,242.311 391.288,242.311L395.363,242.311C396.484,242.311 397.395,243.69 397.395,245.389C397.395,247.088 396.484,248.467 395.363,248.467L391.288,248.467ZM399.435,248.467C398.314,248.467 397.403,247.088 397.403,245.389C397.403,243.69 398.314,242.311 399.435,242.311L403.509,242.311C404.631,242.311 405.542,243.69 405.542,245.389C405.542,247.088 404.631,248.467 403.509,248.467L399.435,248.467ZM407.584,248.467C406.462,248.467 405.552,247.088 405.552,245.389C405.552,243.69 406.462,242.311 407.584,242.311L411.658,242.311C412.78,242.311 413.69,243.69 413.69,245.389C413.69,247.088 412.78,248.467 411.658,248.467L407.584,248.467ZM415.732,248.467C414.611,248.467 413.7,247.088 413.7,245.389C413.7,243.69 414.611,242.311 415.732,242.311L419.807,242.311C420.928,242.311 421.839,243.69 421.839,245.389C421.839,247.088 420.928,248.467 419.807,248.467L415.732,248.467ZM423.88,248.467C422.759,248.467 421.848,247.088 421.848,245.389C421.848,243.69 422.759,242.311 423.88,242.311L427.954,242.311C429.076,242.311 429.986,243.69 429.986,245.389C429.986,247.088 429.076,248.467 427.954,248.467L423.88,248.467ZM432.029,248.467C430.908,248.467 429.997,247.088 429.997,245.389C429.997,243.69 430.908,242.311 432.029,242.311L436.103,242.311C437.225,242.311 438.136,243.69 438.136,245.389C438.136,247.088 437.225,248.467 436.103,248.467L432.029,248.467ZM440.176,248.467C439.055,248.467 438.144,247.088 438.144,245.389C438.144,243.69 439.055,242.311 440.176,242.311L444.25,242.311C445.372,242.311 446.283,243.69 446.283,245.389C446.283,247.088 445.372,248.467 444.25,248.467L440.176,248.467ZM448.325,248.467C447.203,248.467 446.292,247.088 446.292,245.389C446.292,243.69 447.203,242.311 448.325,242.311L452.399,242.311C453.521,242.311 454.431,243.69 454.431,245.389C454.431,247.088 453.521,248.467 452.399,248.467L448.325,248.467ZM456.473,248.467C455.351,248.467 454.44,247.088 454.44,245.389C454.44,243.69 455.351,242.311 456.473,242.311L460.547,242.311C461.668,242.311 462.579,243.69 462.579,245.389C462.579,247.088 461.668,248.467 460.547,248.467L456.473,248.467ZM464.621,248.467C463.5,248.467 462.589,247.088 462.589,245.389C462.589,243.69 463.5,242.311 464.621,242.311L468.696,242.311C469.817,242.311 470.728,243.69 470.728,245.389C470.728,247.088 469.817,248.467 468.696,248.467L464.621,248.467ZM472.769,248.467C471.647,248.467 470.737,247.088 470.737,245.389C470.737,243.69 471.647,242.311 472.769,242.311L476.843,242.311C477.965,242.311 478.875,243.69 478.875,245.389C478.875,247.088 477.965,248.467 476.843,248.467L472.769,248.467ZM480.916,248.467C479.795,248.467 478.884,247.088 478.884,245.389C478.884,243.69 479.795,242.311 480.916,242.311L484.99,242.311C486.112,242.311 487.023,243.69 487.023,245.389C487.023,247.088 486.112,248.467 484.99,248.467L480.916,248.467ZM489.065,248.467C487.944,248.467 487.033,247.088 487.033,245.389C487.033,243.69 487.944,242.311 489.065,242.311L493.139,242.311C494.261,242.311 495.171,243.69 495.171,245.389C495.171,247.088 494.261,248.467 493.139,248.467L489.065,248.467ZM497.214,248.467C496.092,248.467 495.182,247.088 495.182,245.389C495.182,243.69 496.092,242.311 497.214,242.311L501.288,242.311C502.41,242.311 503.32,243.69 503.32,245.389C503.32,247.088 502.41,248.467 501.288,248.467L497.214,248.467ZM505.362,248.467C504.24,248.467 503.329,247.088 503.329,245.389C503.329,243.69 504.24,242.311 505.362,242.311L509.436,242.311C510.558,242.311 511.468,243.69 511.468,245.389C511.468,247.088 510.558,248.467 509.436,248.467L505.362,248.467ZM513.51,248.467C512.388,248.467 511.478,247.088 511.478,245.389C511.478,243.69 512.388,242.311 513.51,242.311L517.584,242.311C518.706,242.311 519.616,243.69 519.616,245.389C519.616,247.088 518.706,248.467 517.584,248.467L513.51,248.467ZM521.658,248.467C520.536,248.467 519.626,247.088 519.626,245.389C519.626,243.69 520.536,242.311 521.658,242.311L525.732,242.311C526.854,242.311 527.765,243.69 527.765,245.389C527.765,247.088 526.854,248.467 525.732,248.467L521.658,248.467ZM529.806,248.467C528.684,248.467 527.773,247.088 527.773,245.389C527.773,243.69 528.684,242.311 529.806,242.311L533.88,242.311C535.001,242.311 535.912,243.69 535.912,245.389C535.912,247.088 535.001,248.467 533.88,248.467L529.806,248.467ZM537.953,248.467C536.832,248.467 535.921,247.088 535.921,245.389C535.921,243.69 536.832,242.311 537.953,242.311L542.027,242.311C543.149,242.311 544.06,243.69 544.06,245.389C544.06,247.088 543.149,248.467 542.027,248.467L537.953,248.467ZM546.102,248.467C544.981,248.467 544.07,247.088 544.07,245.389C544.07,243.69 544.981,242.311 546.102,242.311L550.177,242.311C551.298,242.311 552.209,243.69 552.209,245.389C552.209,247.088 551.298,248.467 550.177,248.467L546.102,248.467ZM554.249,248.467C553.128,248.467 552.217,247.088 552.217,245.389C552.217,243.69 553.128,242.311 554.249,242.311L558.324,242.311C559.445,242.311 560.356,243.69 560.356,245.389C560.356,247.088 559.445,248.467 558.324,248.467L554.249,248.467ZM562.398,248.467C561.276,248.467 560.366,247.088 560.366,245.389C560.366,243.69 561.276,242.311 562.398,242.311L566.472,242.311C567.594,242.311 568.504,243.69 568.504,245.389C568.504,247.088 567.594,248.467 566.472,248.467L562.398,248.467ZM570.547,248.467C569.425,248.467 568.514,247.088 568.514,245.389C568.514,243.69 569.425,242.311 570.547,242.311L574.621,242.311C575.742,242.311 576.653,243.69 576.653,245.389C576.653,247.088 575.742,248.467 574.621,248.467L570.547,248.467ZM578.694,248.467C577.573,248.467 576.662,247.088 576.662,245.389C576.662,243.69 577.573,242.311 578.694,242.311L582.768,242.311C583.89,242.311 584.801,243.69 584.801,245.389C584.801,247.088 583.89,248.467 582.768,248.467L578.694,248.467ZM586.842,248.467C585.721,248.467 584.81,247.088 584.81,245.389C584.81,243.69 585.721,242.311 586.842,242.311L590.916,242.311C592.038,242.311 592.949,243.69 592.949,245.389C592.949,247.088 592.038,248.467 590.916,248.467L586.842,248.467ZM594.99,248.467C593.869,248.467 592.958,247.088 592.958,245.389C592.958,243.69 593.869,242.311 594.99,242.311L599.064,242.311C600.186,242.311 601.097,243.69 601.097,245.389C601.097,247.088 600.186,248.467 599.064,248.467L594.99,248.467ZM603.139,248.467C602.017,248.467 601.106,247.088 601.106,245.389C601.106,243.69 602.017,242.311 603.139,242.311L607.213,242.311C608.334,242.311 609.245,243.69 609.245,245.389C609.245,247.088 608.334,248.467 607.213,248.467L603.139,248.467ZM611.286,248.467C610.164,248.467 609.254,247.088 609.254,245.389C609.254,243.69 610.164,242.311 611.286,242.311L615.36,242.311C616.482,242.311 617.392,243.69 617.392,245.389C617.392,247.088 616.482,248.467 615.36,248.467L611.286,248.467ZM619.435,248.467C618.313,248.467 617.402,247.088 617.402,245.389C617.402,243.69 618.313,242.311 619.435,242.311L623.509,242.311C624.63,242.311 625.541,243.69 625.541,245.389C625.541,247.088 624.63,248.467 623.509,248.467L619.435,248.467ZM627.583,248.467C626.461,248.467 625.55,247.088 625.55,245.389C625.55,243.69 626.461,242.311 627.583,242.311L631.657,242.311C632.778,242.311 633.689,243.69 633.689,245.389C633.689,247.088 632.778,248.467 631.657,248.467L627.583,248.467ZM635.731,248.467C634.609,248.467 633.699,247.088 633.699,245.389C633.699,243.69 634.609,242.311 635.731,242.311L639.805,242.311C640.927,242.311 641.837,243.69 641.837,245.389C641.837,247.088 640.927,248.467 639.805,248.467L635.731,248.467ZM643.879,248.467C642.758,248.467 641.847,247.088 641.847,245.389C641.847,243.69 642.758,242.311 643.879,242.311L647.953,242.311C649.075,242.311 649.985,243.69 649.985,245.389C649.985,247.088 649.075,248.467 647.953,248.467L643.879,248.467ZM652.027,248.467C650.905,248.467 649.995,247.088 649.995,245.389C649.995,243.69 650.905,242.311 652.027,242.311L656.101,242.311C657.223,242.311 658.133,243.69 658.133,245.389C658.133,247.088 657.223,248.467 656.101,248.467L652.027,248.467ZM660.175,248.467C659.054,248.467 658.143,247.088 658.143,245.389C658.143,243.69 659.054,242.311 660.175,242.311L664.249,242.311C665.371,242.311 666.282,243.69 666.282,245.389C666.282,247.088 665.371,248.467 664.249,248.467L660.175,248.467ZM668.323,248.467C667.202,248.467 666.291,247.088 666.291,245.389C666.291,243.69 667.202,242.311 668.323,242.311L672.397,242.311C673.519,242.311 674.43,243.69 674.43,245.389C674.43,247.088 673.519,248.467 672.397,248.467L668.323,248.467ZM676.471,248.467C675.35,248.467 674.439,247.088 674.439,245.389C674.439,243.69 675.35,242.311 676.471,242.311L680.545,242.311C681.667,242.311 682.578,243.69 682.578,245.389C682.578,247.088 681.667,248.467 680.545,248.467L676.471,248.467ZM684.62,248.467C683.498,248.467 682.587,247.088 682.587,245.389C682.587,243.69 683.498,242.311 684.62,242.311L686.657,242.311C687.57,242.311 688.463,242.447 689.327,242.706C690.427,243.036 691.143,244.657 690.925,246.324C690.707,247.991 689.637,249.076 688.537,248.745C687.929,248.563 687.3,248.467 686.657,248.467L684.62,248.467ZM692.003,250.924C691.071,249.979 690.821,248.065 691.446,246.653C692.07,245.242 693.333,244.863 694.265,245.809C695.757,247.322 697.041,249.268 698.04,251.527C698.665,252.939 698.415,254.852 697.483,255.798C696.551,256.743 695.287,256.365 694.663,254.953C693.959,253.361 693.054,251.99 692.003,250.924Z" style="fill:rgb(0,53,255);"/>
        </g>
    </g>
</svg>
